<svg width="40" height="40" viewBox="0 0 40 40" fill="none" xmlns="http://www.w3.org/2000/svg">
<path d="M6.875 13.75C6.70924 13.75 6.55027 13.8158 6.43306 13.9331C6.31585 14.0503 6.25 14.2092 6.25 14.375V18.125C6.25 18.2908 6.31585 18.4497 6.43306 18.5669C6.55027 18.6842 6.70924 18.75 6.875 18.75H10.625C10.7908 18.75 10.9497 18.6842 11.0669 18.5669C11.1842 18.4497 11.25 18.2908 11.25 18.125V15.1562L14.125 13L13.375 12L10.925 13.8375C10.8344 13.7826 10.7309 13.7525 10.625 13.75H6.875ZM9.125 16.75L10 16.0938V17.5H7.5V15H9.375L8.375 15.75L9.125 16.75Z" fill="#9D9309"/>
<path d="M10.925 21.3375C10.8344 21.2826 10.7309 21.2525 10.625 21.25H6.875C6.70924 21.25 6.55027 21.3158 6.43306 21.4331C6.31585 21.5503 6.25 21.7092 6.25 21.875V25.625C6.25 25.7908 6.31585 25.9497 6.43306 26.0669C6.55027 26.1842 6.70924 26.25 6.875 26.25H10.625C10.7908 26.25 10.9497 26.1842 11.0669 26.0669C11.1842 25.9497 11.25 25.7908 11.25 25.625V22.6562L14.125 20.5L13.375 19.5L10.925 21.3375ZM10 25H7.5V22.5H9.375L8.375 23.25L9.125 24.25L10 23.5938V25Z" fill="#9D9309"/>
<path d="M13.375 27L10.925 28.8375C10.8344 28.7826 10.7309 28.7525 10.625 28.75H6.875C6.70924 28.75 6.55027 28.8158 6.43306 28.9331C6.31585 29.0503 6.25 29.2092 6.25 29.375V33.125C6.25 33.2908 6.31585 33.4497 6.43306 33.5669C6.55027 33.6842 6.70924 33.75 6.875 33.75H10.625C10.7908 33.75 10.9497 33.6842 11.0669 33.5669C11.1842 33.4497 11.25 33.2908 11.25 33.125V30.1562L14.125 28L13.375 27ZM10 32.5H7.5V30H9.375L8.375 30.75L9.125 31.75L10 31.0938V32.5Z" fill="#9D9309"/>
<path d="M16.25 12.5H25V13.75H16.25V12.5Z" fill="black"/>
<path d="M16.25 16.25H25V17.5H16.25V16.25Z" fill="black"/>
<path d="M16.25 20H22.5V21.25H16.25V20Z" fill="black"/>
<path d="M16.25 23.75H18.75V25H16.25V23.75Z" fill="black"/>
<path d="M38.8075 11.0856L37.0394 9.3175C36.9222 9.20033 36.7632 9.13451 36.5975 9.13451C36.4318 9.13451 36.2728 9.20033 36.1556 9.3175L30 15.4731V6.875C30 6.37772 29.8025 5.90081 29.4508 5.54917C29.0992 5.19754 28.6223 5 28.125 5H22.5V4.375C22.5 4.20924 22.4342 4.05027 22.3169 3.93306C22.1997 3.81585 22.0408 3.75 21.875 3.75H19.375V1.875C19.375 1.70924 19.3092 1.55027 19.1919 1.43306C19.0747 1.31585 18.9158 1.25 18.75 1.25H12.5C12.3342 1.25 12.1753 1.31585 12.0581 1.43306C11.9408 1.55027 11.875 1.70924 11.875 1.875V3.75H9.375C9.20924 3.75 9.05027 3.81585 8.93306 3.93306C8.81585 4.05027 8.75 4.20924 8.75 4.375V5H3.125C2.62772 5 2.15081 5.19754 1.79917 5.54917C1.44754 5.90081 1.25 6.37772 1.25 6.875V36.875C1.25 37.3723 1.44754 37.8492 1.79917 38.2008C2.15081 38.5525 2.62772 38.75 3.125 38.75H28.125C28.6223 38.75 29.0992 38.5525 29.4508 38.2008C29.8025 37.8492 30 37.3723 30 36.875V20.7769L38.8075 11.9694C38.9247 11.8522 38.9905 11.6932 38.9905 11.5275C38.9905 11.3618 38.9247 11.2028 38.8075 11.0856ZM20.6875 28.3212L19.8038 27.4375L34.3881 12.8531L35.2719 13.7369L20.6875 28.3212ZM19.0437 28.4463L19.6794 29.0819L18.09 30.0356L19.0437 28.4463ZM28.125 6.25C28.2908 6.25 28.4497 6.31585 28.5669 6.43306C28.6842 6.55027 28.75 6.70924 28.75 6.875V16.7231L27.5 17.9731V8.125C27.5 7.95924 27.4342 7.80027 27.3169 7.68306C27.1997 7.56585 27.0408 7.5 26.875 7.5H22.5V6.25H28.125ZM13.125 2.5H18.125V3.75H13.125V2.5ZM10 5H21.25V8.75H10V5ZM21.875 10C22.0408 10 22.1997 9.93415 22.3169 9.81694C22.4342 9.69973 22.5 9.54076 22.5 9.375V8.75H26.25V19.2231L18.4781 26.995C18.4421 27.0312 18.4106 27.0717 18.3844 27.1156L15.7325 31.535C15.6758 31.6282 15.6446 31.7347 15.6422 31.8437C15.6398 31.9528 15.6661 32.0606 15.7186 32.1562C15.7711 32.2518 15.8478 32.3319 15.9411 32.3884C16.0344 32.445 16.1409 32.4759 16.25 32.4781V32.5H25V31.25H18.4944L21.0094 29.7406C21.0533 29.7144 21.0938 29.6829 21.13 29.6469L26.25 24.5269V35H5V8.75H8.75V9.375C8.75 9.54076 8.81585 9.69973 8.93306 9.81694C9.05027 9.93415 9.20924 10 9.375 10H21.875ZM28.75 36.875C28.75 37.0408 28.6842 37.1997 28.5669 37.3169C28.4497 37.4342 28.2908 37.5 28.125 37.5H3.125C2.95924 37.5 2.80027 37.4342 2.68306 37.3169C2.56585 37.1997 2.5 37.0408 2.5 36.875V6.875C2.5 6.70924 2.56585 6.55027 2.68306 6.43306C2.80027 6.31585 2.95924 6.25 3.125 6.25H8.75V7.5H4.375C4.20924 7.5 4.05027 7.56585 3.93306 7.68306C3.81585 7.80027 3.75 7.95924 3.75 8.125V35.625C3.75 35.7908 3.81585 35.9497 3.93306 36.0669C4.05027 36.1842 4.20924 36.25 4.375 36.25H26.875C27.0408 36.25 27.1997 36.1842 27.3169 36.0669C27.4342 35.9497 27.5 35.7908 27.5 35.625V23.2769L28.75 22.0269V36.875ZM36.1556 12.8531L35.2719 11.9694L36.5975 10.6431L37.4819 11.5275L36.1556 12.8531Z" fill="black"/>
</svg>
