<svg width="100" height="100" viewBox="0 0 100 100" fill="none" xmlns="http://www.w3.org/2000/svg">
<path d="M96.8747 68.75H91.0559L88.2361 65.9302C88.0414 65.7344 87.7757 65.625 87.4997 65.625H80.208V8.33331C80.208 7.75831 79.7413 7.29165 79.1663 7.29165H77.083C76.508 7.29165 76.0413 7.75831 76.0413 8.33331C76.0413 8.90831 76.508 9.37498 77.083 9.37498H78.1247V70.8333H73.958V3.12498C73.958 2.54998 73.4913 2.08331 72.9163 2.08331H20.833C20.258 2.08331 19.7913 2.54998 19.7913 3.12498V9.37498H12.4997C12.2236 9.37498 11.958 9.48435 11.7632 9.68019L8.94343 12.5H3.12467C2.54967 12.5 2.08301 12.9666 2.08301 13.5416V38.5416C2.08301 39.1166 2.54967 39.5833 3.12467 39.5833H4.96217L8.90905 41.5573C9.0528 41.6291 9.21322 41.6666 9.37467 41.6666H16.6663C17.2413 41.6666 17.708 41.2 17.708 40.625C17.708 40.05 17.2413 39.5833 16.6663 39.5833H9.62051L5.67363 37.6094C5.52988 37.5375 5.36947 37.5 5.20801 37.5H4.16634V14.5833H9.37467C9.65072 14.5833 9.91634 14.4739 10.1111 14.2781L12.9309 11.4583H19.7913V14.5833H18.7497C18.1747 14.5833 17.708 15.05 17.708 15.625C17.708 16.2 18.1747 16.6666 18.7497 16.6666H37.4997C38.6486 16.6666 39.583 17.601 39.583 18.75C39.583 19.8989 38.6486 20.8333 37.4997 20.8333H22.9163C22.3413 20.8333 21.8747 21.3 21.8747 21.875C21.8747 22.45 22.3413 22.9166 22.9163 22.9166H37.4997C38.6486 22.9166 39.583 23.851 39.583 25C39.583 26.1489 38.6486 27.0833 37.4997 27.0833H22.9163C22.3413 27.0833 21.8747 27.55 21.8747 28.125C21.8747 28.7 22.3413 29.1666 22.9163 29.1666H37.4997C38.6486 29.1666 39.583 30.101 39.583 31.25C39.583 32.3989 38.6486 33.3333 37.4997 33.3333H22.9163C22.3413 33.3333 21.8747 33.8 21.8747 34.375C21.8747 34.95 22.3413 35.4166 22.9163 35.4166H37.4997C38.6486 35.4166 39.583 36.351 39.583 37.5C39.583 38.6489 38.6486 39.5833 37.4997 39.5833H20.833C20.258 39.5833 19.7913 40.05 19.7913 40.625V71.875C19.7913 71.8979 19.8028 71.9166 19.8038 71.9396C19.8101 72.0343 19.8278 72.125 19.8591 72.2146C19.8705 72.2479 19.8788 72.2802 19.8934 72.3125C19.9434 72.4208 20.007 72.5229 20.0945 72.6104C20.0955 72.6114 20.0955 72.6114 20.0955 72.6125L29.4705 81.9875C29.6705 82.1854 29.9372 82.2916 30.208 82.2916C30.3424 82.2916 30.4778 82.2656 30.607 82.2125C30.9955 82.051 31.2497 81.6708 31.2497 81.25V71.875C31.2497 71.3 30.783 70.8333 30.208 70.8333H21.8747V41.6666H37.4997C39.7976 41.6666 41.6663 39.7979 41.6663 37.5C41.6663 36.25 41.1018 35.1396 40.2268 34.375C41.1018 33.6104 41.6663 32.5 41.6663 31.25C41.6663 30 41.1018 28.8896 40.2268 28.125C41.1018 27.3604 41.6663 26.25 41.6663 25C41.6663 23.75 41.1018 22.6396 40.2268 21.875C41.1018 21.1104 41.6663 20 41.6663 18.75C41.6663 16.4521 39.7976 14.5833 37.4997 14.5833H21.8747V4.16665H71.8747V70.8333H62.4997C60.2018 70.8333 58.333 72.7021 58.333 75C58.333 76.25 58.8976 77.3604 59.7726 78.125C59.1507 78.6677 58.6945 79.3854 58.4809 80.2083H35.4163C34.8413 80.2083 34.3747 80.675 34.3747 81.25C34.3747 81.825 34.8413 82.2916 35.4163 82.2916H58.4809C58.6945 83.1146 59.1507 83.8323 59.7726 84.375C58.8976 85.1396 58.333 86.25 58.333 87.5C58.333 88.75 58.8976 89.8604 59.7726 90.625C58.8976 91.3896 58.333 92.5 58.333 93.75C58.333 96.0479 60.2018 97.9166 62.4997 97.9166H90.6247C90.7861 97.9166 90.9466 97.8791 91.0903 97.8073L95.0372 95.8333H96.8747C97.4497 95.8333 97.9164 95.3666 97.9164 94.7916V69.7916C97.9164 69.2166 97.4497 68.75 96.8747 68.75ZM29.1663 72.9166V78.7354L23.3476 72.9166H29.1663ZM95.833 93.75H94.7914C94.7799 93.75 94.7705 93.7562 94.7601 93.7562C94.6914 93.7583 94.6247 93.7812 94.5559 93.7979C94.4882 93.8146 94.4195 93.8229 94.358 93.8521C94.3476 93.8573 94.3361 93.8552 94.3268 93.8604L90.3788 95.8333H62.4997C61.3507 95.8333 60.4163 94.8989 60.4163 93.75C60.4163 92.601 61.3507 91.6666 62.4997 91.6666H77.083C77.658 91.6666 78.1247 91.2 78.1247 90.625C78.1247 90.05 77.658 89.5833 77.083 89.5833H62.4997C61.3507 89.5833 60.4163 88.6489 60.4163 87.5C60.4163 86.351 61.3507 85.4166 62.4997 85.4166H77.083C77.658 85.4166 78.1247 84.95 78.1247 84.375C78.1247 83.8 77.658 83.3333 77.083 83.3333H62.4997C61.3507 83.3333 60.4163 82.3989 60.4163 81.25C60.4163 80.101 61.3507 79.1666 62.4997 79.1666H77.083C77.658 79.1666 78.1247 78.7 78.1247 78.125C78.1247 77.55 77.658 77.0833 77.083 77.0833H62.4997C61.3507 77.0833 60.4163 76.1489 60.4163 75C60.4163 73.851 61.3507 72.9166 62.4997 72.9166H81.2497C81.8247 72.9166 82.2913 72.45 82.2913 71.875C82.2913 71.3 81.8247 70.8333 81.2497 70.8333H80.208V67.7083H87.0684L89.8882 70.5281C90.083 70.7239 90.3486 70.8333 90.6247 70.8333H95.833V93.75Z" fill="black"/>
<path d="M27.0837 65.625H41.667C42.242 65.625 42.7087 65.1583 42.7087 64.5833C42.7087 64.0083 42.242 63.5416 41.667 63.5416H27.0837C26.5087 63.5416 26.042 64.0083 26.042 64.5833C26.042 65.1583 26.5087 65.625 27.0837 65.625Z" fill="black"/>
<path d="M66.667 65.625C67.242 65.625 67.7087 65.1583 67.7087 64.5833C67.7087 64.0083 67.242 63.5416 66.667 63.5416H52.0837C51.5087 63.5416 51.042 64.0083 51.042 64.5833C51.042 65.1583 51.5087 65.625 52.0837 65.625H66.667Z" fill="black"/>
<path d="M27.0837 60.4167H41.667C42.242 60.4167 42.7087 59.95 42.7087 59.375C42.7087 58.8 42.242 58.3334 41.667 58.3334H27.0837C26.5087 58.3334 26.042 58.8 26.042 59.375C26.042 59.95 26.5087 60.4167 27.0837 60.4167Z" fill="black"/>
<path d="M66.667 58.3334H52.0837C51.5087 58.3334 51.042 58.8 51.042 59.375C51.042 59.95 51.5087 60.4167 52.0837 60.4167H66.667C67.242 60.4167 67.7087 59.95 67.7087 59.375C67.7087 58.8 67.242 58.3334 66.667 58.3334Z" fill="black"/>
<path d="M46.8753 7.29169C44.0034 7.29169 41.667 9.62815 41.667 12.5C41.667 15.3719 44.0034 17.7084 46.8753 17.7084C49.7472 17.7084 52.0837 15.3719 52.0837 12.5C52.0837 9.62815 49.7472 7.29169 46.8753 7.29169ZM46.8753 15.625C45.1524 15.625 43.7503 14.2229 43.7503 12.5C43.7503 10.7771 45.1524 9.37502 46.8753 9.37502C48.5982 9.37502 50.0003 10.7771 50.0003 12.5C50.0003 14.2229 48.5982 15.625 46.8753 15.625Z" fill="black"/>
<path d="M52.0833 23.9583H44.7917C44.2167 23.9583 43.75 24.425 43.75 25C43.75 25.575 44.2167 26.0417 44.7917 26.0417H52.0833C52.6583 26.0417 53.125 25.575 53.125 25C53.125 24.425 52.6583 23.9583 52.0833 23.9583Z" fill="black"/>
<path d="M66.6663 23.9583H56.2497C55.6747 23.9583 55.208 24.425 55.208 25C55.208 25.575 55.6747 26.0417 56.2497 26.0417H66.6663C67.2413 26.0417 67.708 25.575 67.708 25C67.708 24.425 67.2413 23.9583 66.6663 23.9583Z" fill="black"/>
<path d="M43.75 30.2084C43.75 30.7834 44.2167 31.25 44.7917 31.25H57.2917C57.8667 31.25 58.3333 30.7834 58.3333 30.2084C58.3333 29.6334 57.8667 29.1667 57.2917 29.1667H44.7917C44.2167 29.1667 43.75 29.6334 43.75 30.2084Z" fill="black"/>
<path d="M66.667 29.1667H61.4587C60.8837 29.1667 60.417 29.6334 60.417 30.2084C60.417 30.7834 60.8837 31.25 61.4587 31.25H66.667C67.242 31.25 67.7087 30.7834 67.7087 30.2084C67.7087 29.6334 67.242 29.1667 66.667 29.1667Z" fill="black"/>
<path d="M44.7917 36.4583H46.875C47.45 36.4583 47.9167 35.9917 47.9167 35.4167C47.9167 34.8417 47.45 34.375 46.875 34.375H44.7917C44.2167 34.375 43.75 34.8417 43.75 35.4167C43.75 35.9917 44.2167 36.4583 44.7917 36.4583Z" fill="black"/>
<path d="M59.375 34.375H51.0417C50.4667 34.375 50 34.8417 50 35.4167C50 35.9917 50.4667 36.4583 51.0417 36.4583H59.375C59.95 36.4583 60.4167 35.9917 60.4167 35.4167C60.4167 34.8417 59.95 34.375 59.375 34.375Z" fill="black"/>
<path d="M53.1247 44.7916C52.5497 44.7916 52.083 45.2583 52.083 45.8333C52.083 46.4083 52.5497 46.875 53.1247 46.875H55.208C55.783 46.875 56.2497 46.4083 56.2497 45.8333C56.2497 45.2583 55.783 44.7916 55.208 44.7916H53.1247Z" fill="black"/>
<path d="M68.7497 45.8333C68.7497 45.2583 68.283 44.7916 67.708 44.7916H59.3747C58.7997 44.7916 58.333 45.2583 58.333 45.8333C58.333 46.4083 58.7997 46.875 59.3747 46.875H67.708C68.283 46.875 68.7497 46.4083 68.7497 45.8333Z" fill="black"/>
<path d="M66.6667 34.375H63.5417C62.9667 34.375 62.5 34.8417 62.5 35.4167C62.5 35.9917 62.9667 36.4583 63.5417 36.4583H66.6667C67.2417 36.4583 67.7083 35.9917 67.7083 35.4167C67.7083 34.8417 67.2417 34.375 66.6667 34.375Z" fill="black"/>
<path d="M44.7917 41.6667H53.125C53.7 41.6667 54.1667 41.2 54.1667 40.625C54.1667 40.05 53.7 39.5834 53.125 39.5834H44.7917C44.2167 39.5834 43.75 40.05 43.75 40.625C43.75 41.2 44.2167 41.6667 44.7917 41.6667Z" fill="black"/>
<path d="M56.25 40.625C56.25 41.2 56.7167 41.6667 57.2917 41.6667H66.6667C67.2417 41.6667 67.7083 41.2 67.7083 40.625C67.7083 40.05 67.2417 39.5834 66.6667 39.5834H57.2917C56.7167 39.5834 56.25 40.05 56.25 40.625Z" fill="black"/>
<path d="M27.0837 46.875H35.417C35.992 46.875 36.4587 46.4083 36.4587 45.8333C36.4587 45.2583 35.992 44.7916 35.417 44.7916H27.0837C26.5087 44.7916 26.042 45.2583 26.042 45.8333C26.042 46.4083 26.5087 46.875 27.0837 46.875Z" fill="black"/>
<path d="M38.542 45.8333C38.542 46.4083 39.0087 46.875 39.5837 46.875H48.9587C49.5337 46.875 50.0003 46.4083 50.0003 45.8333C50.0003 45.2583 49.5337 44.7916 48.9587 44.7916H39.5837C39.0087 44.7916 38.542 45.2583 38.542 45.8333Z" fill="black"/>
<path d="M51.0417 78.125C51.617 78.125 52.0833 77.6586 52.0833 77.0833C52.0833 76.508 51.617 76.0416 51.0417 76.0416C50.4664 76.0416 50 76.508 50 77.0833C50 77.6586 50.4664 78.125 51.0417 78.125Z" fill="black"/>
<path d="M46.8747 78.125C47.45 78.125 47.9163 77.6586 47.9163 77.0833C47.9163 76.508 47.45 76.0416 46.8747 76.0416C46.2994 76.0416 45.833 76.508 45.833 77.0833C45.833 77.6586 46.2994 78.125 46.8747 78.125Z" fill="black"/>
<path d="M42.7087 78.125C43.284 78.125 43.7503 77.6586 43.7503 77.0833C43.7503 76.508 43.284 76.0416 42.7087 76.0416C42.1334 76.0416 41.667 76.508 41.667 77.0833C41.667 77.6586 42.1334 78.125 42.7087 78.125Z" fill="black"/>
<path d="M3.12467 94.7916H6.24967V96.875C6.24967 97.45 6.71634 97.9166 7.29134 97.9166H13.5413C14.1163 97.9166 14.583 97.45 14.583 96.875V53.125C14.583 52.9843 14.5549 52.8437 14.4986 52.7145L11.3736 45.4229C11.2101 45.0395 10.833 44.7916 10.4163 44.7916C9.99967 44.7916 9.62259 45.0395 9.45905 45.4229L6.33405 52.7145C6.2778 52.8437 6.24967 52.9843 6.24967 53.125V92.7083H4.16634V79.1666C4.16634 78.5916 3.69967 78.125 3.12467 78.125C2.54967 78.125 2.08301 78.5916 2.08301 79.1666V93.75C2.08301 94.325 2.54967 94.7916 3.12467 94.7916ZM8.33301 53.3385L10.4163 48.477L12.4997 53.3385V70.8333H8.33301V53.3385ZM8.33301 72.9166H12.4997V95.8333H8.33301V72.9166Z" fill="#9D9309"/>
<path d="M96.8753 5.20831H93.7503V3.12498C93.7503 2.54998 93.2837 2.08331 92.7087 2.08331H86.4587C85.8837 2.08331 85.417 2.54998 85.417 3.12498V46.875C85.417 47.0156 85.4451 47.1562 85.5014 47.2854L88.6264 54.5771C88.7899 54.9604 89.167 55.2083 89.5837 55.2083C90.0003 55.2083 90.3774 54.9604 90.5409 54.5771L93.6659 47.2854C93.7222 47.1562 93.7503 47.0156 93.7503 46.875V7.29165H95.8337V20.8333C95.8337 21.4083 96.3003 21.875 96.8753 21.875C97.4503 21.875 97.917 21.4083 97.917 20.8333V6.24998C97.917 5.67498 97.4503 5.20831 96.8753 5.20831ZM91.667 46.6614L89.5837 51.5229L87.5003 46.6614V29.1666H91.667V46.6614ZM91.667 27.0833H87.5003V4.16665H91.667V27.0833Z" fill="#9D9309"/>
</svg>
