<svg width="40" height="40" viewBox="0 0 40 40" fill="none" xmlns="http://www.w3.org/2000/svg">
<path d="M4.375 38.75H13.125C13.8451 38.7491 14.5428 38.4999 15.1006 38.0445C15.6584 37.5891 16.0421 36.9553 16.1871 36.25H38.125V35H36.25V8.75C36.25 8.58424 36.1841 8.42528 36.0669 8.30807C35.9497 8.19086 35.7908 8.12501 35.625 8.125H30.625C30.4592 8.12501 30.3003 8.19086 30.1831 8.30807C30.0659 8.42528 30 8.58424 30 8.75V14.375H25.625C25.4592 14.375 25.3003 14.4409 25.1831 14.5581C25.0659 14.6753 25 14.8342 25 15V20.625H20.625C20.4592 20.625 20.3003 20.6909 20.1831 20.8081C20.0659 20.9253 20 21.0842 20 21.25V26.875H16.25V22.5C16.2497 21.9704 16.1148 21.4496 15.8579 20.9864C15.6011 20.5233 15.2308 20.133 14.7818 19.8522L17.1339 17.5H19.375C19.5408 17.5 19.6997 17.4341 19.8169 17.3169C19.9341 17.1997 20 17.0408 20 16.875V14.6339L23.3839 11.25H25.625C25.7908 11.25 25.9497 11.1841 26.0669 11.0669C26.1841 10.9497 26.25 10.7908 26.25 10.625V8.38394L29.6339 5H31.875C32.0408 4.99999 32.1997 4.93414 32.3169 4.81693C32.4341 4.69972 32.5 4.54076 32.5 4.375V3.75H36.25V2.5H32.5V1.875C32.5 1.70924 32.4341 1.55028 32.3169 1.43307C32.1997 1.31586 32.0408 1.25001 31.875 1.25H29.375C29.2092 1.25001 29.0503 1.31586 28.9331 1.43307C28.8159 1.55028 28.75 1.70924 28.75 1.875V4.11606L25.3661 7.5H23.125C22.9592 7.50001 22.8003 7.56586 22.6831 7.68307C22.5659 7.80028 22.5 7.95924 22.5 8.125V10.3661L19.1161 13.75H16.875C16.7092 13.75 16.5503 13.8159 16.4331 13.9331C16.3159 14.0503 16.25 14.2092 16.25 14.375V16.6161L13.4714 19.3946C13.3564 19.3817 13.2407 19.3752 13.125 19.375H4.375C3.54649 19.3759 2.75218 19.7055 2.16634 20.2913C1.58049 20.8772 1.25095 21.6715 1.25 22.5V35.625C1.25095 36.4535 1.58049 37.2478 2.16634 37.8337C2.75218 38.4195 3.54649 38.7491 4.375 38.75ZM31.25 9.375H35V35H31.25V9.375ZM26.25 15.625H30V35H26.25V15.625ZM25 21.875V35H21.25V21.875H25ZM20 28.125V35H16.25V28.125H20ZM30 2.5H31.25V3.75H30V2.5ZM23.75 8.75H25V10H23.75V8.75ZM17.5 15H18.75V16.25H17.5V15ZM2.5 22.5C2.50057 22.0029 2.6983 21.5263 3.0498 21.1748C3.40131 20.8233 3.87789 20.6256 4.375 20.625H13.125C13.6221 20.6256 14.0987 20.8233 14.4502 21.1748C14.8017 21.5263 14.9994 22.0029 15 22.5V35.625C14.9994 36.1221 14.8017 36.5987 14.4502 36.9502C14.0987 37.3017 13.6221 37.4994 13.125 37.5H4.375C3.87789 37.4994 3.40131 37.3017 3.0498 36.9502C2.6983 36.5987 2.50057 36.1221 2.5 35.625V22.5Z" fill="black"/>
<path d="M4.375 26.25H13.125C13.2908 26.25 13.4497 26.1841 13.5669 26.0669C13.6841 25.9497 13.75 25.7908 13.75 25.625V22.5C13.75 22.3342 13.6841 22.1753 13.5669 22.0581C13.4497 21.9409 13.2908 21.875 13.125 21.875H4.375C4.20924 21.875 4.05028 21.9409 3.93307 22.0581C3.81586 22.1753 3.75001 22.3342 3.75 22.5V25.625C3.75001 25.7908 3.81586 25.9497 3.93307 26.0669C4.05028 26.1841 4.20924 26.25 4.375 26.25ZM5 23.125H12.5V25H5V23.125Z" fill="#9D9309"/>
<path d="M12.5 27.5H5C4.83424 27.5 4.67528 27.5659 4.55807 27.6831C4.44086 27.8003 4.37501 27.9592 4.375 28.125V35.625C4.37501 35.7908 4.44086 35.9497 4.55807 36.0669C4.67528 36.1841 4.83424 36.25 5 36.25H12.5C12.6658 36.25 12.8247 36.1841 12.9419 36.0669C13.0591 35.9497 13.125 35.7908 13.125 35.625V28.125C13.125 27.9592 13.0591 27.8003 12.9419 27.6831C12.8247 27.5659 12.6658 27.5 12.5 27.5ZM5.625 28.75H8.125V31.25H5.625V28.75ZM5.625 32.5H8.125V35H5.625V32.5ZM11.875 35H9.375V28.75H11.875V35Z" fill="#9D9309"/>
<path d="M26.875 37.5H29.375V38.75H26.875V37.5Z" fill="black"/>
<path d="M21.875 37.5H24.375V38.75H21.875V37.5Z" fill="black"/>
<path d="M16.875 37.5H19.375V38.75H16.875V37.5Z" fill="black"/>
<path d="M31.875 37.5H34.375V38.75H31.875V37.5Z" fill="black"/>
<path d="M37.5 2.5H38.75V3.75H37.5V2.5Z" fill="black"/>
</svg>
