<svg width="40" height="40" viewBox="0 0 40 40" fill="none" xmlns="http://www.w3.org/2000/svg">
<path d="M36.8749 1.25H31.8749C31.4885 1.2516 31.112 1.37255 30.797 1.5963C30.4819 1.82006 30.2437 2.13568 30.1149 2.5H28.7499C28.6332 2.49936 28.5187 2.5314 28.4193 2.59248C28.3199 2.65356 28.2395 2.74125 28.1874 2.84562L27.5624 4.09562C27.5202 4.18266 27.4988 4.27829 27.4999 4.375V11.875H26.2499V13.125H27.4999V20.625H24.9999V20H23.7499V20.625H21.8749V21.875H23.7499V24.375H21.2499V21.875H19.9999V24.375H17.4999V22.5H16.2499V24.375H13.7499V21.25H12.4999V24.375H9.99989V21.25C9.99989 21.0842 9.93405 20.9253 9.81684 20.8081C9.69963 20.6908 9.54065 20.625 9.37489 20.625H4.07427L2.63177 13.125H4.99989V11.875H1.87489C1.78287 11.875 1.69198 11.8954 1.60873 11.9346C1.52547 11.9738 1.4519 12.0309 1.39327 12.1018C1.33464 12.1727 1.2924 12.2557 1.26956 12.3449C1.24672 12.434 1.24384 12.5271 1.26114 12.6175L4.38614 28.8675C4.41347 29.0103 4.4897 29.139 4.60172 29.2317C4.71374 29.3243 4.85454 29.375 4.99989 29.375H27.4999V30.625H4.37489C3.87761 30.625 3.4007 30.8225 3.04907 31.1742C2.69744 31.5258 2.49989 32.0027 2.49989 32.5C2.49989 32.9973 2.69744 33.4742 3.04907 33.8258C3.4007 34.1775 3.87761 34.375 4.37489 34.375H5.23864C4.85323 34.7086 4.57902 35.1521 4.45277 35.646C4.32653 36.1399 4.35428 36.6606 4.53231 37.1383C4.71034 37.6159 5.03014 38.0278 5.44884 38.3185C5.86754 38.6093 6.36513 38.7652 6.87489 38.7652C7.38466 38.7652 7.88225 38.6093 8.30095 38.3185C8.71964 38.0278 9.03945 37.6159 9.21748 37.1383C9.39551 36.6606 9.42326 36.1399 9.29702 35.646C9.17077 35.1521 8.89656 34.7086 8.51114 34.375H22.1136C21.7282 34.7086 21.454 35.1521 21.3278 35.646C21.2015 36.1399 21.2293 36.6606 21.4073 37.1383C21.5853 37.6159 21.9051 38.0278 22.3238 38.3185C22.7425 38.6093 23.2401 38.7652 23.7499 38.7652C24.2597 38.7652 24.7572 38.6093 25.1759 38.3185C25.5946 38.0278 25.9144 37.6159 26.0925 37.1383C26.2705 36.6606 26.2983 36.1399 26.172 35.646C26.0458 35.1521 25.7716 34.7086 25.3861 34.375H28.1249V33.125H4.37489C4.20913 33.125 4.05016 33.0591 3.93295 32.9419C3.81574 32.8247 3.74989 32.6658 3.74989 32.5C3.74989 32.3342 3.81574 32.1753 3.93295 32.0581C4.05016 31.9408 4.20913 31.875 4.37489 31.875H28.1249C28.2907 31.875 28.4496 31.8091 28.5668 31.6919C28.684 31.5747 28.7499 31.4158 28.7499 31.25V4.5225L29.1361 3.75H30.1149C30.2437 4.11432 30.4819 4.42994 30.797 4.65369C31.112 4.87745 31.4885 4.9984 31.8749 5H36.8749C37.3722 5 37.8491 4.80246 38.2007 4.45082C38.5523 4.09919 38.7499 3.62228 38.7499 3.125C38.7499 2.62772 38.5523 2.15081 38.2007 1.79917C37.8491 1.44754 37.3722 1.25 36.8749 1.25ZM6.87489 37.5C6.62767 37.5 6.38599 37.4267 6.18043 37.2893C5.97487 37.152 5.81465 36.9568 5.72004 36.7284C5.62543 36.4999 5.60068 36.2486 5.64891 36.0061C5.69714 35.7637 5.8162 35.5409 5.99101 35.3661C6.16583 35.1913 6.38856 35.0722 6.63103 35.024C6.87351 34.9758 7.12484 35.0005 7.35325 35.0951C7.58166 35.1898 7.77688 35.35 7.91423 35.5555C8.05158 35.7611 8.12489 36.0028 8.12489 36.25C8.12489 36.5815 7.9932 36.8995 7.75878 37.1339C7.52436 37.3683 7.20641 37.5 6.87489 37.5ZM23.7499 37.5C23.5027 37.5 23.261 37.4267 23.0554 37.2893C22.8499 37.152 22.6897 36.9568 22.595 36.7284C22.5004 36.4999 22.4757 36.2486 22.5239 36.0061C22.5721 35.7637 22.6912 35.5409 22.866 35.3661C23.0408 35.1913 23.2636 35.0722 23.506 35.024C23.7485 34.9758 23.9998 35.0005 24.2282 35.0951C24.4567 35.1898 24.6519 35.35 24.7892 35.5555C24.9266 35.7611 24.9999 36.0028 24.9999 36.25C24.9999 36.5815 24.8682 36.8995 24.6338 37.1339C24.3994 37.3683 24.0814 37.5 23.7499 37.5ZM24.9999 21.875H27.4999V24.375H24.9999V21.875ZM23.7499 25.625V28.125H21.2499V25.625H23.7499ZM19.9999 25.625V28.125H17.4999V25.625H19.9999ZM16.2499 25.625V28.125H13.7499V25.625H16.2499ZM12.4999 25.625V28.125H9.99989V25.625H12.4999ZM8.74989 21.875V24.375H4.79489L4.31239 21.875H8.74989ZM5.03552 25.625H8.74989V28.125H5.51614L5.03552 25.625ZM24.9999 28.125V25.625H27.4999V28.125H24.9999ZM36.8749 3.75H31.8749C31.7091 3.75 31.5502 3.68415 31.4329 3.56694C31.3157 3.44973 31.2499 3.29076 31.2499 3.125C31.2499 2.95924 31.3157 2.80027 31.4329 2.68306C31.5502 2.56585 31.7091 2.5 31.8749 2.5H36.8749C37.0407 2.5 37.1996 2.56585 37.3168 2.68306C37.434 2.80027 37.4999 2.95924 37.4999 3.125C37.4999 3.29076 37.434 3.44973 37.3168 3.56694C37.1996 3.68415 37.0407 3.75 36.8749 3.75Z" fill="black"/>
<path d="M18.3076 7.68323L12.0576 13.9332L12.9415 14.8171L19.1914 8.56711L18.3076 7.68323Z" fill="black"/>
<path d="M16.25 13.75C16.25 14.1208 16.36 14.4834 16.566 14.7917C16.772 15.1 17.0649 15.3404 17.4075 15.4823C17.7501 15.6242 18.1271 15.6613 18.4908 15.589C18.8545 15.5166 19.1886 15.338 19.4508 15.0758C19.7131 14.8136 19.8916 14.4795 19.964 14.1158C20.0363 13.7521 19.9992 13.3751 19.8573 13.0325C19.7154 12.6899 19.475 12.397 19.1667 12.191C18.8584 11.985 18.4958 11.875 18.125 11.875C17.6277 11.875 17.1508 12.0725 16.7992 12.4242C16.4475 12.7758 16.25 13.2527 16.25 13.75ZM18.75 13.75C18.75 13.8736 18.7134 13.9945 18.6447 14.0972C18.576 14.2 18.4784 14.2801 18.3642 14.3274C18.25 14.3747 18.1243 14.3871 18.0031 14.363C17.8818 14.3389 17.7705 14.2794 17.6831 14.1919C17.5957 14.1045 17.5361 13.9932 17.512 13.8719C17.4879 13.7507 17.5003 13.625 17.5476 13.5108C17.5949 13.3966 17.675 13.299 17.7778 13.2303C17.8806 13.1617 18.0014 13.125 18.125 13.125C18.2908 13.125 18.4497 13.1908 18.5669 13.3081C18.6842 13.4253 18.75 13.5842 18.75 13.75Z" fill="black"/>
<path d="M13.125 10.625C13.4958 10.625 13.8583 10.515 14.1667 10.309C14.475 10.103 14.7154 9.81014 14.8573 9.46753C14.9992 9.12492 15.0363 8.74792 14.964 8.38421C14.8916 8.02049 14.713 7.6864 14.4508 7.42418C14.1886 7.16195 13.8545 6.98338 13.4908 6.91103C13.1271 6.83868 12.7501 6.87581 12.4075 7.01773C12.0649 7.15964 11.772 7.39996 11.566 7.70831C11.36 8.01665 11.25 8.37916 11.25 8.75C11.25 9.24728 11.4475 9.7242 11.7992 10.0758C12.1508 10.4275 12.6277 10.625 13.125 10.625ZM13.125 8.125C13.2486 8.125 13.3694 8.16166 13.4722 8.23033C13.575 8.29901 13.6551 8.39662 13.7024 8.51082C13.7497 8.62503 13.7621 8.75069 13.738 8.87193C13.7139 8.99317 13.6543 9.10453 13.5669 9.19194C13.4795 9.27935 13.3682 9.33888 13.2469 9.36299C13.1257 9.38711 13 9.37473 12.8858 9.32743C12.7716 9.28012 12.674 9.20001 12.6053 9.09723C12.5367 8.99445 12.5 8.87361 12.5 8.75C12.5 8.58424 12.5658 8.42527 12.6831 8.30806C12.8003 8.19085 12.9592 8.125 13.125 8.125Z" fill="black"/>
<path d="M5.90896 11.7738L8.17146 13.2481L6.94833 15.6556C6.90112 15.7485 6.87785 15.8516 6.88063 15.9557C6.88341 16.0598 6.91216 16.1615 6.96425 16.2517C7.01635 16.3418 7.09015 16.4176 7.17894 16.472C7.26774 16.5263 7.36872 16.5577 7.47271 16.5631L10.1696 16.7056L10.3115 19.4025C10.3169 19.5065 10.3482 19.6075 10.4026 19.6963C10.457 19.7851 10.5327 19.8589 10.6229 19.911C10.7131 19.9631 10.8148 19.9918 10.9189 19.9946C11.023 19.9974 11.1261 19.9741 11.219 19.9269L13.6252 18.7038L15.0996 20.9663C15.1564 21.0534 15.234 21.1251 15.3254 21.1747C15.4169 21.2242 15.5193 21.2502 15.6233 21.2502C15.7274 21.2502 15.8298 21.2242 15.9212 21.1747C16.0127 21.1251 16.0903 21.0534 16.1471 20.9663L17.6215 18.7038L20.029 19.9269C20.1218 19.9741 20.2249 19.9974 20.329 19.9946C20.4331 19.9918 20.5348 19.9631 20.625 19.911C20.7152 19.8589 20.7909 19.7851 20.8453 19.6963C20.8997 19.6075 20.931 19.5065 20.9365 19.4025L21.079 16.7056L23.7758 16.5638C23.8798 16.5583 23.9808 16.527 24.0696 16.4726C24.1584 16.4182 24.2322 16.3425 24.2843 16.2523C24.3364 16.1621 24.3651 16.0604 24.3679 15.9563C24.3707 15.8522 24.3474 15.7491 24.3002 15.6563L23.079 13.25L25.3415 11.7756C25.4286 11.7189 25.5003 11.6412 25.5499 11.5498C25.5994 11.4583 25.6254 11.3559 25.6254 11.2519C25.6254 11.1479 25.5994 11.0455 25.5499 10.954C25.5003 10.8625 25.4286 10.7849 25.3415 10.7281L23.079 9.25001L24.3021 6.84251C24.3487 6.74979 24.3716 6.64691 24.3685 6.54316C24.3654 6.43941 24.3366 6.33806 24.2846 6.24825C24.2325 6.15844 24.1589 6.08301 24.0704 6.02876C23.982 5.97451 23.8813 5.94315 23.7777 5.93751L21.0808 5.79501L20.9377 3.09751C20.9323 2.99352 20.9009 2.89255 20.8465 2.80375C20.7921 2.71495 20.7164 2.64116 20.6263 2.58906C20.5361 2.53696 20.4343 2.50822 20.3303 2.50544C20.2262 2.50266 20.123 2.52593 20.0302 2.57314L17.6252 3.79626L16.1508 1.53376C16.0905 1.45148 16.0117 1.38457 15.9207 1.33844C15.8297 1.29232 15.7291 1.26828 15.6271 1.26828C15.5251 1.26828 15.4245 1.29232 15.3335 1.33844C15.2425 1.38457 15.1636 1.45148 15.1033 1.53376L13.6252 3.79626L11.2196 2.57314C11.1268 2.52593 11.0236 2.50266 10.9195 2.50544C10.8154 2.50822 10.7137 2.53696 10.6235 2.58906C10.5334 2.64116 10.4577 2.71495 10.4033 2.80375C10.3489 2.89255 10.3175 2.99352 10.3121 3.09751L10.1696 5.79439L7.47271 5.93751C7.36872 5.94296 7.26774 5.9743 7.17894 6.0287C7.09015 6.08309 7.01635 6.1588 6.96425 6.24896C6.91216 6.33912 6.88341 6.44087 6.88063 6.54497C6.87785 6.64906 6.90112 6.7522 6.94833 6.84501L8.17146 9.25001L5.90896 10.7244C5.82177 10.7812 5.75014 10.8588 5.70056 10.9503C5.65097 11.0417 5.625 11.1441 5.625 11.2481C5.625 11.3522 5.65097 11.4546 5.70056 11.546C5.75014 11.6375 5.82177 11.7151 5.90896 11.7719V11.7738ZM9.32396 9.99251C9.45319 9.90839 9.54676 9.77946 9.58668 9.63051C9.6266 9.48156 9.61005 9.32312 9.54021 9.18564L8.50021 7.13439L10.7983 7.01314C10.9527 7.00515 11.0987 6.94023 11.208 6.83091C11.3173 6.7216 11.3822 6.57565 11.3902 6.42126L11.5096 4.12501L13.5627 5.16501C13.7002 5.23485 13.8586 5.25141 14.0076 5.21149C14.1565 5.17157 14.2855 5.078 14.3696 4.94876L15.6252 3.01939L16.8827 4.94876C16.9668 5.078 17.0958 5.17157 17.2447 5.21149C17.3937 5.25141 17.5521 5.23485 17.6896 5.16501L19.7408 4.12501L19.8621 6.42314C19.8701 6.57753 19.935 6.72347 20.0443 6.83279C20.1536 6.9421 20.2996 7.00702 20.454 7.01501L22.7521 7.13626L21.7102 9.18751C21.6404 9.32499 21.6238 9.48344 21.6637 9.63238C21.7036 9.78133 21.7972 9.91026 21.9265 9.99439L23.8558 11.25L21.9265 12.5075C21.7972 12.5916 21.7036 12.7206 21.6637 12.8695C21.6238 13.0185 21.6404 13.1769 21.7102 13.3144L22.7502 15.3656L20.4521 15.4869C20.2977 15.4949 20.1517 15.5598 20.0424 15.6691C19.9331 15.7784 19.8682 15.9244 19.8602 16.0788L19.7408 18.375L17.6877 17.335C17.5502 17.2652 17.3918 17.2486 17.2428 17.2885C17.0939 17.3285 16.965 17.422 16.8808 17.5513L15.6252 19.4806L14.3677 17.5513C14.2836 17.422 14.1546 17.3285 14.0057 17.2885C13.8568 17.2486 13.6983 17.2652 13.5608 17.335L11.5096 18.375L11.3883 16.0769C11.3803 15.9225 11.3154 15.7766 11.2061 15.6672C11.0968 15.5579 10.9508 15.493 10.7965 15.485L8.50021 15.3656L9.54021 13.3125C9.61005 13.175 9.6266 13.0166 9.58668 12.8676C9.54676 12.7187 9.45319 12.5898 9.32396 12.5056L7.39458 11.25L9.32396 9.99251Z" fill="#9D9309"/>
</svg>
