<svg width="40" height="40" viewBox="0 0 40 40" fill="none" xmlns="http://www.w3.org/2000/svg">
<path d="M7.09668 20.6452H25.1612V21.9355H7.09668V20.6452Z" fill="black"/>
<path d="M7.09668 23.2258H25.1612V24.5161H7.09668V23.2258Z" fill="black"/>
<path d="M7.09668 25.8064H25.1612V27.0968H7.09668V25.8064Z" fill="black"/>
<path d="M7.09668 28.3871H25.1612V29.6774H7.09668V28.3871Z" fill="black"/>
<path d="M7.09668 30.9677H18.7096V32.2581H7.09668V30.9677Z" fill="black"/>
<path d="M7.09668 33.5484H18.7096V34.8387H7.09668V33.5484Z" fill="black"/>
<path d="M7.09668 36.129H8.387V37.4193H7.09668V36.129Z" fill="black"/>
<path d="M9.67773 36.129H10.9681V37.4193H9.67773V36.129Z" fill="black"/>
<path d="M12.2578 36.129H13.5481V37.4193H12.2578V36.129Z" fill="black"/>
<path d="M14.8389 36.129H16.1292V37.4193H14.8389V36.129Z" fill="black"/>
<path d="M34.8392 0H7.74241C7.38644 0 7.09725 0.288243 7.09725 0.645161V2.58065H5.16176C4.80579 2.58065 4.5166 2.86889 4.5166 3.22581V39.3548C4.5166 39.7118 4.80579 40 5.16176 40H32.2585C32.6145 40 32.9037 39.7118 32.9037 39.3548V37.4194H34.8392C35.1952 37.4194 35.4843 37.1311 35.4843 36.7742V0.645161C35.4843 0.288243 35.1952 0 34.8392 0ZM31.6134 38.7097H5.80692V3.87097H26.4521V8.3871C26.4521 8.74401 26.7413 9.03226 27.0972 9.03226H31.6134V38.7097ZM30.7011 7.74194H27.7424V4.78327L30.7011 7.74194ZM34.194 36.129H32.9037V8.3871C32.9037 8.20848 32.8316 8.04719 32.7141 7.93032L27.554 2.77029C27.4372 2.65278 27.2759 2.58065 27.0972 2.58065H8.38757V1.29032H34.194V36.129Z" fill="black"/>
<path d="M11.7328 17.5554L12.6149 17.9968C12.705 18.0418 12.8045 18.0645 12.9031 18.0645C13.0017 18.0645 13.1013 18.0418 13.1914 17.9968L14.0734 17.5554C16.9335 16.1259 18.7096 13.2516 18.7096 10.0542V5.80645C18.7096 5.44954 18.4204 5.16129 18.0644 5.16129H7.74184C7.38587 5.16129 7.09668 5.44954 7.09668 5.80645V10.0542C7.09668 13.2516 8.87276 16.1259 11.7328 17.5554ZM8.387 6.45162H17.4193V10.0542C17.4193 12.7593 15.916 15.1915 13.496 16.4012L12.9031 16.698L12.3103 16.4012C9.89028 15.1915 8.387 12.7593 8.387 10.0542V6.45162Z" fill="black"/>
<path d="M16.1293 13.5484V10.9677C16.1293 10.6108 15.8402 10.3226 15.4842 10.3226H14.839V9.67742C14.839 8.61045 13.9705 7.74194 12.9035 7.74194C11.8366 7.74194 10.9681 8.61045 10.9681 9.67742V10.3226H10.3229C9.96692 10.3226 9.67773 10.6108 9.67773 10.9677V13.5484C9.67773 13.9053 9.96692 14.1935 10.3229 14.1935H15.4842C15.8402 14.1935 16.1293 13.9053 16.1293 13.5484ZM12.2584 9.67742C12.2584 9.32145 12.5482 9.03226 12.9035 9.03226C13.2589 9.03226 13.5487 9.32145 13.5487 9.67742V10.3226H12.2584V9.67742ZM14.839 12.9032H10.9681V11.6129H14.839V12.9032Z" fill="#9D9309"/>
</svg>
