<svg width="40" height="40" viewBox="0 0 40 40" fill="none" xmlns="http://www.w3.org/2000/svg">
<path d="M14.626 27.6741H11.6797C11.3561 27.6741 11.0938 27.9364 11.0938 28.2601C11.0938 28.5838 11.356 28.846 11.6797 28.846H14.626C14.9496 28.846 15.212 28.5838 15.212 28.2601C15.212 27.9364 14.9496 27.6741 14.626 27.6741Z" fill="#9D9309"/>
<path d="M38.4264 28.5654L36.2769 26.4157C36.048 26.1868 35.6771 26.1869 35.4482 26.4156C35.2194 26.6445 35.2194 27.0155 35.4482 27.2443L37.4597 29.2559L36.9398 29.7759L28.0711 20.9072L28.5911 20.3873L33.6514 25.4475C33.8802 25.6763 34.2512 25.6763 34.48 25.4475C34.7088 25.2186 34.7088 24.8477 34.48 24.6188L29.4146 19.5535C29.5506 19.382 29.6249 19.1712 29.6249 18.9485C29.6249 18.6873 29.5235 18.4421 29.3393 18.258L28.5528 17.4715L28.8257 17.1987C29.0097 17.0145 29.1111 16.7693 29.1111 16.5081C29.1111 16.247 29.0097 16.0017 28.8256 15.8176L27.3229 14.315C27.2874 14.2795 27.2489 14.248 27.2092 14.2188L27.5974 6.32516C27.6103 6.06336 27.5148 5.80523 27.3354 5.6168C27.156 5.42836 26.9027 5.32023 26.6407 5.32023H24.6974C24.4354 5.32023 24.1821 5.42836 24.0027 5.6168C23.8233 5.80523 23.7278 6.06344 23.7407 6.32508L23.8567 8.68344L23.3083 6.58344C23.1982 6.16164 22.8181 5.86703 22.3839 5.86703C22.286 5.86703 22.1886 5.88195 22.0943 5.91164L20.2404 6.49445C19.9904 6.57305 19.7813 6.75203 19.6666 6.98555C19.552 7.21914 19.5382 7.49414 19.629 7.73992L20.6043 10.3814L18.7875 8.37672C18.6056 8.17602 18.347 8.06078 18.0779 8.06078C17.9368 8.06078 17.8006 8.09242 17.6758 8.15055C17.0382 7.36047 16.2968 6.64078 15.4561 6.01273L16.052 4.98055C16.2138 4.70031 16.1178 4.34195 15.8375 4.18016C15.5573 4.01844 15.1989 4.1143 15.0371 4.39461L14.4314 5.44383C14.14 5.94883 14.2729 6.59234 14.7405 6.94102C15.5256 7.52555 16.2154 8.1982 16.8049 8.9382L16.0264 9.7168C15.8411 9.90203 15.7384 10.1576 15.7448 10.4177C15.7512 10.6778 15.8663 10.9279 16.0604 11.1038L17.9856 12.8484L15.4549 11.9141C15.3471 11.8743 15.2348 11.8541 15.1209 11.8541C14.702 11.8541 14.3357 12.1238 14.2094 12.5254L13.6266 14.3793C13.548 14.6292 13.5752 14.9032 13.7011 15.1309C13.8271 15.3585 14.0447 15.527 14.2983 15.5934L16.5522 16.1819L14.0087 16.0567C13.4593 16.0319 13.0039 16.4694 13.0039 17.0134L13.0039 18.9569C13.0039 19.485 13.4332 19.9147 13.9607 19.9147C13.9768 19.9147 13.9928 19.9143 14.0088 19.9135L18.4439 19.6955C18.2902 20.0953 18.1131 20.4859 17.9146 20.8655H8.38957C7.57332 19.3052 7.12629 17.5545 7.12629 15.7699C7.12629 12.2593 8.74402 9.04125 11.5648 6.9407C12.0323 6.59227 12.1651 5.94867 11.8736 5.44352L9.40746 1.17188H16.8979L16.3003 2.20703C16.1385 2.48727 16.2345 2.84562 16.5147 3.00742C16.7949 3.16898 17.1532 3.0732 17.3151 2.79297L17.9319 1.72477C18.1367 1.37008 18.1367 0.929375 17.932 0.575078C17.7274 0.220313 17.3457 0 16.9361 0H9.36926C8.95973 0 8.57816 0.220313 8.37348 0.574922C8.16871 0.929453 8.16871 1.37008 8.37348 1.72477L10.849 6.01266C7.73801 8.33664 5.95441 11.8918 5.95441 15.77C5.95441 18.476 6.8834 21.1114 8.52004 23.2304H2.26465C1.72621 23.2304 1.28809 23.6684 1.28809 24.207V25.9755C1.28809 26.5141 1.72621 26.9521 2.26465 26.9521H3.39262V30.7698V32.0837V39.0234C3.39262 39.562 3.83074 40 4.36918 40H5.94191C6.48043 40 6.91848 39.562 6.91848 39.0234V33.0602H19.3869V39.0234C19.3869 39.562 19.825 40 20.3635 40H21.9362C22.4747 40 22.9128 39.562 22.9128 39.0234V32.0837V30.7698V26.9521H24.0407C24.5793 26.9521 25.0173 26.5141 25.0173 25.9755V24.207C25.0173 23.6684 24.5793 23.2304 24.0407 23.2304H17.785C18.6222 22.1466 19.2741 20.9277 19.7113 19.6332L21.9029 19.5255C21.9321 19.5652 21.9636 19.6035 21.999 19.639L23.5015 21.1416C23.6857 21.3258 23.931 21.4273 24.1921 21.4273C24.4533 21.4273 24.6986 21.3258 24.8827 21.1417L25.1555 20.869L25.9421 21.6555C26.1262 21.8396 26.3714 21.9409 26.6325 21.9409C26.8552 21.9409 27.0659 21.8666 27.2375 21.7308L36.2493 30.7425C36.4397 30.933 36.6897 31.0281 36.9399 31.0281C37.19 31.0281 37.44 30.9329 37.6304 30.7426L38.4265 29.9465C38.6107 29.7623 38.7122 29.5171 38.7122 29.2559C38.712 28.9948 38.6106 28.7495 38.4264 28.5654ZM17.2071 22.0373C16.9181 22.4555 16.6002 22.8544 16.255 23.2304H10.0489C9.70387 22.8545 9.38645 22.4554 9.09754 22.0373H17.2071ZM5.7466 38.8281H4.56449V33.0602H5.7466V38.8281ZM21.7408 38.8281H20.5587V33.0602H21.7408V38.8281ZM23.8454 24.4022V25.7802H10.3156C9.99199 25.7802 9.72965 26.0425 9.72965 26.3661C9.72965 26.6898 9.99199 26.952 10.3156 26.952H21.7409V31.8884H4.56449V26.952H7.26871C7.5923 26.952 7.85465 26.6898 7.85465 26.3661C7.85465 26.0425 7.5923 25.7802 7.26871 25.7802H2.45996V24.4022H23.8454ZM26.4159 6.49203L26.0358 14.2211L25.3368 14.9202L24.9222 6.49203H26.4159ZM22.2313 7.09687L24.1378 14.398L24.2185 16.0384L24.0168 16.2401L20.8064 7.54492L22.2313 7.09687ZM17.0141 10.3863L18.0704 9.33008L21.6919 13.3263L22.4129 15.2789L17.0141 10.3863ZM14.8121 14.5163L15.26 13.0912L20.3118 14.9564L21.8554 16.3554L14.8121 14.5163ZM21.905 18.3521L14.176 18.7321L14.1759 17.2382L22.0888 17.6274L22.5176 17.7395L21.905 18.3521ZM24.192 20.1749L22.9657 18.9485L26.6324 15.2817L27.8588 16.5081L24.192 20.1749ZM26.6324 20.6888L25.9839 20.0403L27.7241 18.3002L28.3725 18.9486L26.6324 20.6888Z" fill="black"/>
<path d="M8.02648 4.1418C7.23992 3.89665 7.17859 3.83524 6.93359 3.04766C6.83188 2.72001 6.53305 2.49977 6.19008 2.49977C5.84711 2.49977 5.54836 2.71993 5.44664 3.04735C5.20164 3.83524 5.14039 3.89657 4.35398 4.14172C4.02664 4.24368 3.80664 4.54243 3.80664 4.88524C3.80664 5.22821 4.02656 5.52704 4.35367 5.62891C5.14031 5.87422 5.20164 5.93555 5.44656 6.72336C5.54844 7.05071 5.84711 7.27063 6.19 7.27063C6.53289 7.27063 6.83164 7.05071 6.93344 6.72336C7.17852 5.93555 7.23984 5.87415 8.02656 5.62891C8.35367 5.52688 8.57344 5.22797 8.57344 4.88524C8.57344 4.54258 8.35367 4.24383 8.02648 4.1418ZM6.19008 5.47493C6.03648 5.22383 5.85164 5.03907 5.60055 4.88532C5.85164 4.73165 6.03648 4.5468 6.19008 4.29563C6.34367 4.5468 6.52852 4.73165 6.77953 4.88532C6.52844 5.03899 6.34359 5.22383 6.19008 5.47493Z" fill="#9D9309"/>
<path d="M5.31731 9.3975C4.68887 9.20157 4.65684 9.16954 4.46106 8.54024C4.3634 8.22555 4.07645 8.01414 3.74699 8.01414C3.41777 8.01414 3.13082 8.22547 3.03301 8.53993C2.83723 9.16954 2.80527 9.20157 2.17652 9.39758C1.86238 9.49563 1.65137 9.78258 1.65137 10.1116C1.65137 10.4406 1.86238 10.7276 2.17676 10.8256C2.80527 11.0216 2.83723 11.0536 3.03309 11.6834C3.13098 11.9976 3.41785 12.2088 3.74699 12.2088C4.07637 12.2088 4.36332 11.9976 4.46098 11.6833C4.65684 11.0535 4.68887 11.0215 5.3177 10.8256C5.63168 10.7274 5.84262 10.4406 5.84262 10.1116C5.84262 9.78266 5.63168 9.49579 5.31731 9.3975ZM3.74707 10.4399C3.65356 10.312 3.54668 10.2051 3.41879 10.1116C3.54668 10.018 3.65356 9.91102 3.74707 9.78329C3.84059 9.91118 3.94746 10.0181 4.07535 10.1116C3.94754 10.2051 3.84067 10.312 3.74707 10.4399Z" fill="#9D9309"/>
<path d="M22.8143 0.31015C22.7049 0.200775 22.5541 0.138275 22.4002 0.138275C22.2455 0.138275 22.0947 0.200775 21.9854 0.31015C21.8768 0.418744 21.8135 0.570306 21.8135 0.724213C21.8135 0.878978 21.8768 1.02968 21.9854 1.13828C22.0948 1.24765 22.2455 1.31015 22.4002 1.31015C22.5541 1.31015 22.7049 1.24765 22.8143 1.13828C22.9236 1.02968 22.9861 0.878978 22.9861 0.724213C22.9861 0.570306 22.9236 0.418744 22.8143 0.31015Z" fill="#9D9309"/>
<path d="M30.625 6.30383C30.5164 6.19523 30.3656 6.13281 30.2109 6.13281C30.0563 6.13281 29.9055 6.19531 29.7969 6.30383C29.6875 6.4132 29.625 6.56398 29.625 6.71875C29.625 6.87266 29.6875 7.02336 29.7969 7.13281C29.9054 7.24219 30.057 7.30469 30.2109 7.30469C30.3656 7.30469 30.5164 7.24219 30.625 7.13281C30.7344 7.02344 30.7969 6.87266 30.7969 6.71875C30.7969 6.56406 30.7344 6.41328 30.625 6.30383Z" fill="#9D9309"/>
<path d="M26.0838 2.85305C25.9744 2.74375 25.8236 2.68118 25.6689 2.68118C25.515 2.68118 25.3643 2.74375 25.2549 2.85305C25.1463 2.96172 25.083 3.11321 25.083 3.26711C25.083 3.4218 25.1463 3.57258 25.2549 3.68125C25.3642 3.79063 25.515 3.85305 25.6689 3.85305C25.8236 3.85305 25.9744 3.79055 26.0838 3.68125C26.1932 3.57258 26.2557 3.42188 26.2557 3.26711C26.2557 3.11321 26.1932 2.96172 26.0838 2.85305Z" fill="#9D9309"/>
<path d="M19.8164 3.67023C19.7078 3.56164 19.557 3.49921 19.4023 3.49921C19.2484 3.49921 19.0977 3.56171 18.9883 3.67023C18.8789 3.7796 18.8164 3.93039 18.8164 4.08515C18.8164 4.23906 18.8789 4.38976 18.9883 4.49921C19.0969 4.60773 19.2484 4.67109 19.4023 4.67109C19.557 4.67109 19.7078 4.60773 19.8164 4.49921C19.9258 4.38984 19.9883 4.23906 19.9883 4.08515C19.9883 3.93046 19.9258 3.77968 19.8164 3.67023Z" fill="#9D9309"/>
</svg>
