<svg width="40" height="40" viewBox="0 0 40 40" fill="none" xmlns="http://www.w3.org/2000/svg">
<path d="M10.625 13.75V12.5C11.1223 12.5 11.5992 12.3025 11.9508 11.9508C12.3025 11.5992 12.5 11.1223 12.5 10.625C12.5 10.1277 12.3025 9.65081 11.9508 9.29917C11.5992 8.94754 11.1223 8.75 10.625 8.75H9.375C9.20924 8.75 9.05027 8.68415 8.93306 8.56694C8.81585 8.44973 8.75 8.29076 8.75 8.125C8.75 7.95924 8.81585 7.80027 8.93306 7.68306C9.05027 7.56585 9.20924 7.5 9.375 7.5H10.625C10.7908 7.5 10.9497 7.56585 11.0669 7.68306C11.1842 7.80027 11.25 7.95924 11.25 8.125H12.5C12.5 7.62772 12.3025 7.15081 11.9508 6.79917C11.5992 6.44754 11.1223 6.25 10.625 6.25V5H9.375V6.25C8.87772 6.25 8.40081 6.44754 8.04917 6.79917C7.69754 7.15081 7.5 7.62772 7.5 8.125C7.5 8.62228 7.69754 9.09919 8.04917 9.45083C8.40081 9.80246 8.87772 10 9.375 10H10.625C10.7908 10 10.9497 10.0658 11.0669 10.1831C11.1842 10.3003 11.25 10.4592 11.25 10.625C11.25 10.7908 11.1842 10.9497 11.0669 11.0669C10.9497 11.1842 10.7908 11.25 10.625 11.25H9.375C9.20924 11.25 9.05027 11.1842 8.93306 11.0669C8.81585 10.9497 8.75 10.7908 8.75 10.625H7.5C7.5 11.1223 7.69754 11.5992 8.04917 11.9508C8.40081 12.3025 8.87772 12.5 9.375 12.5V13.75H10.625Z" fill="black"/>
<path d="M13.75 10H19.375V11.25H13.75V10Z" fill="black"/>
<path d="M13.75 7.5H15V8.75H13.75V7.5Z" fill="black"/>
<path d="M16.25 7.5H19.375V8.75H16.25V7.5Z" fill="black"/>
<path d="M36.875 11.875H28.125V8.75H31.25C31.4158 8.75 31.5747 8.68415 31.6919 8.56694C31.8092 8.44973 31.875 8.29076 31.875 8.125V3.75C31.875 3.08696 31.6116 2.45107 31.1428 1.98223C30.6739 1.51339 30.038 1.25 29.375 1.25H6.25C5.58696 1.25 4.95107 1.51339 4.48223 1.98223C4.01339 2.45107 3.75 3.08696 3.75 3.75V21.25H1.875C1.70924 21.25 1.55027 21.3158 1.43306 21.4331C1.31585 21.5503 1.25 21.7092 1.25 21.875V24.375C1.25 24.5408 1.31585 24.6997 1.43306 24.8169C1.55027 24.9342 1.70924 25 1.875 25V26.25C1.70924 26.25 1.55027 26.3158 1.43306 26.4331C1.31585 26.5503 1.25 26.7092 1.25 26.875V29.375C1.25 29.5408 1.31585 29.6997 1.43306 29.8169C1.55027 29.9342 1.70924 30 1.875 30H3.75V33.75H1.875C1.70924 33.75 1.55027 33.8158 1.43306 33.9331C1.31585 34.0503 1.25 34.2092 1.25 34.375V36.25C1.25 36.913 1.51339 37.5489 1.98223 38.0178C2.45107 38.4866 3.08696 38.75 3.75 38.75H25.625C26.288 38.75 26.9239 38.4866 27.3928 38.0178C27.8616 37.5489 28.125 36.913 28.125 36.25V35.625H36.875C37.3723 35.625 37.8492 35.4275 38.2008 35.0758C38.5525 34.7242 38.75 34.2473 38.75 33.75V13.75C38.75 13.2527 38.5525 12.7758 38.2008 12.4242C37.8492 12.0725 37.3723 11.875 36.875 11.875ZM30.625 3.75V7.5H28.125V3.75C28.125 3.41848 28.2567 3.10054 28.4911 2.86612C28.7255 2.6317 29.0435 2.5 29.375 2.5C29.7065 2.5 30.0245 2.6317 30.2589 2.86612C30.4933 3.10054 30.625 3.41848 30.625 3.75ZM2.5 22.5H7.5V23.75H2.5V22.5ZM3.125 25H8.125V26.25H3.125V25ZM2.5 27.5H7.5V28.75H2.5V27.5ZM5 30H8.125C8.29076 30 8.44973 29.9342 8.56694 29.8169C8.68415 29.6997 8.75 29.5408 8.75 29.375V27.5C8.91576 27.5 9.07473 27.4342 9.19194 27.3169C9.30915 27.1997 9.375 27.0408 9.375 26.875V24.375C9.375 24.2092 9.30915 24.0503 9.19194 23.9331C9.07473 23.8158 8.91576 23.75 8.75 23.75V21.875C8.75 21.7092 8.68415 21.5503 8.56694 21.4331C8.44973 21.3158 8.29076 21.25 8.125 21.25H5V3.75C5 3.41848 5.1317 3.10054 5.36612 2.86612C5.60054 2.6317 5.91848 2.5 6.25 2.5H27.2225C26.9975 2.87834 26.8776 3.30984 26.875 3.75V11.875H21.875C21.3777 11.875 20.9008 12.0725 20.5492 12.4242C20.1975 12.7758 20 13.2527 20 13.75V33.75H5V30ZM2.5 36.25V35H23.125V36.25C23.1276 36.6902 23.2475 37.1217 23.4725 37.5H3.75C3.41848 37.5 3.10054 37.3683 2.86612 37.1339C2.6317 36.8995 2.5 36.5815 2.5 36.25ZM26.875 36.25C26.875 36.5815 26.7433 36.8995 26.5089 37.1339C26.2745 37.3683 25.9565 37.5 25.625 37.5C25.2935 37.5 24.9755 37.3683 24.7411 37.1339C24.5067 36.8995 24.375 36.5815 24.375 36.25V35.625H26.875V36.25ZM37.5 33.75C37.5 33.9158 37.4342 34.0747 37.3169 34.1919C37.1997 34.3092 37.0408 34.375 36.875 34.375H24.375C24.375 34.2092 24.3092 34.0503 24.1919 33.9331C24.0747 33.8158 23.9158 33.75 23.75 33.75H21.25V13.75C21.25 13.5842 21.3158 13.4253 21.4331 13.3081C21.5503 13.1908 21.7092 13.125 21.875 13.125H36.875C37.0408 13.125 37.1997 13.1908 37.3169 13.3081C37.4342 13.4253 37.5 13.5842 37.5 13.75V33.75Z" fill="black"/>
<path d="M35.625 14.375H23.125C22.9592 14.375 22.8003 14.4408 22.6831 14.5581C22.5658 14.6753 22.5 14.8342 22.5 15V18.75C22.5 18.9158 22.5658 19.0747 22.6831 19.1919C22.8003 19.3092 22.9592 19.375 23.125 19.375H35.625C35.7908 19.375 35.9497 19.3092 36.0669 19.1919C36.1842 19.0747 36.25 18.9158 36.25 18.75V15C36.25 14.8342 36.1842 14.6753 36.0669 14.5581C35.9497 14.4408 35.7908 14.375 35.625 14.375ZM35 18.125H23.75V15.625H35V18.125Z" fill="black"/>
<path d="M35.625 20.625H23.125C22.9592 20.625 22.8003 20.6908 22.6831 20.8081C22.5658 20.9253 22.5 21.0842 22.5 21.25V32.5C22.5 32.6658 22.5658 32.8247 22.6831 32.9419C22.8003 33.0592 22.9592 33.125 23.125 33.125H35.625C35.7908 33.125 35.9497 33.0592 36.0669 32.9419C36.1842 32.8247 36.25 32.6658 36.25 32.5V21.25C36.25 21.0842 36.1842 20.9253 36.0669 20.8081C35.9497 20.6908 35.7908 20.625 35.625 20.625ZM35 25.625H30V21.875H35V25.625ZM28.75 21.875V25.625H23.75V21.875H28.75ZM23.75 26.875H28.75V31.875H23.75V26.875ZM30 31.875V26.875H35V31.875H30Z" fill="#9D9309"/>
<path d="M25.625 25H26.875V24.375H27.5V23.125H26.875V22.5H25.625V23.125H25V24.375H25.625V25Z" fill="black"/>
<path d="M27.9423 28.5669L27.0586 27.6831L26.2505 28.4912L25.4423 27.6831L24.5586 28.5669L25.3667 29.375L24.5586 30.1831L25.4423 31.0669L26.2505 30.2587L27.0586 31.0669L27.9423 30.1831L27.1342 29.375L27.9423 28.5669Z" fill="black"/>
<path d="M31.25 23.125H33.75V24.375H31.25V23.125Z" fill="black"/>
<path d="M31.25 27.5H33.75V28.75H31.25V27.5Z" fill="black"/>
<path d="M31.25 30H33.75V31.25H31.25V30Z" fill="black"/>
<path d="M17.5 18.75H11.25C11.0842 18.75 10.9253 18.8158 10.8081 18.9331C10.6908 19.0503 10.625 19.2092 10.625 19.375V21.25C10.4592 21.25 10.3003 21.3158 10.1831 21.4331C10.0658 21.5503 10 21.7092 10 21.875V24.375C10 24.5408 10.0658 24.6997 10.1831 24.8169C10.3003 24.9342 10.4592 25 10.625 25V26.25C10.4592 26.25 10.3003 26.3158 10.1831 26.4331C10.0658 26.5503 10 26.7092 10 26.875V29.375C10 29.5408 10.0658 29.6997 10.1831 29.8169C10.3003 29.9342 10.4592 30 10.625 30H16.875C17.0408 30 17.1997 29.9342 17.3169 29.8169C17.4342 29.6997 17.5 29.5408 17.5 29.375V27.5C17.6658 27.5 17.8247 27.4342 17.9419 27.3169C18.0592 27.1997 18.125 27.0408 18.125 26.875V24.375C18.125 24.2092 18.0592 24.0503 17.9419 23.9331C17.8247 23.8158 17.6658 23.75 17.5 23.75V22.5C17.6658 22.5 17.8247 22.4342 17.9419 22.3169C18.0592 22.1997 18.125 22.0408 18.125 21.875V19.375C18.125 19.2092 18.0592 19.0503 17.9419 18.9331C17.8247 18.8158 17.6658 18.75 17.5 18.75ZM11.875 20H16.875V21.25H11.875V20ZM11.875 25H16.875V26.25H11.875V25ZM16.25 28.75H11.25V27.5H16.25V28.75ZM16.25 23.75H11.25V22.5H16.25V23.75Z" fill="#9D9309"/>
</svg>
