<svg width="100" height="100" viewBox="0 0 100 100" fill="none" xmlns="http://www.w3.org/2000/svg">
<path d="M15.6289 53.1125H43.7539C44.618 53.1125 45.3164 52.4141 45.3164 51.55V45.3C45.3164 44.4359 44.618 43.7375 43.7539 43.7375H15.6289C14.7648 43.7375 14.0664 44.4359 14.0664 45.3V51.55C14.0664 52.4141 14.7648 53.1125 15.6289 53.1125ZM17.1914 46.8625H42.1914V49.9875H17.1914V46.8625Z" fill="black"/>
<path d="M40.6289 56.2375C38.0445 56.2375 35.9414 58.3406 35.9414 60.925C35.9414 63.5094 38.0445 65.6125 40.6289 65.6125C43.2133 65.6125 45.3164 63.5094 45.3164 60.925C45.3164 58.3406 43.2133 56.2375 40.6289 56.2375ZM40.6289 62.4875C39.7664 62.4875 39.0664 61.7875 39.0664 60.925C39.0664 60.0625 39.7664 59.3625 40.6289 59.3625C41.4914 59.3625 42.1914 60.0625 42.1914 60.925C42.1914 61.7875 41.4914 62.4875 40.6289 62.4875Z" fill="black"/>
<path d="M29.6914 56.2375C27.107 56.2375 25.0039 58.3406 25.0039 60.925C25.0039 63.5094 27.107 65.6125 29.6914 65.6125C32.2758 65.6125 34.3789 63.5094 34.3789 60.925C34.3789 58.3406 32.2758 56.2375 29.6914 56.2375ZM29.6914 62.4875C28.8289 62.4875 28.1289 61.7875 28.1289 60.925C28.1289 60.0625 28.8289 59.3625 29.6914 59.3625C30.5539 59.3625 31.2539 60.0625 31.2539 60.925C31.2539 61.7875 30.5539 62.4875 29.6914 62.4875Z" fill="black"/>
<path d="M18.7539 65.6125C21.3383 65.6125 23.4414 63.5094 23.4414 60.925C23.4414 58.3406 21.3383 56.2375 18.7539 56.2375C16.1695 56.2375 14.0664 58.3406 14.0664 60.925C14.0664 63.5094 16.1695 65.6125 18.7539 65.6125ZM18.7539 59.3625C19.6164 59.3625 20.3164 60.0625 20.3164 60.925C20.3164 61.7875 19.6164 62.4875 18.7539 62.4875C17.8914 62.4875 17.1914 61.7875 17.1914 60.925C17.1914 60.0625 17.8914 59.3625 18.7539 59.3625Z" fill="black"/>
<path d="M40.6289 67.175C38.0445 67.175 35.9414 69.2781 35.9414 71.8625C35.9414 74.4469 38.0445 76.55 40.6289 76.55C43.2133 76.55 45.3164 74.4469 45.3164 71.8625C45.3164 69.2781 43.2133 67.175 40.6289 67.175ZM40.6289 73.425C39.7664 73.425 39.0664 72.725 39.0664 71.8625C39.0664 71 39.7664 70.3 40.6289 70.3C41.4914 70.3 42.1914 71 42.1914 71.8625C42.1914 72.725 41.4914 73.425 40.6289 73.425Z" fill="black"/>
<path d="M29.6914 67.175C27.107 67.175 25.0039 69.2781 25.0039 71.8625C25.0039 74.4469 27.107 76.55 29.6914 76.55C32.2758 76.55 34.3789 74.4469 34.3789 71.8625C34.3789 69.2781 32.2758 67.175 29.6914 67.175ZM29.6914 73.425C28.8289 73.425 28.1289 72.725 28.1289 71.8625C28.1289 71 28.8289 70.3 29.6914 70.3C30.5539 70.3 31.2539 71 31.2539 71.8625C31.2539 72.725 30.5539 73.425 29.6914 73.425Z" fill="black"/>
<path d="M18.7539 76.55C21.3383 76.55 23.4414 74.4469 23.4414 71.8625C23.4414 69.2781 21.3383 67.175 18.7539 67.175C16.1695 67.175 14.0664 69.2781 14.0664 71.8625C14.0664 74.4469 16.1695 76.55 18.7539 76.55ZM18.7539 70.3C19.6164 70.3 20.3164 71 20.3164 71.8625C20.3164 72.725 19.6164 73.425 18.7539 73.425C17.8914 73.425 17.1914 72.725 17.1914 71.8625C17.1914 71 17.8914 70.3 18.7539 70.3Z" fill="black"/>
<path d="M40.6289 78.1125C38.0445 78.1125 35.9414 80.2156 35.9414 82.8C35.9414 85.3844 38.0445 87.4875 40.6289 87.4875C43.2133 87.4875 45.3164 85.3844 45.3164 82.8C45.3164 80.2156 43.2133 78.1125 40.6289 78.1125ZM40.6289 84.3625C39.7664 84.3625 39.0664 83.6625 39.0664 82.8C39.0664 81.9375 39.7664 81.2375 40.6289 81.2375C41.4914 81.2375 42.1914 81.9375 42.1914 82.8C42.1914 83.6625 41.4914 84.3625 40.6289 84.3625Z" fill="black"/>
<path d="M29.6914 78.1125C27.107 78.1125 25.0039 80.2156 25.0039 82.8C25.0039 85.3844 27.107 87.4875 29.6914 87.4875C32.2758 87.4875 34.3789 85.3844 34.3789 82.8C34.3789 80.2156 32.2758 78.1125 29.6914 78.1125ZM29.6914 84.3625C28.8289 84.3625 28.1289 83.6625 28.1289 82.8C28.1289 81.9375 28.8289 81.2375 29.6914 81.2375C30.5539 81.2375 31.2539 81.9375 31.2539 82.8C31.2539 83.6625 30.5539 84.3625 29.6914 84.3625Z" fill="black"/>
<path d="M18.7539 87.4875C21.3383 87.4875 23.4414 85.3844 23.4414 82.8C23.4414 80.2156 21.3383 78.1125 18.7539 78.1125C16.1695 78.1125 14.0664 80.2156 14.0664 82.8C14.0664 85.3844 16.1695 87.4875 18.7539 87.4875ZM18.7539 81.2375C19.6164 81.2375 20.3164 81.9375 20.3164 82.8C20.3164 83.6625 19.6164 84.3625 18.7539 84.3625C17.8914 84.3625 17.1914 83.6625 17.1914 82.8C17.1914 81.9375 17.8914 81.2375 18.7539 81.2375Z" fill="black"/>
<path d="M65.6064 23.4562H65.4892C64.9986 19.614 62.7189 16.1875 59.3564 14.2296V13.5718C59.3564 13.4921 59.3236 13.4218 59.3111 13.3453C59.2939 13.2312 59.2846 13.1171 59.2439 13.0093C59.2064 12.9109 59.1439 12.8312 59.0861 12.7421C59.0346 12.6609 58.9924 12.5781 58.9252 12.5078C58.8393 12.4156 58.7346 12.3531 58.6299 12.2843C58.5721 12.2468 58.5299 12.1906 58.4658 12.1609C58.4502 12.1531 58.433 12.1484 58.4189 12.1406C58.4064 12.1359 58.3955 12.1312 58.383 12.1265C55.0705 10.575 51.1611 10.5734 47.8283 12.1218C47.8205 12.125 47.8127 12.1265 47.8049 12.1312C47.7877 12.139 47.7721 12.1437 47.7549 12.1515C47.683 12.1843 47.6361 12.2468 47.5721 12.289C47.4736 12.3546 47.3736 12.4125 47.2924 12.4968C47.2252 12.5703 47.183 12.6562 47.1299 12.7375C47.0736 12.825 47.0111 12.9031 46.9721 13.0015C46.9314 13.1078 46.9236 13.2218 46.9049 13.3359C46.8924 13.414 46.8596 13.4843 46.8596 13.564V14.2234C43.4908 16.1812 41.2064 19.6093 40.7143 23.4546H40.6064C39.7424 23.4546 39.0439 24.1531 39.0439 25.0171V29.7046C39.0439 30.5687 39.7424 31.2671 40.6064 31.2671H65.6064C66.4705 31.2671 67.1689 30.5687 67.1689 29.7046V25.0171C67.1689 24.1546 66.4705 23.4562 65.6064 23.4562ZM46.8596 18.0312V18.7656C46.8596 19.6296 47.558 20.3281 48.4221 20.3281C49.2861 20.3281 49.9846 19.6296 49.9846 18.7656V14.6156C52.0017 13.9062 54.2236 13.9093 56.2314 14.6187V18.7656C56.2314 19.6296 56.9299 20.3281 57.7939 20.3281C58.658 20.3281 59.3564 19.6296 59.3564 18.7656V18.0406C60.9205 19.4515 61.9721 21.3656 62.3299 23.4562H43.8736C44.2346 21.3609 45.2893 19.4421 46.8596 18.0312ZM64.0439 28.1437H42.1689V26.5812H64.0439V28.1437Z" fill="#9D9309"/>
<path d="M74.9961 43.7594H79.6836C80.5477 43.7594 81.2461 43.061 81.2461 42.1969C81.2461 41.3328 80.5477 40.6344 79.6836 40.6344H74.9961C74.132 40.6344 73.4336 41.3328 73.4336 42.1969C73.4336 43.061 74.132 43.7594 74.9961 43.7594Z" fill="black"/>
<path d="M79.6852 48.4469H73.4336C72.5695 48.4469 71.8711 49.1453 71.8711 50.0094C71.8711 50.8735 72.5695 51.5719 73.4336 51.5719H79.6852C80.5492 51.5719 81.2477 50.8735 81.2477 50.0094C81.2477 49.1453 80.5492 48.4469 79.6852 48.4469Z" fill="black"/>
<path d="M79.6836 56.2594H74.9961C74.132 56.2594 73.4336 56.9578 73.4336 57.8219C73.4336 58.686 74.132 59.3844 74.9961 59.3844H79.6836C80.5477 59.3844 81.2461 58.686 81.2461 57.8219C81.2461 56.9578 80.5477 56.2594 79.6836 56.2594Z" fill="black"/>
<path d="M79.684 64.0719H76.5605C75.6965 64.0719 74.998 64.7703 74.998 65.6344C74.998 66.4985 75.6965 67.1969 76.5605 67.1969H79.684C80.548 67.1969 81.2465 66.4985 81.2465 65.6344C81.2465 64.7703 80.548 64.0719 79.684 64.0719Z" fill="black"/>
<path d="M79.6836 71.8844H74.9961C74.132 71.8844 73.4336 72.5828 73.4336 73.4469C73.4336 74.311 74.132 75.0094 74.9961 75.0094H79.6836C80.5477 75.0094 81.2461 74.311 81.2461 73.4469C81.2461 72.5828 80.5477 71.8844 79.6836 71.8844Z" fill="black"/>
<path d="M79.6852 79.6969H73.4336C72.5695 79.6969 71.8711 80.3953 71.8711 81.2594C71.8711 82.1235 72.5695 82.8219 73.4336 82.8219H79.6852C80.5492 82.8219 81.2477 82.1235 81.2477 81.2594C81.2477 80.3953 80.5492 79.6969 79.6852 79.6969Z" fill="black"/>
<path d="M92.1789 12.5031C92.1773 12.3046 92.1383 12.1078 92.0617 11.9218C91.982 11.7296 91.868 11.5562 91.7227 11.4125L80.7898 0.471826C80.6461 0.326514 80.4727 0.212451 80.2805 0.132764C80.0899 0.0530762 79.8867 0.0124512 79.6836 0.0124512H29.6914C28.8273 0.0124512 28.1289 0.710889 28.1289 1.57495V37.4875H12.5039C9.91953 37.4875 7.81641 39.5906 7.81641 42.175V48.425V89.0499V95.2999C7.81641 97.8843 9.91953 99.9874 12.5039 99.9874H46.8789C49.4633 99.9874 51.5664 97.8843 51.5664 95.2999V93.7312H90.6195C91.4836 93.7312 92.182 93.0328 92.182 92.1687V12.5218C92.182 12.5218 92.182 12.5218 92.182 12.5203V12.5187C92.182 12.5125 92.1789 12.5078 92.1789 12.5031ZM81.2461 5.34839L86.8492 10.9562H81.2461V5.34839ZM10.9414 42.175C10.9414 41.3125 11.6414 40.6125 12.5039 40.6125H46.8789C47.7414 40.6125 48.4414 41.3125 48.4414 42.175V48.425V89.0499C48.4414 89.9125 47.7414 90.6124 46.8789 90.6124H12.5039C11.6414 90.6124 10.9414 89.9125 10.9414 89.0499V48.425V42.175ZM46.8789 96.8624H12.5039C11.6414 96.8624 10.9414 96.1625 10.9414 95.2999V93.4484C11.432 93.6234 11.9523 93.7374 12.5039 93.7374H46.8789C47.4305 93.7374 47.9508 93.625 48.4414 93.4484V95.2999C48.4414 96.1625 47.7414 96.8624 46.8789 96.8624ZM51.5664 89.0499V82.8218H65.6164C66.4805 82.8218 67.1789 82.1234 67.1789 81.2593C67.1789 80.3953 66.4805 79.6968 65.6164 79.6968H51.5664V75.0093H65.6164C66.4805 75.0093 67.1789 74.3109 67.1789 73.4468C67.1789 72.5828 66.4805 71.8843 65.6164 71.8843H51.5664V67.1968H65.6164C66.4805 67.1968 67.1789 66.4984 67.1789 65.6343C67.1789 64.7703 66.4805 64.0718 65.6164 64.0718H51.5664V59.3843H65.6164C66.4805 59.3843 67.1789 58.6859 67.1789 57.8218C67.1789 56.9578 66.4805 56.2593 65.6164 56.2593H51.5664V51.5718H65.6164C66.4805 51.5718 67.1789 50.8734 67.1789 50.0093C67.1789 49.1453 66.4805 48.4468 65.6164 48.4468H51.5664V48.425V43.7593H65.6164C66.4805 43.7593 67.1789 43.0609 67.1789 42.1968C67.1789 41.3328 66.4805 40.6343 65.6164 40.6343H51.2852C50.643 38.8078 48.9195 37.4875 46.8789 37.4875H31.2539V3.13745H78.1211V12.5187C78.1211 13.3828 78.8195 14.0812 79.6836 14.0812H89.057V90.6078H51.5664V89.0499Z" fill="black"/>
</svg>
