<svg width="40" height="40" viewBox="0 0 40 40" fill="none" xmlns="http://www.w3.org/2000/svg">
<g clip-path="url(#clip0)">
<path d="M20.0663 20.7816H20.0397C19.7135 20.7816 19.4492 21.0458 19.4492 21.3721C19.4492 21.698 19.7135 21.9623 20.0397 21.9623H20.0663C20.3922 21.9623 20.6565 21.698 20.6565 21.3721C20.6565 21.0458 20.3922 20.7816 20.0663 20.7816Z" fill="#9D9309"/>
<path d="M38.9111 27.9276C38.5947 27.5912 38.1769 27.3682 37.7283 27.2879V23.1161C37.7283 21.5515 36.6702 20.6873 35.6747 20.668C34.8456 20.6506 34.2203 21.2051 34.1904 21.9824C34.1727 22.4344 33.1903 22.5122 32.4097 22.5241L31.8036 20.5252C31.8027 20.5219 31.8014 20.5185 31.8005 20.5151C31.2021 18.6627 29.7317 18.2425 28.3099 17.8363C28.1198 17.7817 27.9233 17.7255 27.7273 17.666L24.5627 16.7032C25.7291 15.6287 26.6269 14.2563 27.0203 12.8928C27.4368 12.7887 27.8512 12.554 28.1894 12.2202C28.6426 11.7731 28.9023 11.2073 28.9023 10.6677V10.0076C28.9023 9.45374 28.5425 8.98285 28.0447 8.815C28.0582 8.7384 28.0664 8.65997 28.0664 8.57941V7.86407C28.0664 7.28943 27.7057 6.79871 27.1994 6.60339C26.7996 4.15649 25.2063 2.08893 22.9364 1.08521C22.6877 0.450745 22.0694 0 21.3473 0H18.6481C17.9315 0 17.3175 0.444946 17.066 1.0733C14.776 2.0755 13.1714 4.15558 12.7756 6.6217C12.2952 6.82861 11.9577 7.30743 11.9577 7.86407V8.57941C11.9577 8.66913 11.9668 8.75671 11.9836 8.84155C11.5243 9.02863 11.199 9.48059 11.199 10.0076V10.6677C11.199 11.2073 11.459 11.7734 11.9125 12.2208C12.251 12.5549 12.6654 12.7893 13.082 12.8934C13.4756 14.2587 14.3725 15.6305 15.538 16.7038L14.0982 17.1426C14.0768 17.1475 14.0561 17.1539 14.0353 17.1619L12.3804 17.666C12.1847 17.7255 11.9882 17.7817 11.7981 17.836C10.3763 18.2425 8.90624 18.6627 8.30779 20.5151C8.30657 20.5185 8.30565 20.5215 8.30474 20.5249L7.69713 22.5262C6.89574 22.5247 5.6906 22.4835 5.67077 21.9827C5.64086 21.2048 5.01494 20.6525 4.18609 20.668C3.19091 20.6873 2.13286 21.5515 2.13286 23.1158V27.3175C1.73735 27.4158 1.37236 27.6263 1.08886 27.9276C0.708607 28.3319 0.517567 28.8498 0.550526 29.3857L0.709218 31.9952C0.766285 32.9236 1.34063 33.671 2.13286 33.9438V36.0873C2.13286 39.0442 3.37981 39.9933 7.26378 39.9933L19.1971 40H19.1974C19.5233 40 19.7876 39.7357 19.7876 39.4098C19.7879 39.0839 19.5236 38.8193 19.1977 38.8193L7.26409 38.8126C3.65416 38.8126 3.31359 38.0652 3.31359 36.0873V34.0552H3.81713C3.97063 34.0552 4.11803 34.0469 4.25902 34.0305C4.86937 33.9597 5.3601 33.735 5.72112 33.3606C6.52587 32.5266 6.47826 31.207 6.43615 30.0427C6.4273 29.7977 6.41875 29.566 6.41875 29.35C6.41875 28.1943 5.47942 27.254 4.32433 27.254H3.31359V23.1158C3.31359 22.1271 3.89922 21.8546 4.20897 21.8484C4.39238 21.8451 4.48607 21.9055 4.49065 22.0288C4.50805 22.4689 4.72075 23.2523 5.95122 23.5547C6.58385 23.7103 7.32421 23.7082 7.9193 23.7067L31.7764 23.7064L31.9415 23.7067H31.947C31.9556 23.707 31.9638 23.7088 31.9726 23.7088C31.9815 23.7088 31.991 23.707 32.0001 23.7067C32.5848 23.7079 33.2971 23.7051 33.9099 23.5544C35.1401 23.2523 35.3528 22.4689 35.3702 22.0282C35.375 21.9055 35.4697 21.8448 35.6521 21.8484C35.9616 21.8542 36.5472 22.1271 36.5472 23.1158V27.2537H35.6756C34.5206 27.2537 33.5812 28.194 33.5812 29.3497C33.5812 29.566 33.5727 29.7974 33.5638 30.0427C33.5217 31.2067 33.4741 32.5262 34.2789 33.3606C34.6399 33.735 35.1306 33.9594 35.741 34.0305C35.8819 34.0469 36.0293 34.0552 36.1828 34.0552H36.5472V36.087C36.5472 38.0652 36.207 38.8126 32.5989 38.8126L21.8896 38.8168C21.5637 38.8171 21.2994 39.0814 21.2994 39.4077C21.2997 39.7336 21.564 39.9979 21.8899 39.9979H21.8902L32.5992 39.9933C36.4819 39.9933 37.7283 39.0442 37.7283 36.087V33.9859C38.5913 33.7567 39.2303 32.977 39.2905 31.9949L39.4495 29.386C39.4824 28.8498 39.2911 28.3319 38.9111 27.9276ZM4.32433 28.4348C4.82818 28.4348 5.23803 28.8455 5.23803 29.35C5.23803 29.4092 5.23864 29.469 5.23955 29.5291C5.2426 29.7092 5.24901 29.8935 5.25603 30.0854C5.27495 30.6079 5.29509 31.17 5.22826 31.6458C5.17608 32.016 5.07109 32.334 4.87151 32.5409C4.65484 32.7652 4.31029 32.8745 3.81713 32.8745H2.80272C2.31444 32.8745 1.92107 32.4655 1.88781 31.9235L1.72912 29.3137C1.7163 29.1061 1.79442 28.9011 1.94915 28.7366C2.12951 28.5446 2.3828 28.4348 2.64403 28.4348H4.32433ZM11.7261 22.5256H8.93126L9.43297 20.8731C9.78454 19.7897 10.4782 19.4592 11.7261 19.0869V22.5256ZM22.3767 21.8332C22.4124 21.8405 22.4484 21.8469 22.4847 21.8518C22.5564 21.8616 22.6276 21.8665 22.6977 21.8665C23.2083 21.8665 23.6774 21.615 24.0387 21.1411L26.0901 18.4021L27.1945 18.7381V22.5256H22.3767V21.8332ZM24.8886 18.0365L23.0966 20.4291C22.8931 20.6964 22.7353 20.6879 22.6758 20.6848C22.5018 20.6754 22.327 20.5548 22.2418 20.4684C22.233 20.4581 22.2235 20.448 22.214 20.4382C22.2092 20.4321 22.2034 20.4254 22.1997 20.4202L21.4343 18.5342C21.589 18.4885 21.7465 18.4357 21.9089 18.3752C22.435 18.179 22.9455 17.9126 23.4299 17.5928L24.8886 18.0365ZM27.7215 10.6677C27.7215 10.8902 27.5864 11.1563 27.3599 11.3797C27.3209 11.4182 27.28 11.4536 27.2381 11.4871C27.2385 11.4716 27.2394 11.4557 27.2394 11.4401L27.2555 9.9292H27.6437C27.6852 9.9292 27.7215 9.96582 27.7215 10.0076V10.6677ZM18.6481 1.18073H21.3473C21.6373 1.18073 21.8729 1.41602 21.8729 1.70532V3.63892C21.8729 3.92822 21.6373 4.16321 21.3473 4.16321H18.6481C18.3594 4.16321 18.1247 3.92822 18.1247 3.63892V1.70532C18.1247 1.41602 18.3594 1.18073 18.6481 1.18073ZM16.944 2.45483V3.63892C16.944 4.57916 17.7084 5.34424 18.6481 5.34424H21.3473C22.2882 5.34424 23.0539 4.57916 23.0539 3.63892V2.46765C24.5569 3.3374 25.6207 4.80103 25.982 6.51215H13.9957C14.3579 4.79187 15.4297 3.32306 16.944 2.45483ZM12.7417 11.3803C12.5152 11.1566 12.3798 10.8902 12.3798 10.6677V10.0076C12.3798 9.96643 12.4158 9.9292 12.4554 9.9292H12.8461L12.8619 11.4337C12.8619 11.4514 12.8631 11.4694 12.8635 11.4871C12.8213 11.4536 12.7804 11.4185 12.7417 11.3803ZM14.154 12.3373C14.151 12.2711 14.1373 12.2079 14.1144 12.149C14.0683 11.9049 14.0427 11.6632 14.0427 11.4276L14.0271 9.92981L18.8461 9.93378H18.8464C19.1724 9.93378 19.4366 9.6698 19.4369 9.34387C19.4372 9.01764 19.173 8.75305 18.847 8.75275L13.4323 8.74847C13.4317 8.74847 13.4311 8.74847 13.4305 8.74847H13.3066C13.2156 8.74847 13.1384 8.67096 13.1384 8.57941V7.86407C13.1384 7.7713 13.2156 7.69287 13.3066 7.69287H26.7154C26.8078 7.69287 26.8857 7.7713 26.8857 7.86407V8.57941C26.8857 8.67096 26.8078 8.74847 26.7154 8.74847H21.5414C21.2155 8.74847 20.9512 9.01276 20.9512 9.33868C20.9512 9.66492 21.2155 9.9292 21.5414 9.9292H26.0745L26.0586 11.4337C26.0586 11.6623 26.0345 11.8964 25.9906 12.1338C25.9619 12.2015 25.9454 12.2757 25.9442 12.3538C25.473 14.3423 23.5965 16.4853 21.4966 17.269C20.43 17.666 19.675 17.6666 18.6108 17.2708C18.0881 17.077 17.5796 16.7984 17.1026 16.459C17.0993 16.4566 17.0956 16.4542 17.0923 16.452C15.6506 15.423 14.5038 13.8376 14.154 12.3373ZM17.7246 22.5256H12.9068V18.7399L14.0137 18.4027L16.0657 21.1447C16.4242 21.6153 16.893 21.8665 17.4036 21.8665C17.4734 21.8665 17.5448 21.8616 17.6163 21.8518C17.6529 21.8469 17.6889 21.8405 17.7246 21.8332V22.5256ZM17.8879 20.4379C17.8781 20.448 17.8686 20.4581 17.8595 20.4688C17.774 20.5548 17.5995 20.6757 17.4258 20.6848C17.366 20.6879 17.2085 20.6964 17.008 20.4333L15.2145 18.0368L16.6708 17.5931C17.1573 17.9144 17.6709 18.1818 18.1998 18.378C18.36 18.4375 18.5159 18.4894 18.6688 18.5349L17.9019 20.4202C17.8985 20.4254 17.8924 20.4318 17.8879 20.4379ZM18.9056 21.0416C18.9398 20.9869 18.9685 20.9326 18.9899 20.8792L19.8584 18.7442C19.9225 18.7469 19.9866 18.7491 20.0506 18.7491C20.1153 18.7491 20.18 18.7469 20.245 18.7439L21.1111 20.8783C21.1328 20.9317 21.1615 20.9866 21.196 21.0413V22.5256H18.9053V21.0416H18.9056ZM28.3752 22.5256V19.0848C29.6274 19.4583 30.3229 19.7876 30.675 20.8731L31.1764 22.5256H28.3752ZM38.2709 29.314L38.1122 31.9232C38.0789 32.4655 37.6855 32.8741 37.1976 32.8741H36.1828C35.69 32.8741 35.3451 32.7652 35.1288 32.5409C34.9292 32.3337 34.8242 32.016 34.772 31.6458C34.7049 31.17 34.725 30.6079 34.7439 30.0854C34.7534 29.8294 34.762 29.5874 34.762 29.35C34.762 28.8452 35.1718 28.4348 35.6756 28.4348H37.3563C37.6172 28.4348 37.8705 28.5446 38.0508 28.7366C38.2056 28.9011 38.2837 29.1061 38.2709 29.314Z" fill="black"/>
</g>
<defs>
<clipPath id="clip0">
<rect width="40" height="40" fill="white"/>
</clipPath>
</defs>
</svg>
