<svg width="15" height="15" viewBox="0 0 15 15" fill="none" xmlns="http://www.w3.org/2000/svg">
<g clip-path="url(#clip0)">
<path d="M14.998 5.73441C14.9964 5.71718 14.993 5.70016 14.9877 5.68367C14.9843 5.66893 14.9795 5.65454 14.9735 5.64066C14.9665 5.62709 14.9581 5.61426 14.9485 5.60239C14.9388 5.5883 14.9277 5.57532 14.9152 5.56363C14.9112 5.56015 14.9095 5.55537 14.9052 5.55188L12.5009 3.68455V1.74922C12.5009 1.335 12.165 0.999182 11.7508 0.999182H9.04143L7.95659 0.156883C7.6886 -0.0521315 7.31279 -0.0521315 7.0448 0.156883L5.95974 0.999182H3.25034C2.83612 0.999182 2.5003 1.33497 2.5003 1.74922V3.68458L0.0966943 5.55191C0.092446 5.55543 0.0906881 5.56017 0.0867036 5.56366C0.0742518 5.57532 0.0630891 5.58833 0.0534499 5.60242C0.0438401 5.61429 0.0354607 5.62709 0.0284584 5.64069C0.0223937 5.65454 0.0176473 5.66896 0.0142194 5.6837C0.00900431 5.69996 0.00557641 5.71672 0.003965 5.73371C0.003965 5.73895 0.000976562 5.74346 0.000976562 5.74871V14.2498C0.00132814 14.4089 0.0527761 14.5636 0.147732 14.6911C0.149226 14.6934 0.14949 14.6961 0.151219 14.6981C0.152976 14.7001 0.156727 14.7023 0.159217 14.7051C0.299673 14.8899 0.518122 14.9989 0.750253 14.9999H14.2509C14.484 14.9992 14.7033 14.8897 14.844 14.7039C14.846 14.7014 14.849 14.7006 14.8507 14.6981C14.8525 14.6956 14.8527 14.6934 14.8542 14.6911C14.9492 14.5636 15.0006 14.4089 15.001 14.2499V5.74941C15.0009 5.74417 14.9982 5.73966 14.998 5.73441ZM7.35056 0.551385C7.43787 0.482007 7.56151 0.482007 7.64882 0.551385L8.22558 0.999152H6.77552L7.35056 0.551385ZM0.813244 14.4999L7.35059 9.42185C7.43795 9.35258 7.56151 9.35258 7.64884 9.42185L14.1879 14.4999H0.813244ZM14.5009 14.1101L7.95659 9.02731C7.68854 8.81848 7.31285 8.81848 7.0448 9.02731L0.500221 14.1101V6.13017L4.59719 9.3116C4.70635 9.39624 4.86345 9.37637 4.94809 9.26721C5.03274 9.15804 5.01287 9.00095 4.90371 8.9163L0.741493 5.6844L2.50033 4.31757V6.24942C2.50033 6.3875 2.61228 6.49942 2.75033 6.49942C2.88842 6.49942 3.00034 6.38747 3.00034 6.24942V1.74919C3.00034 1.61111 3.11226 1.49919 3.25034 1.49919H11.7508C11.8888 1.49919 12.0008 1.61111 12.0008 1.74919V6.24942C12.0008 6.3875 12.1127 6.49942 12.2508 6.49942C12.3889 6.49942 12.5008 6.38747 12.5008 6.24942V4.31757L14.2596 5.6844L10.0902 8.92207C10.0184 8.97642 9.98143 9.06514 9.99333 9.15435C10.0052 9.24357 10.0641 9.31951 10.1476 9.35317C10.2311 9.38683 10.3262 9.37306 10.3967 9.31707L14.5009 6.13017V14.1101H14.5009Z" fill="white"/>
<path d="M10.4993 5.99934V4.9993C10.4993 3.34236 9.1561 1.99915 7.49917 1.99915C5.84223 1.99915 4.49902 3.34236 4.49902 4.9993C4.49902 6.65624 5.84223 7.99945 7.49917 7.99945C7.63725 7.99945 7.74917 7.88753 7.74917 7.74945C7.74917 7.61136 7.63725 7.49944 7.49917 7.49944C6.1184 7.49944 4.99906 6.3801 4.99906 4.99933C4.99906 3.61855 6.1184 2.49921 7.49917 2.49921C8.87994 2.49921 9.99928 3.61855 9.99928 4.99933V5.99937C9.99928 6.27554 9.77541 6.4994 9.49925 6.4994C9.22308 6.4994 8.99921 6.27554 8.99921 5.99937V4.99933C8.99921 4.86124 8.88729 4.74932 8.74921 4.74932C8.61113 4.74932 8.49921 4.86124 8.49921 4.99933C8.49921 5.55163 8.05147 5.99937 7.49917 5.99937C6.94687 5.99937 6.49913 5.55163 6.49913 4.99933C6.49913 4.44702 6.94687 3.99929 7.49917 3.99929C7.63725 3.99929 7.74917 3.88737 7.74917 3.74928C7.74917 3.6112 7.63725 3.49928 7.49917 3.49928C6.8278 3.49779 6.23717 3.94256 6.05318 4.58824C5.86919 5.23392 6.13659 5.92322 6.70791 6.27586C7.27923 6.62849 8.01526 6.55859 8.50996 6.10467C8.5644 6.63339 9.02394 7.02651 9.55471 6.99841C10.0855 6.97029 10.501 6.53087 10.4993 5.99934Z" fill="white"/>
</g>
<defs>
<clipPath id="clip0">
<rect width="15" height="15" fill="white"/>
</clipPath>
</defs>
</svg>
