<svg width="16" height="16" viewBox="0 0 16 16" fill="none" xmlns="http://www.w3.org/2000/svg">
<g clip-path="url(#clip0)">
<path d="M15.9978 6.11658C15.9961 6.0982 15.9924 6.08004 15.9868 6.06245C15.9832 6.04673 15.9781 6.03138 15.9716 6.01657C15.9642 6.0021 15.9552 5.98841 15.945 5.97576C15.9347 5.96072 15.9228 5.94688 15.9095 5.93441C15.9052 5.93069 15.9034 5.9256 15.8988 5.92188L13.3342 3.93006V1.8657C13.3342 1.42387 12.976 1.06566 12.5341 1.06566H9.64412L8.48697 0.167212C8.20111 -0.0557372 7.80025 -0.0557372 7.51439 0.167212L6.35699 1.06566H3.46696C3.02513 1.06566 2.66692 1.42384 2.66692 1.8657V3.93009L0.103075 5.92191C0.098544 5.92566 0.0966689 5.93072 0.0924187 5.93444C0.0791368 5.94688 0.0672299 5.96076 0.0569482 5.97579C0.0466976 5.98844 0.0377597 6.0021 0.0302906 6.0166C0.0238215 6.03138 0.0187587 6.04676 0.0151023 6.06248C0.0095395 6.07982 0.00588306 6.0977 0.00416422 6.11583C0.00416422 6.12142 0.000976562 6.12623 0.000976562 6.13183V15.1997C0.00135158 15.3693 0.0562294 15.5343 0.157516 15.6704C0.15911 15.6728 0.159391 15.6757 0.161235 15.6778C0.16311 15.68 0.16711 15.6824 0.169766 15.6853C0.319586 15.8824 0.552598 15.9987 0.800205 15.9997H15.2009C15.4495 15.999 15.6835 15.8822 15.8335 15.684C15.8356 15.6813 15.8388 15.6805 15.8407 15.6779C15.8426 15.6752 15.8428 15.6728 15.8444 15.6704C15.9457 15.5343 16.0006 15.3693 16.001 15.1997V6.13258C16.0009 6.12698 15.998 6.12217 15.9978 6.11658ZM7.84053 0.588014C7.93366 0.51401 8.06554 0.51401 8.15867 0.588014L8.77389 1.06563H7.22716L7.84053 0.588014ZM0.867396 15.4664L7.84056 10.0498C7.93375 9.97596 8.06554 9.97596 8.1587 10.0498L15.1337 15.4664H0.867396ZM15.4676 15.0506L8.48697 9.62901C8.20105 9.40624 7.80031 9.40624 7.51439 9.62901L0.533504 15.0506V6.53872L4.9036 9.93224C5.02004 10.0225 5.18761 10.0013 5.2779 9.88489C5.36819 9.76845 5.347 9.60088 5.23055 9.51059L0.79086 6.06323L2.66696 4.60528V6.66592C2.66696 6.81321 2.78637 6.93259 2.93363 6.93259C3.08091 6.93259 3.2003 6.81317 3.2003 6.66592V1.86567C3.2003 1.71838 3.31968 1.599 3.46696 1.599H12.5341C12.6814 1.599 12.8008 1.71838 12.8008 1.86567V6.66592C12.8008 6.81321 12.9201 6.93259 13.0674 6.93259C13.2147 6.93259 13.3341 6.81317 13.3341 6.66592V4.60528L15.2102 6.06323L10.7628 9.51675C10.6863 9.57472 10.6468 9.66935 10.6595 9.76451C10.6722 9.85967 10.735 9.94068 10.8241 9.97659C10.9131 10.0125 11.0146 9.9978 11.0897 9.93808L15.4675 6.53872V15.0506H15.4676Z" fill="#333333"/>
<path d="M11.1991 6.39969V5.33297C11.1991 3.56557 9.76638 2.13281 7.99898 2.13281C6.23158 2.13281 4.79883 3.56557 4.79883 5.33297C4.79883 7.10038 6.23158 8.53314 7.99898 8.53314C8.14627 8.53314 8.26565 8.41376 8.26565 8.26647C8.26565 8.11918 8.14627 7.9998 7.99898 7.9998C6.52616 7.9998 5.3322 6.80583 5.3322 5.33301C5.3322 3.86018 6.52616 2.66621 7.99898 2.66621C9.4718 2.66621 10.6658 3.86018 10.6658 5.33301V6.39972C10.6658 6.69429 10.427 6.93309 10.1324 6.93309C9.83782 6.93309 9.59903 6.69429 9.59903 6.39972V5.33301C9.59903 5.18572 9.47965 5.06634 9.33236 5.06634C9.18507 5.06634 9.06569 5.18572 9.06569 5.33301C9.06569 5.92213 8.58811 6.39972 7.99898 6.39972C7.40986 6.39972 6.93228 5.92213 6.93228 5.33301C6.93228 4.74388 7.40986 4.2663 7.99898 4.2663C8.14627 4.2663 8.26565 4.14691 8.26565 3.99963C8.26565 3.85234 8.14627 3.73296 7.99898 3.73296C7.28285 3.73136 6.65286 4.20579 6.4566 4.89452C6.26034 5.58324 6.54557 6.31849 7.15497 6.69464C7.76438 7.07078 8.54948 6.99622 9.07716 6.51203C9.13523 7.076 9.62541 7.49533 10.1916 7.46536C10.7577 7.43536 11.2009 6.96665 11.1991 6.39969Z" fill="#333333"/>
</g>
<defs>
<clipPath id="clip0">
<rect width="16" height="16" fill="white"/>
</clipPath>
</defs>
</svg>
