<svg width="100" height="100" viewBox="0 0 100 100" fill="none" xmlns="http://www.w3.org/2000/svg">
<path d="M95 0H5C2.23984 0.00292969 0.00292969 2.23984 0 5V95C0.00292969 97.7602 2.23984 99.9971 5 100H95C97.7602 99.9971 99.9971 97.7602 100 95V5C99.9971 2.23984 97.7602 0.00292969 95 0ZM96.6666 95C96.6654 95.9199 95.9199 96.6654 95 96.6666H5C4.08008 96.6654 3.33457 95.9199 3.3334 95V5C3.33457 4.08008 4.08008 3.33457 5 3.3334H95C95.9199 3.33457 96.6654 4.08008 96.6666 5V95Z" fill="#9D9309"/>
<path d="M91.6658 6.66663H8.33262C7.41211 6.66663 6.66602 7.41272 6.66602 8.33323V91.6666C6.66602 92.5871 7.41211 93.3332 8.33262 93.3332H91.666C92.5865 93.3332 93.3326 92.5871 93.3326 91.6666V8.33342C93.3326 7.41292 92.5863 6.66663 91.6658 6.66663ZM58.3326 10H76.666V13.3334H58.3326V10ZM66.6658 63.3334H49.9992V56.6668H66.6658V63.3334ZM76.6658 66.6666V73.3332H61.6975C57.7553 71.4658 53.9963 69.234 50.4697 66.6666H76.6658ZM37.3324 53.3334C37.1082 53.3334 36.8865 53.3787 36.6803 53.4668C34.9699 51.2959 33.3904 49.0252 31.9498 46.6668H54.9992V53.3334H37.3324ZM46.6658 56.6666V63.7262C44.0775 61.5508 41.6494 59.1914 39.4006 56.6666H46.6658ZM33.3326 26.6666V33.3332H25.6068C24.8393 31.1463 24.1854 28.9211 23.6475 26.6666H33.3326ZM22.9566 23.3334C22.5385 21.1135 22.1887 18.8854 21.9789 16.6668H26.666V23.3334H22.9566ZM46.6658 23.3334H29.9992V16.6666H46.6658V23.3334ZM54.9992 26.6666V33.3332H36.6658V26.6666H54.9992ZM46.6658 36.6666V43.3332H30.0992C30.074 43.3332 30.0533 43.3463 30.0285 43.3475C28.8596 41.1782 27.8072 38.9481 26.876 36.6666H46.6658ZM58.3326 53.3334V46.6668H76.666V53.3334H58.3326ZM66.6658 43.3334H49.9992V36.6668H66.6658V43.3334ZM58.3326 33.3334V26.6668H76.666V33.3334H58.3326ZM66.6658 23.3334H49.9992V16.6666H66.6658V23.3334ZM36.6658 10H54.9992V13.3334H36.6658V10ZM33.3326 10V13.3334H21.7436C21.6928 12.2256 21.666 11.1121 21.666 10H33.3326ZM89.9992 90H9.99922V10H18.3326C18.3326 12.2844 18.4359 14.5785 18.6402 16.8205C18.9615 20.2658 19.5133 23.6858 20.2914 27.0574C20.3094 27.1348 20.3332 27.2106 20.3621 27.2844C21.1699 30.7018 22.2299 34.0547 23.5334 37.3153C24.9482 40.8594 26.6369 44.2879 28.5838 47.5699C30.7389 51.2006 33.209 54.635 35.9658 57.8328C39.2006 61.6039 42.807 65.0391 46.7309 68.0867C59.1463 77.6711 74.3174 83.0035 89.999 83.2951V90H89.9992ZM89.9992 79.9619C83.274 79.817 76.6045 78.7073 70.1949 76.6666H89.9992V79.9619ZM89.9992 73.3334H79.9992V66.6668H89.9992V73.3334ZM89.9992 63.3334H69.9992V56.6668H89.9992V63.3334ZM89.9992 53.3334H79.9992V46.6668H89.9992V53.3334ZM89.9992 43.3334H69.9992V36.6668H89.9992V43.3334ZM89.9992 33.3334H79.9992V26.6668H89.9992V33.3334ZM89.9992 23.3334H69.9992V16.6666H89.9992V23.3334ZM89.9992 13.3334H79.9992V10H89.9992V13.3334Z" fill="black"/>
</svg>
