<svg width="30" height="30" viewBox="0 0 30 30" fill="none" xmlns="http://www.w3.org/2000/svg">
<path d="M15 1.875C7.75195 1.875 1.875 7.75195 1.875 15C1.875 22.248 7.75195 28.125 15 28.125C22.248 28.125 28.125 22.248 28.125 15C28.125 7.75195 22.248 1.875 15 1.875ZM15 25.8984C8.98242 25.8984 4.10156 21.0176 4.10156 15C4.10156 8.98242 8.98242 4.10156 15 4.10156C21.0176 4.10156 25.8984 8.98242 25.8984 15C25.8984 21.0176 21.0176 25.8984 15 25.8984Z" fill="white"/>
<path d="M21.0762 14.6221L12.4014 8.32328C12.3318 8.27228 12.2494 8.2416 12.1634 8.23466C12.0775 8.22773 11.9912 8.2448 11.9144 8.28399C11.8375 8.32317 11.7731 8.38293 11.7282 8.45659C11.6833 8.53026 11.6597 8.61495 11.6602 8.70121V21.2989C11.6602 21.6827 12.0938 21.8995 12.4014 21.6768L21.0762 15.378C21.1361 15.3348 21.1848 15.2781 21.2185 15.2123C21.2521 15.1466 21.2697 15.0739 21.2697 15.0001C21.2697 14.9262 21.2521 14.8535 21.2185 14.7878C21.1848 14.7221 21.1361 14.6653 21.0762 14.6221ZM13.5293 18.5479V11.4522L18.4131 15.0001L13.5293 18.5479Z" fill="white"/>
</svg>
