<svg width="100" height="100" viewBox="0 0 100 100" fill="none" xmlns="http://www.w3.org/2000/svg">
<path d="M7.81317 15.4031V48.4375H10.9382V15.4031C12.012 15.1223 12.9917 14.5607 13.7765 13.7758C14.5613 12.991 15.123 12.0113 15.4038 10.9375H84.5975C84.8783 12.0113 85.44 12.991 86.2248 13.7758C87.0097 14.5607 87.9893 15.1223 89.0632 15.4031V84.5969C87.9893 84.8777 87.0097 85.4393 86.2248 86.2242C85.44 87.009 84.8783 87.9887 84.5975 89.0625H51.5632V92.1875H84.5975C84.8708 93.2537 85.4213 94.2287 86.1932 95.0134C86.9651 95.798 87.9309 96.3645 88.9925 96.6552C90.0541 96.9459 91.1737 96.9505 92.2377 96.6685C93.3017 96.3865 94.2721 95.828 95.0504 95.0497C95.8287 94.2714 96.3872 93.301 96.6692 92.237C96.9511 91.1731 96.9465 90.0534 96.6559 88.9918C96.3652 87.9302 95.7987 86.9644 95.014 86.1925C94.2294 85.4206 93.2544 84.8701 92.1882 84.5969V15.4031C93.2544 15.1299 94.2294 14.5794 95.014 13.8075C95.7987 13.0356 96.3652 12.0698 96.6559 11.0082C96.9465 9.94656 96.9511 8.82692 96.6692 7.76296C96.3872 6.69899 95.8287 5.72858 95.0504 4.95027C94.2721 4.17196 93.3017 3.61347 92.2377 3.3315C91.1737 3.04952 90.0541 3.05412 88.9925 3.34481C87.9309 3.63551 86.9651 4.20195 86.1932 4.98662C85.4213 5.77129 84.8708 6.74625 84.5975 7.81249H15.4038C15.1306 6.74625 14.58 5.77129 13.8082 4.98662C13.0363 4.20195 12.0705 3.63551 11.0088 3.34481C9.94723 3.05412 8.8276 3.04952 7.76363 3.3315C6.69966 3.61347 5.72926 4.17196 4.95094 4.95027C4.17263 5.72858 3.61414 6.69899 3.33217 7.76296C3.0502 8.82692 3.05479 9.94656 3.34548 11.0082C3.63618 12.0698 4.20262 13.0356 4.98729 13.8075C5.77196 14.5794 6.74692 15.1299 7.81317 15.4031ZM93.7507 90.625C93.7507 91.2431 93.5674 91.8473 93.224 92.3612C92.8806 92.8751 92.3926 93.2756 91.8215 93.5121C91.2505 93.7486 90.6222 93.8105 90.016 93.69C89.4098 93.5694 88.853 93.2718 88.416 92.8347C87.9789 92.3977 87.6813 91.8409 87.5607 91.2347C87.4401 90.6285 87.502 90.0001 87.7385 89.4291C87.9751 88.8581 88.3756 88.37 88.8895 88.0267C89.4034 87.6833 90.0076 87.5 90.6257 87.5C91.4545 87.5 92.2493 87.8292 92.8354 88.4153C93.4214 89.0013 93.7507 89.7962 93.7507 90.625ZM90.6257 6.24999C91.2437 6.24999 91.8479 6.43327 92.3618 6.77665C92.8757 7.12003 93.2763 7.60809 93.5128 8.17911C93.7493 8.75013 93.8112 9.37846 93.6906 9.98465C93.57 10.5908 93.2724 11.1477 92.8354 11.5847C92.3983 12.0217 91.8415 12.3194 91.2353 12.4399C90.6291 12.5605 90.0008 12.4986 89.4298 12.2621C88.8588 12.0256 88.3707 11.6251 88.0273 11.1112C87.6839 10.5972 87.5007 9.99306 87.5007 9.37499C87.5007 8.54619 87.8299 7.75134 88.416 7.16529C89.002 6.57923 89.7969 6.24999 90.6257 6.24999ZM9.37567 6.24999C9.99373 6.24999 10.5979 6.43327 11.1118 6.77665C11.6257 7.12003 12.0263 7.60809 12.2628 8.17911C12.4993 8.75013 12.5612 9.37846 12.4406 9.98465C12.32 10.5908 12.0224 11.1477 11.5854 11.5847C11.1483 12.0217 10.5915 12.3194 9.98532 12.4399C9.37913 12.5605 8.7508 12.4986 8.17978 12.2621C7.60876 12.0256 7.1207 11.6251 6.77732 11.1112C6.43394 10.5972 6.25067 9.99306 6.25067 9.37499C6.25067 8.54619 6.57991 7.75134 7.16596 7.16529C7.75201 6.57923 8.54686 6.24999 9.37567 6.24999Z" fill="#9D9309"/>
<path d="M4.6875 96.875H48.4375C48.7465 96.875 49.0485 96.7833 49.3054 96.6116C49.5623 96.4399 49.7625 96.1959 49.8807 95.9104C49.999 95.625 50.0299 95.3108 49.9697 95.0078C49.9094 94.7047 49.7606 94.4264 49.5422 94.2078L5.79219 50.4578C5.57367 50.2394 5.29529 50.0906 4.99224 50.0304C4.68919 49.9701 4.37507 50.0011 4.0896 50.1193C3.80413 50.2375 3.56013 50.4377 3.38844 50.6946C3.21674 50.9515 3.12507 51.2535 3.125 51.5625V95.3125C3.125 95.7269 3.28962 96.1244 3.58265 96.4174C3.87567 96.7104 4.2731 96.875 4.6875 96.875ZM6.25 55.3344L44.6656 93.75H6.25V55.3344Z" fill="black"/>
<path d="M30.6812 86.3953L13.6047 69.3187C13.3862 69.1003 13.1078 68.9515 12.8047 68.8913C12.5017 68.831 12.1876 68.862 11.9021 68.9802C11.6166 69.0984 11.3726 69.2986 11.2009 69.5555C11.0292 69.8124 10.9376 70.1144 10.9375 70.4234V87.5C10.9375 87.9144 11.1021 88.3118 11.3951 88.6049C11.6882 88.8979 12.0856 89.0625 12.5 89.0625H29.5766C29.8855 89.0624 30.1876 88.9708 30.4445 88.7991C30.7014 88.6274 30.9016 88.3834 31.0198 88.0979C31.138 87.8124 31.169 87.4983 31.1087 87.1953C31.0485 86.8922 30.8997 86.6138 30.6812 86.3953ZM14.0625 85.9375V74.1953L25.8047 85.9375H14.0625Z" fill="black"/>
<path d="M50 75V81.25H42.1875V84.375H82.8125C83.2269 84.375 83.6243 84.2104 83.9174 83.9174C84.2104 83.6243 84.375 83.2269 84.375 82.8125V70.3125C84.375 69.8981 84.2104 69.5007 83.9174 69.2076C83.6243 68.9146 83.2269 68.75 82.8125 68.75H31.25V71.875H81.25V81.25H78.125V75H75V81.25H71.875V78.125H68.75V81.25H65.625V78.125H62.5V81.25H59.375V78.125H56.25V81.25H53.125V75H50Z" fill="black"/>
<path d="M81.25 18.75C81.25 18.3356 81.0854 17.9382 80.7924 17.6451C80.4993 17.3521 80.1019 17.1875 79.6875 17.1875H20.3125C19.8981 17.1875 19.5007 17.3521 19.2076 17.6451C18.9146 17.9382 18.75 18.3356 18.75 18.75V28.125C18.75 28.5394 18.9146 28.9368 19.2076 29.2299C19.5007 29.5229 19.8981 29.6875 20.3125 29.6875H79.6875C80.1019 29.6875 80.4993 29.5229 80.7924 29.2299C81.0854 28.9368 81.25 28.5394 81.25 28.125V18.75ZM78.125 26.5625H21.875V20.3125H78.125V26.5625Z" fill="black"/>
<path d="M18.75 42.1875C18.75 42.6019 18.9146 42.9993 19.2076 43.2924C19.5007 43.5854 19.8981 43.75 20.3125 43.75H35.9375C36.3519 43.75 36.7493 43.5854 37.0424 43.2924C37.3354 42.9993 37.5 42.6019 37.5 42.1875V34.375C37.5 33.9606 37.3354 33.5632 37.0424 33.2701C36.7493 32.9771 36.3519 32.8125 35.9375 32.8125H20.3125C19.8981 32.8125 19.5007 32.9771 19.2076 33.2701C18.9146 33.5632 18.75 33.9606 18.75 34.375V42.1875ZM21.875 35.9375H34.375V40.625H21.875V35.9375Z" fill="black"/>
<path d="M59.375 42.1875V34.375C59.375 33.9606 59.2104 33.5632 58.9174 33.2701C58.6243 32.9771 58.2269 32.8125 57.8125 32.8125H42.1875C41.7731 32.8125 41.3757 32.9771 41.0826 33.2701C40.7896 33.5632 40.625 33.9606 40.625 34.375V42.1875C40.625 42.6019 40.7896 42.9993 41.0826 43.2924C41.3757 43.5854 41.7731 43.75 42.1875 43.75H57.8125C58.2269 43.75 58.6243 43.5854 58.9174 43.2924C59.2104 42.9993 59.375 42.6019 59.375 42.1875ZM56.25 40.625H43.75V35.9375H56.25V40.625Z" fill="black"/>
<path d="M81.25 42.1875V34.375C81.25 33.9606 81.0854 33.5632 80.7924 33.2701C80.4993 32.9771 80.1019 32.8125 79.6875 32.8125H64.0625C63.6481 32.8125 63.2507 32.9771 62.9576 33.2701C62.6646 33.5632 62.5 33.9606 62.5 34.375V42.1875C62.5 42.6019 62.6646 42.9993 62.9576 43.2924C63.2507 43.5854 63.6481 43.75 64.0625 43.75H79.6875C80.1019 43.75 80.4993 43.5854 80.7924 43.2924C81.0854 42.9993 81.25 42.6019 81.25 42.1875ZM78.125 40.625H65.625V35.9375H78.125V40.625Z" fill="black"/>
<path d="M20.3125 46.875H35.9375V50H20.3125V46.875Z" fill="black"/>
<path d="M20.3125 53.125H35.9375V56.25H20.3125V53.125Z" fill="black"/>
<path d="M20.3125 59.375H35.9375V62.5H20.3125V59.375Z" fill="black"/>
<path d="M42.1875 46.875H57.8125V50H42.1875V46.875Z" fill="black"/>
<path d="M42.1875 53.125H57.8125V56.25H42.1875V53.125Z" fill="black"/>
<path d="M42.1875 59.375H57.8125V62.5H42.1875V59.375Z" fill="black"/>
<path d="M64.0625 46.875H79.6875V50H64.0625V46.875Z" fill="black"/>
<path d="M64.0625 53.125H79.6875V56.25H64.0625V53.125Z" fill="black"/>
<path d="M64.0625 59.375H79.6875V62.5H64.0625V59.375Z" fill="black"/>
</svg>
