<svg width="100" height="100" viewBox="0 0 100 100" fill="none" xmlns="http://www.w3.org/2000/svg">
<path d="M40.625 87.5H40.4305L34.3854 42.1619L35.6016 29.9989L39.5202 33.9173C39.6714 34.0686 39.8522 34.1872 40.0512 34.2658C40.2502 34.3444 40.4632 34.3813 40.677 34.3741C40.8908 34.367 41.1009 34.3161 41.2942 34.2244C41.4876 34.1328 41.66 34.0024 41.8009 33.8414L52.7384 21.3414C52.7535 21.3242 52.7682 21.3065 52.7826 21.2886L59.0326 13.4761C59.1679 13.3069 59.2666 13.1115 59.3224 12.9022C59.3781 12.6929 59.3897 12.4743 59.3565 12.2603C59.3233 12.0463 59.2459 11.8415 59.1293 11.6589C59.0127 11.4764 58.8594 11.3201 58.6792 11.2L53.9917 8.07495C53.6912 7.87451 53.3305 7.78442 52.971 7.82002C52.6116 7.85561 52.2755 8.01469 52.0202 8.27017L49.3528 10.9375H46.875C46.6698 10.9375 46.4666 10.9779 46.2771 11.0564C46.0875 11.1349 45.9152 11.25 45.7701 11.3951C45.6251 11.5402 45.51 11.7125 45.4314 11.9021C45.3529 12.0916 45.3125 12.2948 45.3125 12.5V16.5403L41.053 20.7997L38.8975 16.4887C38.7967 16.2871 38.6535 16.1097 38.4777 15.9687C38.3019 15.8276 38.0977 15.7263 37.879 15.6716L34.375 14.7956V13.1472L35.4798 12.0423C35.7117 11.8105 35.8648 11.5115 35.9173 11.1878C35.9699 10.8641 35.9192 10.5321 35.7725 10.2387L34.375 7.44362V6.25H35.9375V3.125H25C24.6605 3.125 24.3301 3.23561 24.0591 3.44008C23.788 3.64456 23.5909 3.93177 23.4976 4.25825L20.599 14.4033L12.0059 17.2677C11.8112 17.3326 11.6313 17.4352 11.4763 17.5696C11.3213 17.7041 11.1942 17.8677 11.1025 18.0512L3.29 33.6762C3.17636 33.9035 3.11985 34.155 3.12537 34.409C3.13089 34.663 3.19826 34.9118 3.32166 35.1338L10.9375 48.8424V50H7.81251C7.60732 50 7.40413 50.0404 7.21456 50.1189C7.02499 50.1974 6.85274 50.3125 6.70764 50.4576C6.56255 50.6027 6.44746 50.775 6.36894 50.9646C6.29042 51.1541 6.25 51.3573 6.25001 51.5625V65.625C6.25 65.8302 6.29042 66.0334 6.36894 66.2229C6.44746 66.4125 6.56255 66.5848 6.70764 66.7299C6.85274 66.875 7.02499 66.9901 7.21456 67.0686C7.40413 67.1471 7.60732 67.1875 7.81251 67.1875H12.2779L9.38874 88.856C9.37959 88.9245 9.375 88.9934 9.37501 89.0625V95.3125C9.375 95.5177 9.41542 95.7209 9.49394 95.9104C9.57246 96.1 9.68755 96.2723 9.83264 96.4174C9.97774 96.5625 10.15 96.6776 10.3396 96.7561C10.5291 96.8346 10.7323 96.875 10.9375 96.875H23.4375C23.6427 96.875 23.8459 96.8346 24.0355 96.7561C24.225 96.6776 24.3973 96.5625 24.5424 96.4174C24.6875 96.2723 24.8026 96.1 24.8811 95.9104C24.9596 95.7209 25 95.5177 25 95.3125V92.1875C24.9985 91.016 24.5589 89.8874 23.7676 89.0236C22.9763 88.1598 21.8905 87.6231 20.7236 87.5191L25.4107 67.8333L29.6875 89.2172V95.3125C29.6875 95.5177 29.7279 95.7209 29.8064 95.9104C29.885 96.1 30.0001 96.2723 30.1451 96.4174C30.2902 96.5625 30.4625 96.6776 30.6521 96.7561C30.8416 96.8346 31.0448 96.875 31.25 96.875H43.75C43.9552 96.875 44.1584 96.8346 44.348 96.7561C44.5375 96.6776 44.7098 96.5625 44.8549 96.4174C45 96.2723 45.1151 96.1 45.1936 95.9104C45.2721 95.7209 45.3125 95.5177 45.3125 95.3125V92.1875C45.3111 90.9447 44.8168 89.7533 43.938 88.8745C43.0593 87.9957 41.8678 87.5014 40.625 87.5ZM50 14.0625C50.2052 14.0625 50.4084 14.0221 50.598 13.9436C50.7875 13.865 50.9598 13.7499 51.1048 13.6048L53.3241 11.3856L55.5278 12.8548L51.2373 18.2178L48.4375 16.3513V14.0625H50ZM26.1786 6.25H31.25V7.8125C31.25 8.05507 31.3065 8.29431 31.415 8.51126L32.4739 10.629L31.7077 11.3952C31.5626 11.5402 31.4475 11.7125 31.3689 11.9021C31.2904 12.0916 31.25 12.2948 31.25 12.5V14.0625H30.3347L29.2298 12.9577C29.0848 12.8124 28.9125 12.6972 28.7229 12.6186C28.5333 12.5399 28.3301 12.4994 28.1248 12.4993C27.9195 12.4993 27.7163 12.5397 27.5266 12.6182C27.337 12.6967 27.1646 12.8118 27.0195 12.957C26.8743 13.1021 26.7592 13.2744 26.6807 13.4641C26.6022 13.6538 26.5618 13.857 26.5618 14.0623C26.5619 14.2676 26.6024 14.4708 26.6811 14.6604C26.7597 14.85 26.8749 15.0223 27.0202 15.1673L28.5827 16.7298C28.8032 16.9504 29.0848 17.0999 29.391 17.1591L27.8822 19.4224L23.63 15.1703L26.1786 6.25ZM6.45362 34.3367L13.6081 20.0276L21.453 17.4127L26.5625 22.5222V31.25H29.6875V22.348L32.5501 18.0542C32.6402 17.918 32.7083 17.7685 32.752 17.6111L36.4239 18.529L39.2275 24.1363C39.3382 24.3577 39.5 24.5496 39.6994 24.6963C39.8989 24.843 40.1304 24.9401 40.3747 24.9798C40.6191 25.0194 40.8694 25.0004 41.105 24.9244C41.3406 24.8483 41.5548 24.7174 41.7298 24.5423L47.0741 19.1981L49.2135 20.6243L40.5489 30.5266L35.4798 25.4577C35.2707 25.2485 35.0065 25.103 34.7179 25.0381C34.4293 24.9732 34.1283 24.9916 33.8497 25.091C33.5711 25.1904 33.3265 25.3669 33.1443 25.5999C32.962 25.8328 32.8497 26.1127 32.8202 26.4071L31.3985 40.625H17.871L14.3107 34.3943L18.5273 27.3664C18.6329 27.1904 18.7028 26.9954 18.733 26.7924C18.7632 26.5895 18.7531 26.3826 18.7033 26.1835C18.6535 25.9845 18.5651 25.7972 18.4429 25.6323C18.3207 25.4674 18.1673 25.3282 17.9914 25.2227C17.8154 25.1171 17.6204 25.0472 17.4174 25.017C17.2145 24.9869 17.0076 24.9969 16.8085 25.0467C16.6095 25.0965 16.4222 25.185 16.2573 25.3071C16.0924 25.4293 15.9533 25.5827 15.8477 25.7586L11.1602 33.5711C11.0174 33.8091 10.9406 34.0809 10.9376 34.3584C10.9347 34.636 11.0057 34.9093 11.1434 35.1502L16.5739 44.6537L13.1394 46.3709L6.45362 34.3367ZM19.3468 50H18.75C18.5448 50 18.3416 50.0404 18.1521 50.1189C17.9625 50.1974 17.7902 50.3125 17.6451 50.4576C17.5001 50.6027 17.385 50.775 17.3064 50.9646C17.2279 51.1541 17.1875 51.3573 17.1875 51.5625V54.6875H14.0625V49.4032L18.0513 47.4088L19.3468 50ZM9.37501 53.125H10.9375V56.25C10.9375 56.4552 10.9779 56.6584 11.0564 56.8479C11.135 57.0375 11.2501 57.2098 11.3951 57.3549C11.5402 57.5 11.7125 57.6151 11.9021 57.6936C12.0916 57.7721 12.2948 57.8125 12.5 57.8125H18.75C18.9552 57.8125 19.1584 57.7721 19.348 57.6936C19.5375 57.6151 19.7098 57.5 19.8549 57.3549C20 57.2098 20.1151 57.0375 20.1936 56.8479C20.2721 56.6584 20.3125 56.4552 20.3125 56.25V53.125H25V64.0625H9.37501V53.125ZM22.3522 67.1875L17.5159 87.5H12.7221L15.4305 67.1875H22.3522ZM21.875 92.1875V93.75H12.5V90.625H20.3125C20.7268 90.6255 21.1239 90.7902 21.4168 91.0832C21.7098 91.3761 21.8745 91.7732 21.875 92.1875ZM28.125 65.4702V51.5625C28.125 51.3573 28.0846 51.1541 28.0061 50.9646C27.9276 50.775 27.8125 50.6027 27.6674 50.4576C27.5223 50.3125 27.35 50.1974 27.1605 50.1189C26.9709 50.0404 26.7677 50 26.5625 50H22.8407L20.1475 44.6137C20.1345 44.5876 20.1192 44.5633 20.1049 44.5382L20.1066 44.5373L19.6568 43.75H31.4446L37.2779 87.5H32.531L28.125 65.4702ZM42.1875 93.75H32.8125V90.625H40.625C41.0393 90.6255 41.4364 90.7902 41.7293 91.0832C42.0223 91.3761 42.187 91.7732 42.1875 92.1875V93.75Z" fill="black"/>
<path d="M95.3131 54.6875H90.1264L90.6003 51.8442L93.7203 36.2439C93.7836 35.927 93.7472 35.5983 93.616 35.303L87.366 21.2405C87.2696 21.0235 87.125 20.8314 86.9433 20.6787C86.7615 20.526 86.5474 20.4167 86.3171 20.3592L84.9788 20.0246C85.5083 19.3301 85.8332 18.5014 85.9167 17.632C86.0002 16.7626 85.8389 15.8872 85.4512 15.1047C85.0634 14.3221 84.4646 13.6635 83.7224 13.2032C82.9801 12.743 82.124 12.4994 81.2506 12.5H79.6881C79.6881 10.8765 79.0563 9.31665 77.9265 8.15071C76.7967 6.98476 75.2575 6.30421 73.6348 6.2531C72.012 6.20199 70.4331 6.78434 69.2321 7.87688C68.0312 8.96942 67.3025 10.4864 67.2003 12.1067L65.7906 14.9263C65.6439 15.2196 65.5933 15.5516 65.6458 15.8753C65.6983 16.199 65.8514 16.498 66.0833 16.7299L67.4665 18.1131L68.6291 20.4383L63.2593 23.6602C62.9664 23.8359 62.7392 24.1027 62.6124 24.4197L59.7565 31.5594L51.5631 34.2905L47.3697 32.8927C47.1348 32.8144 46.8847 32.7931 46.64 32.8304C46.3952 32.8678 46.1629 32.9627 45.962 33.1075C45.7612 33.2522 45.5976 33.4427 45.4848 33.663C45.372 33.8834 45.3131 34.1275 45.3131 34.375V36.5976L42.7094 38.0997C42.5243 38.2065 42.3631 38.3501 42.2357 38.5217C42.1083 38.6933 42.0175 38.8892 41.9688 39.0973C41.9201 39.3054 41.9147 39.5212 41.9527 39.7315C41.9908 39.9418 42.0716 40.142 42.1901 40.3199L45.3151 45.0074C45.5311 45.3313 45.8602 45.5629 46.238 45.6569C46.6158 45.7509 47.0151 45.7005 47.3576 45.5155L53.6108 42.1388L64.0631 40.8242V50C64.0631 50.2052 64.1035 50.4084 64.1821 50.598C64.2606 50.7876 64.3757 50.9598 64.5208 51.1049C64.6658 51.25 64.8381 51.3651 65.0277 51.4436C65.2172 51.5221 65.4204 51.5625 65.6256 51.5625H66.3745C66.2645 53.0288 66.2745 54.5016 66.4043 55.9662L68.2534 76.6631L68.6869 87.5H67.1881C65.9453 87.5014 64.7539 87.9957 63.8751 88.8745C62.9963 89.7533 62.502 90.9448 62.5006 92.1875V95.3125C62.5006 95.5177 62.541 95.7209 62.6196 95.9105C62.6981 96.1001 62.8132 96.2723 62.9583 96.4174C63.1033 96.5625 63.2756 96.6776 63.4652 96.7561C63.6547 96.8346 63.8579 96.875 64.0631 96.875H85.9381C86.1433 96.875 86.3465 96.8346 86.5361 96.7561C86.7256 96.6776 86.8979 96.5625 87.043 96.4174C87.1881 96.2723 87.3032 96.1001 87.3817 95.9105C87.4602 95.7209 87.5006 95.5177 87.5006 95.3125V76.6112L87.7966 71.875H95.3131C95.5183 71.875 95.7215 71.8346 95.9111 71.7561C96.1007 71.6776 96.2729 71.5625 96.418 71.4174C96.5631 71.2723 96.6782 71.1001 96.7567 70.9105C96.8352 70.7209 96.8756 70.5177 96.8756 70.3125V56.25C96.8756 56.0448 96.8352 55.8417 96.7567 55.6521C96.6782 55.4625 96.5631 55.2903 96.418 55.1452C96.2729 55.0001 96.1007 54.885 95.9111 54.8065C95.7215 54.7279 95.5183 54.6875 95.3131 54.6875ZM84.0807 55.3364C83.9004 55.0861 83.65 54.8949 83.3611 54.7868L85.0228 53.125H87.2187L86.177 59.375H83.4185L84.2954 56.7441C84.3737 56.5093 84.3951 56.2591 84.3578 56.0144C84.3204 55.7696 84.2254 55.5372 84.0807 55.3364ZM90.5586 36.1182L87.7822 50H85.9381V35.9375C85.9381 35.7696 85.911 35.6028 85.8579 35.4434L84.2954 30.7559C84.2306 30.5612 84.1281 30.3811 83.9936 30.226C83.8592 30.0709 83.6956 29.9438 83.512 29.8519C83.3284 29.7601 83.1286 29.7053 82.9238 29.6907C82.7191 29.6761 82.5135 29.7021 82.3188 29.767C82.124 29.8319 81.944 29.9345 81.789 30.069C81.6339 30.2035 81.5069 30.3673 81.4152 30.5509C81.3234 30.7345 81.2687 30.9344 81.2543 31.1391C81.2398 31.3439 81.2658 31.5494 81.3308 31.7441L82.8131 36.1911V48.4375H79.4492L78.191 40.8884C77.6937 37.9538 77.7834 34.9497 78.4549 32.0499C79.1263 29.1502 80.3663 26.4124 82.1029 23.995L82.9927 22.7493L84.8198 23.2061L90.5586 36.1182ZM75.1086 41.4022L75.7603 45.3125H72.6115L72.0964 42.4795C71.0907 36.9923 71.1148 31.3659 72.1674 25.8876C72.9409 26.3129 73.8317 26.4755 74.7057 26.351C75.5796 26.2264 76.3895 25.8214 77.0134 25.1969L78.6222 23.5881C75.3129 28.897 74.0629 35.2343 75.1086 41.4022H75.1086ZM69.6995 14.0961L72.3333 16.7299C72.4784 16.875 72.6506 16.9901 72.8402 17.0686C73.0297 17.1471 73.2329 17.1875 73.4381 17.1875H76.5631C76.5631 17.4301 76.6196 17.6693 76.7281 17.8863L77.787 20.004L74.8038 22.9872C74.697 23.0947 74.566 23.175 74.4218 23.2216C74.2776 23.2681 74.1243 23.2795 73.9748 23.2547C73.7706 23.2213 73.5825 23.1232 73.4381 22.9749V21.875C73.8525 21.875 74.25 21.7104 74.543 21.4174C74.836 21.1244 75.0006 20.7269 75.0006 20.3125C75.0006 19.8981 74.836 19.5007 74.543 19.2077C74.25 18.9146 73.8525 18.75 73.4381 18.75H71.2788L70.1481 16.4888C70.073 16.3386 69.9742 16.2014 69.8555 16.0827L69.0893 15.3165L69.6995 14.0961ZM81.2506 15.625C81.665 15.625 82.0625 15.7897 82.3555 16.0827C82.6485 16.3757 82.8131 16.7731 82.8131 17.1875C82.8131 17.6019 82.6485 17.9994 82.3555 18.2924C82.0625 18.5854 81.665 18.75 81.2506 18.75H80.6538L79.6881 16.8186V15.625H81.2506ZM73.4381 9.37503C74.2666 9.37598 75.0609 9.70552 75.6468 10.2914C76.2326 10.8772 76.5622 11.6715 76.5631 12.5V14.0625H74.0853L70.8208 10.798C71.104 10.3616 71.4918 10.0028 71.9489 9.75434C72.4059 9.50583 72.9179 9.37544 73.4381 9.37503ZM47.1255 42.0893L45.715 39.9735L47.6564 38.8535C47.894 38.7164 48.0914 38.5191 48.2286 38.2815C48.3659 38.0439 48.4381 37.7744 48.4381 37.5V36.5429L50.3279 37.1728L51.2282 39.8739L47.1255 42.0893ZM64.0631 32.8125V37.6746L54.2025 38.9148L53.5395 36.9257L61.4322 34.2948C61.6476 34.223 61.8448 34.1051 62.01 33.9494C62.1752 33.7936 62.3045 33.6037 62.3889 33.3928L65.3183 26.0691L69.4567 23.586C67.9879 29.9728 67.8399 36.5924 69.0217 43.0385L70.0035 48.4375H67.1881V32.8125C67.1881 32.3981 67.0235 32.0007 66.7305 31.7077C66.4375 31.4146 66.04 31.25 65.6256 31.25C65.2112 31.25 64.8138 31.4146 64.5208 31.7077C64.2277 32.0007 64.0631 32.3981 64.0631 32.8125ZM71.4394 78.125H74.0433L73.5225 87.5H71.8144L71.4394 78.125ZM77.8437 78.125L79.4062 87.5H78.1256C77.6201 87.5 77.118 87.5821 76.6388 87.7431L77.1732 78.125H77.8437ZM65.6256 92.1875C65.6261 91.7733 65.7909 91.3761 66.0838 91.0832C66.3767 90.7903 66.7739 90.6255 67.1881 90.625H73.4381V93.75H65.6256V92.1875ZM84.3756 93.75H76.5631V92.1875C76.5636 91.7733 76.7284 91.3761 77.0213 91.0832C77.3142 90.7903 77.7114 90.6255 78.1256 90.625H84.3756V93.75ZM82.5743 87.5L81.0118 78.125H84.3756V87.5H82.5743ZM84.4702 75H71.2422L69.5169 55.6881C69.3944 54.3158 69.3911 52.9354 69.5068 51.5625H71.8756C72.1045 51.5625 72.3306 51.5123 72.5379 51.4153C72.7451 51.3183 72.9286 51.1769 73.0752 51.0012C73.2219 50.8255 73.3282 50.6197 73.3865 50.3984C73.4449 50.1771 73.4539 49.9457 73.4129 49.7205L73.1797 48.4375H76.2811L76.5844 50.257C76.6452 50.6218 76.8335 50.9532 77.1157 51.1923C77.3979 51.4313 77.7558 51.5625 78.1256 51.5625H82.1659L79.041 54.6875H76.5631C76.3579 54.6875 76.1548 54.7279 75.9652 54.8065C75.7756 54.885 75.6033 55.0001 75.4583 55.1452C75.3132 55.2903 75.1981 55.4625 75.1196 55.6521C75.041 55.8417 75.0006 56.0448 75.0006 56.25V70.3125C75.0006 70.5177 75.041 70.7209 75.1196 70.9105C75.1981 71.1001 75.3132 71.2723 75.4583 71.4174C75.6033 71.5625 75.7756 71.6776 75.9652 71.7561C76.1548 71.8346 76.3579 71.875 76.5631 71.875H84.6655L84.4702 75ZM93.7506 68.75H78.1256V57.8125H80.6452L79.7683 60.4434C79.69 60.6783 79.6687 60.9284 79.706 61.1732C79.7434 61.4179 79.8383 61.6503 79.9831 61.8511C80.1278 62.052 80.3183 62.2156 80.5386 62.3284C80.759 62.4412 81.003 62.5 81.2506 62.5H87.5006C87.8705 62.5 88.2284 62.3688 88.5106 62.1297C88.7928 61.8906 88.9811 61.5592 89.0419 61.1944L89.6055 57.8125H93.7506V68.75Z" fill="#9D9309"/>
</svg>
