<svg width="100" height="100" viewBox="0 0 100 100" fill="none" xmlns="http://www.w3.org/2000/svg">
<g clip-path="url(#clip0)">
<path d="M38.9984 17.9597C42.2547 17.9597 45.1416 20.031 46.1815 23.1141C46.4402 23.8808 47.271 24.2928 48.0378 24.0342C48.8045 23.7756 49.2157 22.9447 48.9571 22.178C47.5151 17.9024 43.5135 15.03 38.9984 15.03C33.2047 15.03 28.4912 19.7442 28.4912 25.538C28.4912 31.3317 33.2047 36.0452 38.9984 36.0452C43.5135 36.0452 47.5151 33.1727 48.9571 28.8972C49.2157 28.1312 48.8045 27.2996 48.0378 27.0417C47.271 26.7831 46.4402 27.1951 46.1815 27.9611C45.1416 31.0441 42.2547 33.1155 38.9984 33.1155C34.8206 33.1155 31.4209 29.7166 31.4209 25.538C31.4209 21.3593 34.8206 17.9597 38.9984 17.9597Z" fill="#9D9309"/>
<path d="M62.0614 25.5379C62.0614 18.0229 58.4489 11.3357 52.8687 7.12276C52.826 7.08232 52.781 7.04494 52.7337 7.00908C44.6183 0.984133 33.442 0.937594 25.264 7.00908C25.2159 7.04494 25.1709 7.08232 25.129 7.12276C19.5488 11.3365 15.9363 18.0229 15.9363 25.5379V29.2999H13.5491C11.9011 29.2999 10.5614 30.6404 10.5614 32.2876V41.2522C10.5614 42.8993 11.9011 44.2398 13.5491 44.2398H15.9363V82.1656C15.9363 82.9743 16.5917 83.6305 17.4011 83.6305C18.2099 83.6305 18.866 82.9743 18.866 82.1656V56.4545H22.1512V92.0739C22.1512 93.2489 21.1945 94.2048 20.0203 94.2048H18.866V88.025C18.866 87.2163 18.2099 86.5602 17.4011 86.5602C16.5917 86.5602 15.9363 87.2163 15.9363 88.025V94.2048H9.86328C9.0538 94.2048 8.39844 94.861 8.39844 95.6697C8.39844 96.4784 9.0538 97.1345 9.86328 97.1345H20.5086C20.7031 97.1345 20.8893 97.0964 21.0602 97.0269C23.3536 96.5463 25.0809 94.5085 25.0809 92.0739V56.4545H26.0598C26.606 56.4545 27.1073 56.1509 27.359 55.6664C29.6296 51.3077 34.0897 48.6008 38.9985 48.6008C51.7159 48.6008 62.0614 38.2546 62.0614 25.5379ZM27.6017 8.94924C34.4582 4.22358 43.538 4.22282 50.396 8.94924V11.4685C50.396 12.1757 49.9085 12.5015 49.6987 12.6091C49.4897 12.7159 48.9426 12.9203 48.372 12.5091C45.63 10.5331 42.389 9.4894 38.9992 9.4894C35.6095 9.4894 32.3678 10.5331 29.6257 12.5091C29.0558 12.9196 28.508 12.7159 28.2998 12.6091C28.0899 12.5015 27.6024 12.1757 27.6024 11.4685V8.94924H27.6017ZM13.5491 41.3101C13.517 41.3101 13.4911 41.2842 13.4911 41.2522V32.2876C13.4911 32.2556 13.517 32.2296 13.5491 32.2296H15.9363V41.3101H13.5491ZM38.9985 45.6711C33.2947 45.6711 28.0869 48.658 25.1999 53.5248H18.866V25.5379C18.866 20.0363 21.0839 15.0436 24.672 11.4059V11.4685C24.672 13.0569 25.5509 14.4928 26.9638 15.2168C27.5727 15.5281 28.2296 15.6822 28.8834 15.6822C29.7478 15.6822 30.6061 15.4136 31.3385 14.8864C33.5785 13.2721 36.2275 12.4191 38.9985 12.4191C41.7702 12.4191 44.4192 13.2721 46.6592 14.8864C47.9455 15.8127 49.6209 15.9401 51.0331 15.2168C52.4468 14.4928 53.3257 13.0569 53.3257 11.4685V11.4059C56.9138 15.0436 59.1317 20.0363 59.1317 25.5379C59.1317 36.6394 50.1 45.6711 38.9985 45.6711Z" fill="black"/>
<path d="M91.6879 13.9916C91.6879 13.9778 91.6879 13.9641 91.6871 13.9511V7.46233C91.6879 7.44859 91.6879 7.43562 91.6879 7.42189C91.6879 7.40816 91.6879 7.39519 91.6871 7.38145V1.26953C91.6871 0.460817 91.0317 -0.195312 90.2223 -0.195312H72.9508C72.1421 -0.195312 71.4859 0.460817 71.4859 1.26953V21.8575C71.4859 22.6662 72.1421 23.3223 72.9508 23.3223C73.7603 23.3223 74.4156 22.6662 74.4156 21.8575V2.73438H88.7574V5.95704H85.5103C84.7009 5.95704 84.0455 6.61317 84.0455 7.42189C84.0455 8.23061 84.7009 8.88674 85.5103 8.88674H88.7574V12.5267H85.5103C84.7009 12.5267 84.0455 13.1821 84.0455 13.9916C84.0455 14.8003 84.7009 15.4564 85.5103 15.4564H88.7574V19.0964H81.5865C80.7778 19.0964 80.1217 19.7525 80.1217 20.5613C80.1217 21.37 80.7778 22.0261 81.5865 22.0261H88.7574V25.6661H85.5103C84.7009 25.6661 84.0455 26.3215 84.0455 27.1309C84.0455 27.9397 84.7009 28.5958 85.5103 28.5958H88.7574V32.2358H85.5103C84.7009 32.2358 84.0455 32.8911 84.0455 33.7006C84.0455 34.5093 84.7009 35.1655 85.5103 35.1655H88.7574V38.8047H81.5865C80.7778 38.8047 80.1217 39.4608 80.1217 40.2696C80.1217 41.079 80.7778 41.7344 81.5865 41.7344H88.7574V45.3744H85.5103C84.7009 45.3744 84.0455 46.0305 84.0455 46.8392C84.0455 47.6487 84.7009 48.3041 85.5103 48.3041H88.7574V51.9441H85.5103C84.7009 51.9441 84.0455 52.6002 84.0455 53.4089C84.0455 54.2184 84.7009 54.8738 85.5103 54.8738H88.7574V58.5138H81.5865C80.7778 58.5138 80.1217 59.1699 80.1217 59.9786C80.1217 60.7873 80.7778 61.4435 81.5865 61.4435H88.7574V65.0834H85.5103C84.7009 65.0834 84.0455 65.7396 84.0455 66.5483C84.0455 67.357 84.7009 68.0131 85.5103 68.0131H88.7574V71.6531H85.5103C84.7009 71.6531 84.0455 72.3093 84.0455 73.118C84.0455 73.9267 84.7009 74.5828 85.5103 74.5828H88.7574V87.8191L85.0709 80.3713C84.2339 78.6821 82.5433 77.6323 80.658 77.6323H74.4156V27.7169C74.4156 26.9082 73.7603 26.252 72.9508 26.252C72.1421 26.252 71.4859 26.9082 71.4859 27.7169V77.6323H44.677C42.4331 77.6323 40.6074 79.458 40.6074 81.7018V95.7354C40.6074 97.9792 42.4331 99.8049 44.677 99.8049H86.76C88.4744 99.8049 90.0384 98.9351 90.9432 97.4779C91.2911 96.9164 91.5185 96.306 91.6223 95.6797C91.6642 95.5423 91.6871 95.3966 91.6871 95.2456V94.9327C91.6879 94.8999 91.6879 94.8671 91.6871 94.8343V73.1584C91.6879 73.1447 91.6879 73.1317 91.6879 73.118C91.6879 73.105 91.6879 73.0913 91.6871 73.0775V66.5887C91.6879 66.575 91.6879 66.562 91.6879 66.5483C91.6879 66.5353 91.6879 66.5216 91.6871 66.5086V60.0198C91.6879 60.0061 91.6879 59.9923 91.6879 59.9794C91.6879 59.9656 91.6879 59.9519 91.6871 59.9389V53.4501C91.6879 53.4364 91.6879 53.4234 91.6879 53.4097C91.6879 53.3967 91.6879 53.383 91.6871 53.37V46.8804C91.6879 46.8675 91.6879 46.8537 91.6879 46.8408C91.6879 46.827 91.6879 46.8133 91.6871 46.8003V40.3115C91.6879 40.2978 91.6879 40.2848 91.6879 40.2711C91.6879 40.2573 91.6879 40.2444 91.6871 40.2306V33.7418C91.6879 33.7281 91.6879 33.7151 91.6879 33.7014C91.6879 33.6884 91.6879 33.6747 91.6871 33.6617V27.1721C91.6879 27.1592 91.6879 27.1454 91.6879 27.1325C91.6879 27.1187 91.6879 27.105 91.6871 27.092V20.6032C91.6879 20.5895 91.6879 20.5765 91.6879 20.5628C91.6879 20.5498 91.6879 20.5361 91.6871 20.5224V14.032C91.6879 14.0183 91.6879 14.0045 91.6879 13.9916ZM86.76 96.8752H44.677C44.0483 96.8752 43.5371 96.364 43.5371 95.7354V81.7018C43.5371 81.0739 44.0483 80.562 44.677 80.562H72.9134C72.9256 80.5628 72.9386 80.5628 72.9508 80.5628C72.9638 80.5628 72.976 80.5628 72.9889 80.562H80.658C81.4217 80.562 82.1061 80.9869 82.4448 81.6713L88.5468 93.9966C88.6765 94.2598 88.7467 94.5353 88.7574 94.8107V94.9602C88.7567 94.9778 88.7559 94.9953 88.7544 95.0129C88.7467 95.0632 88.7414 95.1136 88.7383 95.1654C88.6994 95.4309 88.6041 95.6903 88.4538 95.933C88.0822 96.5319 87.465 96.8752 86.76 96.8752Z" fill="black"/>
</g>
<defs>
<clipPath id="clip0">
<rect width="100" height="100" fill="white"/>
</clipPath>
</defs>
</svg>
