<svg width="40" height="40" viewBox="0 0 40 40" fill="none" xmlns="http://www.w3.org/2000/svg">
<g clip-path="url(#clip0)">
<path d="M3.33366 6.66666H7.33366V8C7.33366 8.24967 7.47331 8.47851 7.69531 8.59277C7.91732 8.70703 8.18457 8.68782 8.3877 8.54264L13.0544 5.20931C13.2298 5.08431 13.3337 4.88216 13.3337 4.66666C13.3337 4.45117 13.2298 4.24902 13.0544 4.12402L8.3877 0.790686C8.18457 0.645503 7.91732 0.626298 7.69531 0.740555C7.47331 0.854813 7.33366 1.08365 7.33366 1.33333V2.66666H3.33366C2.96549 2.66666 2.66699 2.96516 2.66699 3.33333V6C2.66699 6.36816 2.96549 6.66666 3.33366 6.66666ZM4.00033 4H8.00033C8.36849 4 8.66699 3.70149 8.66699 3.33333V2.62858L11.5195 4.66666L8.66699 6.70475V6C8.66699 5.63183 8.36849 5.33333 8.00033 5.33333H4.00033V4Z" fill="#9D9309"/>
<path d="M13.0544 34.7913L8.38769 31.458C8.18457 31.3132 7.91732 31.2936 7.69531 31.4079C7.47363 31.5218 7.33398 31.7503 7.33366 32V33.3333H3.33366C2.96549 33.3333 2.66699 33.6318 2.66699 34V36.6667C2.66699 37.0348 2.96549 37.3333 3.33366 37.3333H7.33366V38.6667C7.33366 39.0348 7.63216 39.3333 8.00033 39.3333C8.13932 39.3337 8.27506 39.29 8.38769 39.2087L13.0544 35.8753C13.2292 35.75 13.3327 35.5482 13.3327 35.3333C13.3327 35.1185 13.2292 34.9167 13.0544 34.7913ZM8.66699 37.3714V36.6667C8.66699 36.2985 8.36849 36 8.00033 36H4.00033V34.6667H8.00033C8.36849 34.6667 8.66699 34.3682 8.66699 34V33.2952L11.5195 35.3333L8.66699 37.3714Z" fill="#9D9309"/>
<path d="M24.5133 18.6514C24.8893 19.0798 25.43 19.3278 26 19.3333H38C39.1045 19.3333 40 18.4378 40 17.3333V15.3333C39.9971 12.7572 37.9095 10.6696 35.3333 10.6667H34V9.05078C35.2132 8.52116 35.9984 7.32389 36 6V3.33333C35.9977 1.49316 34.5068 0.00227865 32.6667 0H31.3333C29.4932 0.00227865 28.0023 1.49316 28 3.33333V6C28.0016 7.32389 28.7868 8.52116 30 9.05078V10.6667H28.6667C27.4131 10.6647 26.2122 11.1696 25.3366 12.0667C23.9814 11.7803 22.5908 12.3659 21.8486 13.5352C21.1061 14.7044 21.1676 16.2119 22.0033 17.3167L17 22.4626C16.2995 22.0423 15.4665 21.901 14.6667 22.0667C13.7904 21.1686 12.5879 20.6637 11.3333 20.6667H10V19.0508C11.2132 18.5212 11.9984 17.3239 12 16V13.3333C11.9977 11.4932 10.5068 10.0023 8.66667 10H7.33333C5.49316 10.0023 4.00228 11.4932 4 13.3333V16C4.00163 17.3239 4.78678 18.5212 6 19.0508V20.6667H4.66667C2.09082 20.6699 0.00325521 22.7575 0 25.3333V28C0 29.1045 0.895508 30 2 30H14C14.8662 29.9971 15.6318 29.4355 15.8945 28.61C16.2998 28.5397 16.6885 28.3945 17.04 28.1813L21.9733 34.0521C21.2493 35.0394 21.1296 36.3454 21.6611 37.4479C22.1927 38.5508 23.2894 39.2702 24.5127 39.3187C24.889 39.7471 25.43 39.9948 26 40H38C39.1045 40 40 39.1045 40 38V36C39.9967 33.4242 37.9092 31.3366 35.3333 31.3333H34V29.7174C35.2132 29.1878 35.9984 27.9906 36 26.6667V24C35.9977 22.1598 34.5068 20.6689 32.6667 20.6667H31.3333C29.4932 20.6689 28.0023 22.1598 28 24V26.6667C28.0016 27.9906 28.7868 29.1878 30 29.7174V31.3333H28.6667C27.4131 31.3314 26.2122 31.8363 25.3366 32.7334C24.5202 32.5641 23.6699 32.7132 22.96 33.1507L18.0267 27.2799C18.8926 26.1081 18.8799 24.5049 17.9961 23.3467L23 18.2041C23.4606 18.4736 23.9801 18.627 24.5133 18.6514ZM34.4795 12L33.4795 16H30.5205L29.5205 12H34.4795ZM31.3333 1.33333H32.6667C33.5111 1.33691 34.2624 1.87044 34.5439 2.66667H33.6107L33.1393 2.19531C32.9609 2.01693 32.6969 1.95443 32.4574 2.03385L30.5586 2.66667H29.4561C29.7376 1.87044 30.4889 1.33691 31.3333 1.33333ZM29.3333 6V4H30.6667C30.7383 4 30.8092 3.98861 30.8773 3.96615L32.486 3.43262L32.862 3.80794C32.9876 3.93197 33.1569 4.00098 33.3333 4H34.6667V6C34.6667 7.10449 33.7712 8 32.6667 8H31.3333C30.2288 8 29.3333 7.10449 29.3333 6ZM31.3333 9.33333H32.6667V10.6667H31.3333V9.33333ZM28.1572 12.0433L29.3532 16.8288C29.4277 17.1253 29.6943 17.3333 30 17.3333H34C34.3057 17.3333 34.5723 17.1253 34.6468 16.8288L35.8408 12.0514C37.4619 12.3011 38.6605 13.693 38.6667 15.3333V17.3333C38.6667 17.7015 38.3682 18 38 18H26.6462C27.4951 17.3796 27.998 16.3919 28 15.3405C28.0023 14.2887 27.5033 13.2992 26.6566 12.6755C27.0964 12.3431 27.6123 12.126 28.1572 12.0433ZM24.6667 13.3333C25.7712 13.3333 26.6667 14.2288 26.6667 15.3333C26.6667 16.4378 25.7712 17.3333 24.6667 17.3333C23.5622 17.3333 22.6667 16.4378 22.6667 15.3333C22.6667 14.2288 23.5622 13.3333 24.6667 13.3333ZM17.3333 25.3333C17.3333 26.4378 16.4378 27.3333 15.3333 27.3333C14.2288 27.3333 13.3333 26.4378 13.3333 25.3333C13.3333 24.2288 14.2288 23.3333 15.3333 23.3333C16.4378 23.3333 17.3333 24.2288 17.3333 25.3333ZM10.4801 22L9.48014 26H6.52051L5.52051 22H10.4801ZM7.33333 11.3333H8.66667C9.51107 11.3369 10.2624 11.8704 10.5439 12.6667H9.61068L9.13932 12.1953C8.96094 12.0169 8.69694 11.9544 8.45736 12.0339L6.55859 12.6667H5.45605C5.73763 11.8704 6.48893 11.3369 7.33333 11.3333ZM5.33333 16V14H6.66667C6.73828 14 6.80925 13.9886 6.87728 13.9661L8.486 13.4294L8.86198 13.8047C8.98698 13.9297 9.15658 14 9.33333 14H10.6667V16C10.6667 17.1045 9.77116 18 8.66667 18H7.33333C6.22884 18 5.33333 17.1045 5.33333 16ZM7.33333 19.3333H8.66667V20.6667H7.33333V19.3333ZM2 28.6667C1.63184 28.6667 1.33333 28.3682 1.33333 28V25.3333C1.33952 23.693 2.53809 22.3011 4.15918 22.0514L5.35319 26.8281C5.42741 27.125 5.69401 27.3333 6 27.3333H10C10.306 27.3333 10.5726 27.125 10.6468 26.8281L11.8428 22.0433C12.3877 22.1257 12.9033 22.3434 13.3428 22.6761C12.3285 23.4251 11.8281 24.6855 12.0527 25.9261C12.2773 27.167 13.1875 28.1719 14.4001 28.5179C14.2871 28.611 14.1462 28.6634 14 28.6667H2ZM34.4801 32.6667L33.4801 36.6667H30.5205L29.5205 32.6667H34.4801ZM31.3333 22H32.6667C33.5111 22.0036 34.2624 22.5371 34.5439 23.3333H33.6107L33.1393 22.862C32.9613 22.6829 32.6966 22.6204 32.4574 22.7012L30.5586 23.3333H29.4561C29.7376 22.5371 30.4889 22.0036 31.3333 22ZM29.3333 26.6667V24.6667H30.6667C30.7383 24.6663 30.8096 24.6549 30.8773 24.6322L32.486 24.0986L32.862 24.4733C32.9873 24.5977 33.1569 24.6673 33.3333 24.6667H34.6667V26.6667C34.6667 27.7712 33.7712 28.6667 32.6667 28.6667H31.3333C30.2288 28.6667 29.3333 27.7712 29.3333 26.6667ZM31.3333 30H32.6667V31.3333H31.3333V30ZM28.1572 32.71L29.3532 37.4948C29.4274 37.7917 29.694 38 30 38H34C34.306 38 34.5726 37.7917 34.6468 37.4948L35.8408 32.7181C37.4619 32.9678 38.6605 34.3597 38.6667 36V38C38.6667 38.3682 38.3682 38.6667 38 38.6667H26.6462C27.4948 38.0466 27.9977 37.0589 28 36.0075C28.0023 34.9561 27.5036 33.9665 26.6572 33.3428C27.0967 33.0101 27.6123 32.7923 28.1572 32.71ZM26.6667 36C26.6667 37.1045 25.7712 38 24.6667 38C23.5622 38 22.6667 37.1045 22.6667 36C22.6667 34.8955 23.5622 34 24.6667 34C25.7712 34 26.6667 34.8955 26.6667 36Z" fill="black"/>
</g>
<defs>
<clipPath id="clip0">
<rect width="40" height="40" fill="white"/>
</clipPath>
</defs>
</svg>
