<svg width="15" height="15" viewBox="0 0 15 15" fill="none" xmlns="http://www.w3.org/2000/svg">
<path d="M11.7291 0.260223C11.5247 0.0557621 11.2459 0 10.7254 0H3.92243C3.6808 0 3.47634 0.0929368 3.30905 0.260223C3.16035 0.408922 3.04883 0.63197 3.04883 0.873606V2.9368V11.6729V14.145C3.04883 14.368 3.14176 14.5725 3.30905 14.7398C3.45775 14.8885 3.6808 15 3.92243 15H11.0786C11.3202 15 11.5247 14.9071 11.692 14.7398C11.8406 14.5911 11.9522 14.368 11.9522 14.1264V11.6543V2.91822V1.20818C11.9522 0.743494 11.9336 0.464684 11.7291 0.260223ZM3.73656 0.855019C3.73656 0.817844 3.75515 0.762082 3.79232 0.743494C3.8295 0.70632 3.86667 0.687732 3.90385 0.687732H10.6882C11.0042 0.687732 11.1529 0.687732 11.1901 0.724907C11.2273 0.762082 11.2273 0.910781 11.2273 1.20818V1.97026C11.1157 1.93309 11.0228 1.89591 10.8927 1.89591H4.07113C3.95961 1.89591 3.84808 1.93309 3.73656 1.97026V0.855019ZM3.8295 2.69517C3.88526 2.63941 3.9782 2.60223 4.05255 2.60223H10.8927C10.9856 2.60223 11.06 2.63941 11.1157 2.69517C11.1715 2.75093 11.2087 2.84387 11.2087 2.91822V11.6543C11.2087 11.7472 11.1715 11.8216 11.1157 11.8773C11.06 11.9331 10.967 11.9703 10.8927 11.9703H4.07113C3.9782 11.9703 3.90385 11.9331 3.84808 11.8773C3.79232 11.8216 3.75515 11.7286 3.75515 11.6543V2.91822H3.73656C3.73656 2.82528 3.77374 2.75093 3.8295 2.69517ZM11.2459 14.1264C11.2459 14.1822 11.2273 14.2193 11.1901 14.2379C11.1529 14.2751 11.1157 14.2937 11.06 14.2937H3.92243C3.86667 14.2937 3.8295 14.2751 3.79232 14.2379C3.75515 14.2007 3.73656 14.1636 3.73656 14.1264V12.6022C3.84808 12.6394 3.94102 12.6766 4.07113 12.6766H10.9113C11.0228 12.6766 11.1343 12.6394 11.2459 12.6022V14.1264Z" fill="white"/>
<path d="M7.93677 13.1412H7.04457C6.84011 13.1412 6.69141 13.3085 6.69141 13.4944C6.69141 13.6989 6.85869 13.8476 7.04457 13.8476H7.93677C8.14123 13.8476 8.28993 13.6803 8.28993 13.4944C8.28993 13.3085 8.12265 13.1412 7.93677 13.1412Z" fill="white"/>
<path d="M6.48695 1.6542C6.68199 1.6542 6.84011 1.49608 6.84011 1.30104C6.84011 1.10599 6.68199 0.947876 6.48695 0.947876C6.2919 0.947876 6.13379 1.10599 6.13379 1.30104C6.13379 1.49608 6.2919 1.6542 6.48695 1.6542Z" fill="white"/>
<path d="M7.49085 1.6542C7.6859 1.6542 7.84402 1.49608 7.84402 1.30104C7.84402 1.10599 7.6859 0.947876 7.49085 0.947876C7.29581 0.947876 7.1377 1.10599 7.1377 1.30104C7.1377 1.49608 7.29581 1.6542 7.49085 1.6542Z" fill="white"/>
<path d="M8.49379 1.6542C8.68883 1.6542 8.84694 1.49608 8.84694 1.30104C8.84694 1.10599 8.68883 0.947876 8.49379 0.947876C8.29874 0.947876 8.14062 1.10599 8.14062 1.30104C8.14062 1.49608 8.29874 1.6542 8.49379 1.6542Z" fill="white"/>
</svg>
