<svg width="16" height="16" viewBox="0 0 16 16" fill="none" xmlns="http://www.w3.org/2000/svg">
<path d="M12.5109 0.277571C12.2928 0.0594795 11.9955 0 11.4403 0H4.1838C3.92606 0 3.70796 0.0991326 3.52952 0.277571C3.37091 0.436183 3.25195 0.674102 3.25195 0.931846V3.13259V12.4511V15.088C3.25195 15.3259 3.35109 15.544 3.52952 15.7224C3.68814 15.881 3.92606 16 4.1838 16H11.817C12.0748 16 12.2928 15.9009 12.4713 15.7224C12.6299 15.5638 12.7489 15.3259 12.7489 15.0682V12.4312V3.11276V1.28872C12.7489 0.793061 12.729 0.495663 12.5109 0.277571ZM3.98553 0.91202C3.98553 0.872367 4.00536 0.812887 4.04501 0.793061C4.08467 0.753408 4.12432 0.733581 4.16397 0.733581H11.4007C11.7377 0.733581 11.8963 0.733581 11.936 0.773234C11.9756 0.812887 11.9756 0.971499 11.9756 1.28872V2.10161C11.8567 2.06196 11.7575 2.0223 11.6187 2.0223H4.34241C4.22345 2.0223 4.10449 2.06196 3.98553 2.10161V0.91202ZM4.08467 2.87485C4.14415 2.81537 4.24328 2.77571 4.32259 2.77571H11.6187C11.7179 2.77571 11.7972 2.81537 11.8567 2.87485C11.9161 2.93432 11.9558 3.03346 11.9558 3.11276V12.4312C11.9558 12.5304 11.9161 12.6097 11.8567 12.6691C11.7972 12.7286 11.6981 12.7683 11.6187 12.7683H4.34241C4.24328 12.7683 4.16397 12.7286 4.10449 12.6691C4.04501 12.6097 4.00536 12.5105 4.00536 12.4312V3.11276H3.98553C3.98553 3.01363 4.02519 2.93432 4.08467 2.87485ZM11.9954 15.0682C11.9954 15.1276 11.9756 15.1673 11.936 15.1871C11.8963 15.2268 11.8567 15.2466 11.7972 15.2466H4.1838C4.12432 15.2466 4.08467 15.2268 4.04501 15.1871C4.00536 15.1475 3.98553 15.1078 3.98553 15.0682V13.4424C4.10449 13.482 4.20363 13.5217 4.34241 13.5217H11.6386C11.7575 13.5217 11.8765 13.482 11.9954 13.4424V15.0682Z" fill="#333333"/>
<path d="M8.46539 14.0176H7.51421C7.29623 14.0176 7.1377 14.196 7.1377 14.3943C7.1377 14.6124 7.31604 14.771 7.51421 14.771H8.46539C8.68337 14.771 8.8419 14.5925 8.8419 14.3943C8.8419 14.196 8.66356 14.0176 8.46539 14.0176Z" fill="#333333"/>
<path d="M6.91948 1.76415C7.12742 1.76415 7.29598 1.5955 7.29598 1.38745C7.29598 1.1794 7.12742 1.01074 6.91948 1.01074C6.71154 1.01074 6.54297 1.1794 6.54297 1.38745C6.54297 1.5955 6.71154 1.76415 6.91948 1.76415Z" fill="#333333"/>
<path d="M7.99076 1.76415C8.1987 1.76415 8.36727 1.5955 8.36727 1.38745C8.36727 1.1794 8.1987 1.01074 7.99076 1.01074C7.78283 1.01074 7.61426 1.1794 7.61426 1.38745C7.61426 1.5955 7.78283 1.76415 7.99076 1.76415Z" fill="#333333"/>
<path d="M9.0601 1.76415C9.26804 1.76415 9.43661 1.5955 9.43661 1.38745C9.43661 1.1794 9.26804 1.01074 9.0601 1.01074C8.85216 1.01074 8.68359 1.1794 8.68359 1.38745C8.68359 1.5955 8.85216 1.76415 9.0601 1.76415Z" fill="#333333"/>
</svg>
