<svg width="40" height="40" viewBox="0 0 40 40" fill="none" xmlns="http://www.w3.org/2000/svg">
<path d="M24.5719 5.99025L22.5719 2.65692C22.4515 2.45608 22.2345 2.33325 22.0003 2.33333H18.0003V1C18.0004 0.631917 17.7021 0.333417 17.334 0.333334C17.3339 0.333334 17.3337 0.333334 17.3337 0.333334H5.33366C4.96558 0.333251 4.66708 0.631584 4.66699 0.999667C4.66699 0.999751 4.66699 0.999917 4.66699 1V10.3333C4.66691 10.7014 4.96524 10.9999 5.33333 11C5.33341 11 5.33358 11 5.33366 11H7.33366C7.33366 12.1046 8.22908 13 9.33366 13C10.4382 13 11.3337 12.1046 11.3337 11H18.667C18.667 12.1046 19.5624 13 20.667 13C21.7716 13 22.667 12.1046 22.667 11H24.0003C24.3684 11.0001 24.6669 10.7018 24.667 10.3337C24.667 10.3336 24.667 10.3334 24.667 10.3333V6.33333C24.6671 6.21242 24.6342 6.09383 24.5719 5.99025ZM9.33366 11.6667C8.96549 11.6667 8.66699 11.3682 8.66699 11C8.66699 10.6318 8.96549 10.3333 9.33366 10.3333C9.70183 10.3333 10.0003 10.6318 10.0003 11C9.99999 11.368 9.70166 11.6663 9.33366 11.6667ZM16.667 9.66667H10.8135C10.0905 8.84942 8.84191 8.77292 8.02458 9.49592C7.96424 9.54933 7.90724 9.60633 7.85383 9.66667H6.00033V1.66667H16.667V9.66667ZM20.667 3.66667H21.6227L22.4228 5H20.667V3.66667ZM20.667 11.6667C20.2988 11.6667 20.0003 11.3682 20.0003 11C20.0003 10.6318 20.2988 10.3333 20.667 10.3333C21.0352 10.3333 21.3337 10.6318 21.3337 11C21.3333 11.368 21.035 11.6663 20.667 11.6667ZM23.3337 9.66667H22.1468C21.4238 8.84942 20.1752 8.77292 19.3579 9.49592C19.2976 9.54933 19.2406 9.60633 19.1872 9.66667H18.0003V3.66667H19.3337V5.66667C19.3336 6.03475 19.6319 6.33325 20 6.33333C20.0001 6.33333 20.0002 6.33333 20.0003 6.33333H23.2229L23.3337 6.51792V9.66667Z" fill="#9D9309"/>
<path d="M39.7703 29.8294L36.0002 26.5622V21.6667C36.0003 21.2986 35.7019 21.0001 35.3338 21C35.3338 21 35.3336 21 35.3335 21H32.6668C32.2988 20.9999 32.0003 21.2983 32.0002 21.6663C32.0002 21.6664 32.0002 21.6666 32.0002 21.6667V23.0957L29.7703 21.1628C29.5194 20.9459 29.1475 20.9459 28.8967 21.1628L18.8967 29.8294C18.6185 30.0709 18.5888 30.4922 18.8304 30.7703C18.957 30.9161 19.1405 30.9998 19.3336 31H22.6669V39C22.6668 39.3681 22.9652 39.6666 23.3333 39.6667C23.3333 39.6667 23.3335 39.6667 23.3336 39.6667H35.3336C35.7017 39.6667 36.0002 39.3684 36.0003 39.0003C36.0003 39.0003 36.0003 39.0001 36.0003 39V31H39.3336C39.7019 30.9998 40.0003 30.7009 40.0001 30.3326C39.9999 30.1395 39.9161 29.956 39.7703 29.8294ZM30.6668 38.3333H28.0002V35C28.0002 34.2636 28.5971 33.6667 29.3335 33.6667C30.0699 33.6667 30.6668 34.2636 30.6668 35V38.3333ZM35.3335 29.6667C34.9654 29.6666 34.6669 29.9649 34.6668 30.333C34.6668 30.3331 34.6668 30.3333 34.6668 30.3333V38.3333H32.0002V35C32.0002 33.5273 30.8063 32.3333 29.3335 32.3333C27.8608 32.3333 26.6668 33.5273 26.6668 35V38.3333H24.0002V30.3333C24.0003 29.9653 23.7019 29.6668 23.3338 29.6667C23.3338 29.6667 23.3336 29.6667 23.3335 29.6667H21.1206L29.3335 22.5488L32.23 25.0596C32.5084 25.3007 32.9297 25.2704 33.1708 24.992C33.2757 24.8708 33.3334 24.7159 33.3335 24.5557V22.3333H34.6668V26.8665C34.6668 27.0598 34.7507 27.2437 34.8967 27.3704L37.5464 29.6667H35.3335Z" fill="black"/>
<path d="M3.33333 2.33333H0V3.66667H3.33333V2.33333Z" fill="black"/>
<path d="M3.33333 5H0V6.33333H3.33333V5Z" fill="black"/>
<path d="M3.33333 7.66667H0V9H3.33333V7.66667Z" fill="black"/>
<path d="M34.6667 7H26V8.33333H34.6667C36.8758 8.33333 38.6667 10.1242 38.6667 12.3333C38.6667 14.5425 36.8758 16.3333 34.6667 16.3333H10C4.47717 16.3333 0 20.8105 0 26.3333C0 31.8562 4.47717 36.3333 10 36.3333H21.3333V35H10C5.2135 35 1.33333 31.1198 1.33333 26.3333C1.33333 21.5468 5.2135 17.6667 10 17.6667H34.6667C37.6122 17.6667 40 15.2788 40 12.3333C40 9.38783 37.6122 7 34.6667 7Z" fill="black"/>
</svg>
