<svg width="85" height="55" viewBox="0 0 85 55" fill="none" xmlns="http://www.w3.org/2000/svg">
<g clip-path="url(#clip0)">
<path d="M83.1228 8.57847C82.6352 6.92039 81.6842 5.40877 80.3644 4.19414C79.0445 2.97951 77.402 2.10424 75.6003 1.6555C69.0041 0 42.4569 0 42.4569 0C42.4569 0 15.9083 0.050111 9.31221 1.70561C7.51045 2.15438 5.86786 3.02969 4.54804 4.24438C3.22822 5.45907 2.27721 6.97075 1.78971 8.62889C-0.205464 19.4144 -0.979429 35.849 1.8445 46.2031C2.33204 47.8611 3.28308 49.3728 4.6029 50.5874C5.92272 51.802 7.56527 52.6773 9.367 53.126C15.9631 54.7815 42.511 54.7815 42.511 54.7815C42.511 54.7815 69.0586 54.7815 75.6544 53.126C77.4562 52.6773 79.0988 51.8021 80.4187 50.5875C81.7386 49.3728 82.6896 47.8612 83.1772 46.2031C85.2816 35.4023 85.9301 18.9781 83.1228 8.57878V8.57847Z" fill="#FF0000"/>
<path d="M34.0059 39.1295L56.0292 27.3907L34.0062 15.6519L34.0059 39.1295Z" fill="white"/>
</g>
<defs>
<clipPath id="clip0">
<rect width="85" height="55" fill="white"/>
</clipPath>
</defs>
</svg>
