<svg width="180" height="70" viewBox="0 0 180 70" fill="none" xmlns="http://www.w3.org/2000/svg">
<path fill-rule="evenodd" clip-rule="evenodd" d="M56.95 37.5084V22.2142H44.5007V31.1269C44.5007 33.9272 43.9888 36.0544 42.9378 37.5084H41.1055V44.6708H44.8241V41.0627H55.2524V44.6708H58.971V37.5084H56.95ZM53.2314 37.5084H46.9259C47.7882 36.0275 48.2194 33.9003 48.2194 31.1807V25.6877H53.2314V37.5084ZM74.3845 35.7582H64.2256C64.6837 37.4546 65.9502 38.2893 68.0251 38.2893C69.3455 38.2893 70.3694 37.8315 71.0431 36.943L73.8455 38.5585C72.5252 40.4703 70.5581 41.4397 67.9712 41.4397C65.7346 41.4397 63.9562 40.7665 62.6088 39.4202C61.2615 38.0739 60.5878 36.3775 60.5878 34.3311C60.5878 32.3116 61.2615 30.6153 62.5819 29.269C63.9023 27.8957 65.6268 27.2226 67.7017 27.2226C69.6688 27.2226 71.3126 27.8957 72.5791 29.269C73.8725 30.6422 74.5192 32.3116 74.5192 34.3311C74.5192 34.7889 74.4653 35.2466 74.3845 35.7582ZM71.0431 33.0656H64.1717C64.5759 31.3423 65.8424 30.346 67.7017 30.346C69.2916 30.346 70.6389 31.2346 71.0431 33.0656ZM85.7829 32.6886V27.5995H89.259V41.0627H85.7829V35.9467H80.4205V41.0627H76.9444V27.5995H80.4205V32.6886H85.7829ZM103.056 27.5995H91.1183V30.9384H95.3758V41.0627H98.8519V30.9384H103.056V27.5995ZM115.155 29.1882V27.5995H118.631V41.0627H115.155V39.474C114.104 40.7934 112.649 41.4397 110.762 41.4397C108.957 41.4397 107.421 40.7665 106.128 39.3933C104.861 38.02 104.214 36.3237 104.214 34.3311C104.214 32.3386 104.861 30.6691 106.128 29.2959C107.421 27.9226 108.957 27.2226 110.762 27.2226C112.649 27.2226 114.104 27.8688 115.155 29.1882ZM111.409 38.1277C110.331 38.1277 109.442 37.7777 108.741 37.0776C108.041 36.3506 107.69 35.4351 107.69 34.3311C107.69 33.2271 108.041 32.3116 108.741 31.6115C109.442 30.8845 110.331 30.5345 111.409 30.5345C112.487 30.5345 113.376 30.8845 114.077 31.6115C114.804 32.3116 115.155 33.2271 115.155 34.3311C115.155 35.4351 114.804 36.3506 114.077 37.0776C113.376 37.7777 112.487 38.1277 111.409 38.1277Z" fill="url(#paint0_linear)"/>
<path d="M176.149 26.4093C173.301 24.7272 170.133 24.2967 166.645 25.1177C166.021 25.2647 165.477 25.066 165.261 24.5167C165.044 23.9685 165.195 23.259 165.863 23.1302C170.47 22.2426 173.898 23.3356 176.149 26.4093Z" fill="#3A9FA7"/>
<path d="M26.2848 38.5045C26.4029 39.4265 20.9077 40.221 20.7896 39.2991C18.095 18.2664 21.4786 5.95907 31.4782 2.87053C34.379 1.97458 37.0193 1.90997 39.5789 2.58447C41.6347 3.12622 43.4762 4.05953 45.9065 5.63955C46.2485 5.86186 52.4711 9.85742 56.2806 10.494C60.0902 11.1305 61.6843 9.86278 65.5466 8.8558C66.4476 8.62089 60.6102 18.9639 44.0658 8.45976C41.8915 7.07928 40.3547 6.27004 38.718 5.83875C36.7731 5.32624 34.7765 5.3751 32.4752 6.08588C24.5849 8.52291 23.7756 18.9196 26.2848 38.5045Z" fill="url(#paint1_linear)"/>
<path d="M58.696 7.65295C57.8372 7.99201 64.0778 2.8439 69.3884 2.27696C77.5807 1.40238 83.4008 5.27915 85.5579 13.3227C85.7987 14.2204 82.5411 15.0926 82.3004 14.1949C79.8311 4.98707 71.5102 2.59319 58.696 7.65295Z" fill="url(#paint2_linear)"/>
<path d="M45.6835 56.4454C55.7296 60.6679 67.6675 58.0833 81.4972 48.6918C74.3996 63.7764 64.4744 69.3958 51.7217 65.5501C48.3786 64.5419 42.3978 55.0644 45.6835 56.4454Z" fill="url(#paint3_linear)"/>
<path d="M0 58.9223C8.38498 42.6226 22.2907 40.51 41.7173 52.5846C61.1438 64.6591 77.577 64.5561 91.017 52.2754C76.0526 71.4339 59.4044 74.605 41.0724 61.7888C22.7403 48.9725 9.04955 48.017 0 58.9223Z" fill="url(#paint4_linear)"/>
<path fill-rule="evenodd" clip-rule="evenodd" d="M176.377 29.1882V27.5995H179.853V41.0627H176.377V39.474C175.326 40.7934 173.871 41.4397 171.985 41.4397C170.179 41.4397 168.643 40.7665 167.35 39.3933C166.083 38.02 165.437 36.3237 165.437 34.3311C165.437 32.3386 166.083 30.6691 167.35 29.2959C168.643 27.9226 170.179 27.2225 171.985 27.2225C173.871 27.2225 175.326 27.8688 176.377 29.1882ZM122.673 27.5995H133.343V41.0627H129.867V30.9384H126.149V35.4351C126.149 39.6087 124.262 41.4666 120.463 41.0627V37.8046C121.891 38.1546 122.673 37.3199 122.673 35.2466V27.5995ZM139.891 35.2466L146.224 27.5995H148.811V41.0627H145.415V33.4156L139.083 41.0627H136.496V27.5995H139.891V35.2466ZM164.413 41.0627L158.835 34.2503L164.251 27.5995H160.101L155.466 33.5233V27.5995H151.99V41.0627H155.466V34.9504L160.371 41.0627H164.413ZM172.631 38.1277C171.554 38.1277 170.664 37.7777 169.964 37.0776C169.263 36.3506 168.913 35.4351 168.913 34.3311C168.913 33.2271 169.263 32.3116 169.964 31.6115C170.664 30.8845 171.554 30.5345 172.631 30.5345C173.709 30.5345 174.599 30.8845 175.299 31.6115C176.027 32.3116 176.377 33.2271 176.377 34.3311C176.377 35.4351 176.027 36.3506 175.299 37.0776C174.599 37.7777 173.709 38.1277 172.631 38.1277Z" fill="url(#paint5_linear)"/>
<defs>
<linearGradient id="paint0_linear" x1="196.911" y1="33.0173" x2="123.413" y2="-38.158" gradientUnits="userSpaceOnUse">
<stop stop-color="#84D0F4"/>
<stop offset="1" stop-color="#3596DA"/>
</linearGradient>
<linearGradient id="paint1_linear" x1="46.8457" y1="-4.23219" x2="14.5231" y2="24.83" gradientUnits="userSpaceOnUse">
<stop stop-color="#84D0F4"/>
<stop offset="1" stop-color="#2589CE"/>
</linearGradient>
<linearGradient id="paint2_linear" x1="108.422" y1="4.16999" x2="87.3766" y2="-20.7294" gradientUnits="userSpaceOnUse">
<stop stop-color="#3A9FA7"/>
<stop offset="1" stop-color="#42C2C1"/>
</linearGradient>
<linearGradient id="paint3_linear" x1="55.8802" y1="21.1023" x2="34.3474" y2="76.0198" gradientUnits="userSpaceOnUse">
<stop stop-color="#3A9FA7"/>
<stop offset="1" stop-color="#42C2C1"/>
</linearGradient>
<linearGradient id="paint4_linear" x1="81.8292" y1="42.6134" x2="-13.4697" y2="78.5895" gradientUnits="userSpaceOnUse">
<stop stop-color="#EDF9FF"/>
<stop offset="1" stop-color="#3596DA"/>
</linearGradient>
<linearGradient id="paint5_linear" x1="138.476" y1="5.46771" x2="129.25" y2="53.6628" gradientUnits="userSpaceOnUse">
<stop stop-color="#3A9FA7"/>
<stop offset="1" stop-color="#42C2C1"/>
</linearGradient>
</defs>
</svg>
