<svg width="190" height="30" viewBox="0 0 190 30" fill="none" xmlns="http://www.w3.org/2000/svg">
<g clip-path="url(#clip0)">
<path fill-rule="evenodd" clip-rule="evenodd" d="M170.495 29.9979H0L18.3988 0.00244141L190 0.437158L170.495 29.9979Z" fill="#FAE61B"/>
<path d="M58.5642 9.91754L58.5739 12.9421H58.2508C58.055 12.2391 57.8494 11.7397 57.6144 11.4344C57.3793 11.1292 57.066 10.8887 56.6548 10.7037C56.4295 10.602 56.0379 10.5557 55.4699 10.5557H54.5691L54.5887 19.1761C54.5887 19.7495 54.6279 20.101 54.6964 20.249C54.7649 20.397 54.902 20.5172 55.0979 20.619C55.3035 20.73 55.5679 20.7855 55.9106 20.7762H56.312V21.0814L49.9865 21.0907V20.7855H50.388C50.7405 20.7855 51.0245 20.7207 51.2301 20.6097C51.3868 20.5357 51.5043 20.397 51.5924 20.212C51.6609 20.0825 51.6903 19.7403 51.6903 19.1761L51.6707 10.5557H50.7993C49.9865 10.5557 49.399 10.713 49.0269 11.0367C48.508 11.4807 48.1849 12.1189 48.0576 12.9421H47.7246L47.7148 9.91754L58.5544 9.89904L58.5642 9.91754ZM64.1944 10.5465L64.2042 15.0971H64.449C65.2128 15.0971 65.7709 14.8752 66.1136 14.4312C66.4563 13.9872 66.6718 13.3305 66.7697 12.4611H67.1026L67.1124 18.3159H66.7795C66.7011 17.6777 66.5543 17.1597 66.3291 16.7528C66.094 16.3458 65.8297 16.0683 65.5261 15.9296C65.2226 15.7908 64.7819 15.7261 64.214 15.7261L64.2238 18.8801C64.2238 19.4998 64.2532 19.8698 64.3119 20.0085C64.3707 20.1473 64.4784 20.2583 64.6253 20.3415C64.7819 20.434 65.0267 20.471 65.3695 20.471H66.094C67.2201 20.471 68.121 20.2213 68.8064 19.7403C69.482 19.2593 69.9716 18.5194 70.2654 17.5297H70.5885L70.0597 21.0814L59.6217 21.0999V20.7947H60.0231C60.3756 20.7947 60.6596 20.73 60.8652 20.619C61.0219 20.545 61.1394 20.4062 61.2177 20.2213C61.2863 20.0918 61.3157 19.7495 61.3157 19.1853L61.2961 11.8321C61.2961 11.3234 61.2765 11.0182 61.2471 10.898C61.1884 10.7037 61.0806 10.5557 60.9142 10.454C60.689 10.2968 60.3756 10.2228 59.984 10.2228H59.5825V9.91754L69.6876 9.89904L69.6974 13.2103H69.3645C69.1883 12.4056 68.9435 11.8229 68.6301 11.4714C68.3168 11.12 67.8762 10.861 67.3082 10.7037C66.9753 10.602 66.3584 10.5557 65.438 10.5557H64.1944V10.5465ZM79.0976 14.4959L82.4366 19.0651C82.9947 19.8235 83.3864 20.286 83.6214 20.4432C83.8564 20.6005 84.1403 20.7022 84.4537 20.73V21.0352L78.5688 21.0444V20.7392C79.0388 20.7022 79.3424 20.6375 79.4794 20.5357C79.6165 20.434 79.6851 20.3138 79.6851 20.175C79.6851 20.0733 79.6655 19.99 79.6165 19.916C79.5382 19.7495 79.3228 19.4443 78.9898 18.9911L77.2175 16.577L75.3767 18.6674C74.8283 19.3056 74.5542 19.731 74.5542 19.953C74.5542 20.1103 74.6325 20.2583 74.7696 20.397C74.9165 20.5357 75.1221 20.6282 75.406 20.693C75.5333 20.73 75.7879 20.7392 76.1698 20.7392V21.0444L71.5285 21.0537V20.7485C72.0573 20.6745 72.4685 20.545 72.7721 20.3507C73.1735 20.101 73.7219 19.5646 74.4367 18.7599L76.8259 16.0498L73.7414 11.8691C73.2323 11.1847 72.9483 10.8055 72.8798 10.7222C72.7231 10.5465 72.5664 10.417 72.4098 10.3338C72.2531 10.2598 72.0377 10.195 71.7635 10.1673V9.86205L77.7561 9.8528V10.158H77.4525C77.1098 10.158 76.865 10.2135 76.7279 10.3153C76.5909 10.417 76.5223 10.5465 76.5223 10.6945C76.5223 10.8147 76.5419 10.9165 76.5909 11.009L77.2077 11.8691L78.7059 13.978L79.9788 12.5351C80.6349 11.7951 80.958 11.2679 80.958 10.972C80.958 10.824 80.909 10.6852 80.8209 10.5557C80.7328 10.4263 80.5957 10.3338 80.4292 10.2598C80.253 10.1858 79.9886 10.158 79.6263 10.158V9.8528L84.0718 9.84355V10.1488C83.7193 10.158 83.4353 10.195 83.2297 10.269C83.0143 10.343 82.7891 10.4817 82.5443 10.6852C82.3876 10.8147 82.0057 11.2309 81.3888 11.9154L79.1073 14.4774L79.0976 14.4959ZM96.0276 9.58457L96.0374 13.46H95.6947C95.4303 12.4518 94.9407 11.6749 94.2259 11.1384C93.5111 10.602 92.7082 10.3338 91.7975 10.3338C91.0435 10.3338 90.3581 10.5372 89.7217 10.9442C89.095 11.3512 88.6348 11.8691 88.341 12.5258C87.9689 13.3583 87.7829 14.2832 87.7829 15.3006C87.7829 16.2996 87.92 17.2152 88.2039 18.0292C88.4781 18.8524 88.9089 19.4721 89.4867 19.8883C90.0644 20.3138 90.8183 20.5172 91.7486 20.5172C92.5123 20.5172 93.2075 20.36 93.8342 20.0548C94.4609 19.7495 95.1267 19.2131 95.8317 18.4639V19.4258C95.1561 20.0825 94.4511 20.5542 93.7167 20.8502C92.9823 21.1462 92.1304 21.2942 91.1513 21.2942C89.8685 21.2942 88.7229 21.0629 87.7143 20.582C86.7156 20.101 85.942 19.4166 85.3937 18.5286C84.8551 17.6315 84.5712 16.6788 84.5712 15.6706C84.5712 14.6069 84.8649 13.5895 85.472 12.6368C86.0693 11.6749 86.882 10.935 87.9004 10.4078C88.9187 9.88055 90.0154 9.61232 91.1611 9.61232C92.0129 9.61232 92.904 9.7788 93.8538 10.1118C94.4021 10.306 94.7449 10.4078 94.9015 10.4078C95.0876 10.4078 95.254 10.343 95.3911 10.2135C95.5282 10.084 95.6261 9.88055 95.6653 9.60307H96.008L96.0276 9.58457ZM101.991 10.4725L102.001 15.0232H102.245C103.009 15.0232 103.567 14.8012 103.91 14.3572C104.253 13.9132 104.468 13.2565 104.566 12.3871H104.899L104.909 18.2419H104.576C104.497 17.6037 104.351 17.0857 104.125 16.6788C103.89 16.2718 103.626 15.9943 103.322 15.8556C103.019 15.7169 102.578 15.6521 102.01 15.6521L102.02 18.8061C102.02 19.4258 102.05 19.7958 102.108 19.9345C102.167 20.0733 102.275 20.1843 102.422 20.2675C102.578 20.36 102.823 20.397 103.166 20.397H103.89C105.016 20.397 105.917 20.1473 106.603 19.6663C107.278 19.1853 107.768 18.4454 108.062 17.4557H108.395L107.866 21.0074L97.4278 21.0259V20.7207H97.8293C98.1818 20.7207 98.4657 20.656 98.6714 20.545C98.828 20.471 98.9455 20.3322 99.0239 20.1473C99.0924 20.0178 99.1218 19.6755 99.1218 19.1113L99.1022 11.7582C99.1022 11.2494 99.0826 10.9442 99.0532 10.824C98.9945 10.6297 98.8868 10.4817 98.7203 10.38C98.4951 10.2228 98.1818 10.1488 97.7901 10.1488H97.3886V9.84355L107.494 9.82505L107.504 13.1363H107.171C106.994 12.3316 106.75 11.7489 106.436 11.3974C106.123 11.046 105.682 10.787 105.114 10.6297C104.781 10.528 104.165 10.4817 103.244 10.4817H102.001L101.991 10.4725ZM114.123 15.9203L114.133 19.0188C114.133 19.6201 114.172 20.0085 114.26 20.1565C114.338 20.3138 114.485 20.4432 114.691 20.5357C114.896 20.6282 115.268 20.6745 115.817 20.6745V20.9797L109.677 20.9889V20.6837C110.235 20.6837 110.617 20.6375 110.813 20.5357C111.009 20.4432 111.146 20.3138 111.234 20.1565C111.313 19.9993 111.352 19.6201 111.352 19.0188L111.332 11.7582C111.332 11.1569 111.293 10.7685 111.215 10.6112C111.136 10.454 110.989 10.3338 110.784 10.2413C110.578 10.1488 110.206 10.1025 109.658 10.1025V9.7973L114.926 9.78805C116.659 9.78805 117.902 10.0655 118.656 10.639C119.41 11.2124 119.792 11.9246 119.792 12.7848C119.792 13.5155 119.547 14.1352 119.068 14.6532C118.578 15.1711 117.912 15.5226 117.06 15.7169C116.483 15.8463 115.513 15.9203 114.142 15.9203H114.123ZM114.113 10.4448L114.123 15.2821C114.319 15.2914 114.466 15.3006 114.573 15.3006C115.298 15.3006 115.856 15.0971 116.248 14.6994C116.639 14.3017 116.835 13.682 116.835 12.8496C116.835 12.0171 116.63 11.4159 116.238 11.0275C115.846 10.639 115.259 10.454 114.485 10.454H114.123L114.113 10.4448ZM128.448 15.0232C129.594 15.2636 130.397 15.5689 130.867 15.9203C131.533 16.4198 131.866 17.0672 131.866 17.8627C131.866 18.7044 131.503 19.3981 130.779 19.953C129.888 20.619 128.585 20.9612 126.872 20.9612L120.732 20.9705V20.6652C121.29 20.6652 121.672 20.619 121.868 20.5172C122.064 20.4247 122.201 20.2953 122.279 20.138C122.358 19.9808 122.397 19.6016 122.397 19.0004L122.377 11.7397C122.377 11.1384 122.338 10.75 122.25 10.5927C122.172 10.4355 122.025 10.3153 121.829 10.2228C121.633 10.1303 121.251 10.084 120.703 10.084V9.7788L126.49 9.76955C127.87 9.76955 128.85 9.88055 129.427 10.1025C130.005 10.3338 130.456 10.6667 130.788 11.12C131.121 11.5732 131.288 12.0541 131.288 12.5628C131.288 13.0993 131.082 13.5803 130.661 14.0057C130.24 14.4219 129.506 14.7642 128.438 15.0139L128.448 15.0232ZM125.207 14.8012C126.049 14.8012 126.666 14.7087 127.068 14.5329C127.469 14.3572 127.773 14.1075 127.988 13.7837C128.203 13.4693 128.301 13.0531 128.301 12.5628C128.301 12.0726 128.194 11.6657 127.978 11.3512C127.773 11.0367 127.469 10.7962 127.077 10.6297C126.686 10.4633 126.059 10.3893 125.188 10.3985L125.197 14.8012H125.207ZM125.207 15.4486L125.217 19.0373L125.207 19.4536C125.207 19.7495 125.285 19.9715 125.452 20.1288C125.618 20.2768 125.853 20.3507 126.177 20.3507C126.647 20.3507 127.087 20.249 127.489 20.0548C127.89 19.8605 128.194 19.5738 128.409 19.2038C128.624 18.8339 128.732 18.4176 128.732 17.9644C128.732 17.4372 128.595 16.9748 128.341 16.5585C128.076 16.1423 127.724 15.8556 127.263 15.6891C126.803 15.5226 126.128 15.4486 125.217 15.4579L125.207 15.4486ZM141.716 11.5917C141.706 10.9905 141.628 10.5742 141.481 10.3708C141.324 10.158 140.952 10.0563 140.345 10.0563H139.944V9.75106L146.416 9.74181V10.047H145.995C145.437 10.047 145.065 10.1488 144.889 10.343C144.703 10.5465 144.614 10.9812 144.614 11.6472L144.634 19.0004C144.634 19.694 144.732 20.1288 144.918 20.323C145.104 20.5172 145.476 20.619 146.024 20.6097H146.446V20.915L139.973 20.9242V20.619H140.375C140.943 20.619 141.305 20.5172 141.481 20.3045C141.657 20.0918 141.745 19.6663 141.736 18.9911L141.726 12.9236L137.486 19.1206C137.486 19.6571 137.555 20.0363 137.701 20.2675C137.848 20.4987 138.23 20.619 138.857 20.619H139.278V20.9242L132.806 20.9335V20.6282H133.207C133.765 20.6282 134.137 20.5265 134.323 20.3138C134.5 20.101 134.588 19.6755 134.588 19.0004L134.568 11.6472C134.568 10.9812 134.49 10.5465 134.353 10.343C134.216 10.1488 133.824 10.047 133.187 10.047H132.786V9.74181L139.258 9.73256V10.0378H138.837C138.289 10.0378 137.927 10.1488 137.741 10.3615C137.555 10.5835 137.466 10.9997 137.466 11.6379L137.476 17.7702L141.716 11.5732V11.5917ZM158.842 9.45508L158.852 13.3305H158.509C158.245 12.3224 157.755 11.5454 157.04 11.009C156.325 10.4725 155.523 10.2043 154.612 10.2043C153.858 10.2043 153.173 10.4078 152.536 10.8147C151.909 11.2217 151.449 11.7397 151.155 12.3964C150.783 13.2288 150.597 14.1537 150.597 15.1711C150.597 16.1701 150.734 17.0857 151.018 17.8997C151.292 18.7229 151.723 19.3426 152.301 19.7588C152.879 20.1843 153.633 20.3877 154.563 20.3877C155.327 20.3877 156.022 20.2305 156.649 19.9253C157.275 19.6201 157.941 19.0836 158.646 18.3344V19.2963C157.97 19.953 157.265 20.4247 156.531 20.7207C155.797 21.0167 154.945 21.1647 153.966 21.1647C152.683 21.1647 151.537 20.9335 150.529 20.4525C149.53 19.9715 148.756 19.2871 148.208 18.3991C147.67 17.502 147.386 16.5493 147.386 15.5411C147.386 14.4774 147.679 13.46 148.286 12.5073C148.884 11.5454 149.696 10.8055 150.715 10.2783C151.733 9.75106 152.83 9.48283 153.975 9.48283C154.827 9.48283 155.718 9.64931 156.668 9.98229C157.217 10.1765 157.559 10.2783 157.716 10.2783C157.902 10.2783 158.068 10.2135 158.205 10.084C158.343 9.95454 158.44 9.75106 158.48 9.47358H158.822L158.842 9.45508Z" fill="#2B2A29"/>
<path fill-rule="evenodd" clip-rule="evenodd" d="M40.4102 8.71518L44.3563 8.70593L44.366 12.4057L40.4199 12.4149L40.4102 8.71518Z" fill="#3CA741"/>
<path fill-rule="evenodd" clip-rule="evenodd" d="M35.5537 13.2659H39.5096V16.9748H35.5537V13.2659Z" fill="#077841"/>
<path fill-rule="evenodd" clip-rule="evenodd" d="M31.1475 13.2659H35.1131V16.9748H31.1475V13.2659Z" fill="#077841"/>
<path fill-rule="evenodd" clip-rule="evenodd" d="M39.9697 13.275H43.9256V16.984H39.9697V13.275Z" fill="#3CA741"/>
<path fill-rule="evenodd" clip-rule="evenodd" d="M35.5537 17.4003H39.5096V21.1092H35.5537V17.4003Z" fill="#077841"/>
<path fill-rule="evenodd" clip-rule="evenodd" d="M31.1475 17.4003H35.1131V21.1092H31.1475V17.4003Z" fill="#077841"/>
<path fill-rule="evenodd" clip-rule="evenodd" d="M39.9697 17.4095H43.9256V21.1185H39.9697V17.4095Z" fill="#3CA741"/>
<path fill-rule="evenodd" clip-rule="evenodd" d="M35.5537 9.12219H39.5096V12.8312H35.5537V9.12219Z" fill="#3CA741"/>
<path fill-rule="evenodd" clip-rule="evenodd" d="M31.1475 9.12219H35.1131V12.8312H31.1475V9.12219Z" fill="#3CA741"/>
</g>
<defs>
<clipPath id="clip0">
<rect width="190" height="30" fill="white"/>
</clipPath>
</defs>
</svg>
